<svg width="48" height="48" viewBox="0 0 48 48" fill="none" xmlns="http://www.w3.org/2000/svg">
<rect width="48" height="48" rx="4" fill="black"/>
<path d="M15.9335 14.5206L21.7532 14.3642C22.395 14.3483 23.662 14.2701 24.1316 13.8009C24.2415 13.691 24.3039 13.5979 24.2564 13.4256L24.3505 13.3316L26.4 15.38L26.3059 15.4741C23.6154 14.5048 20.815 14.8642 17.9988 14.8958C21.9097 18.1166 14.6823 25.2154 17.1381 27.6707C17.6383 28.1708 18.3743 28.343 19.0469 28.1708L19.0935 28.3114C18.1237 28.5302 17.1064 28.2015 16.418 27.5143C12.9608 24.0589 19.891 17.1315 17.7632 15.0048L17.6691 14.9108L15.4473 15.0048L10.8787 19.571C10.4567 19.9928 10.3002 20.6501 10.5033 21.2284L10.425 21.3066L8.0625 18.9453L8.14075 18.8671C8.73512 19.0235 9.39192 18.8671 9.83066 18.4294L18.5132 9.75142C18.9669 9.29797 19.1234 8.70391 18.9203 8.09403L19.0144 8L21.3769 10.3613L21.2828 10.4553C20.735 10.2523 20.0782 10.3771 19.6562 10.7989L15.9326 14.5206H15.9335Z" fill="white"/>
<path d="M14.524 32.0515L14.3675 26.2348C14.3517 25.5933 14.2734 24.3269 13.8039 23.8577C13.694 23.7478 13.6008 23.6854 13.4284 23.7329L13.3344 23.6388L15.3839 21.5904L15.478 21.6844C14.5082 24.3735 14.8678 27.1724 14.8994 29.9872C18.1219 26.0784 25.2244 33.302 27.681 30.8475C28.1813 30.3475 28.3536 29.6119 28.1813 28.9397L28.322 28.8931C28.5409 29.8624 28.212 30.8792 27.5245 31.5672C24.0673 35.0226 17.1362 28.096 15.0084 30.2227L14.9144 30.3167L15.0084 32.5374L19.577 37.1036C19.999 37.5254 20.6567 37.6818 21.2352 37.4788L21.3135 37.557L18.951 39.9183L18.8727 39.8401C19.0292 39.2461 18.8727 38.5896 18.4349 38.1511L9.75233 29.4731C9.29864 29.0196 8.70427 28.8632 8.09408 29.0662L8 28.9722L10.3625 26.6109L10.4566 26.7049C10.2535 27.2524 10.3784 27.9089 10.8004 28.3307L14.524 32.0523V32.0515Z" fill="white"/>
<path d="M32.0603 33.4628L26.2405 33.6192C25.5987 33.6351 24.3317 33.7133 23.8622 34.1826C23.7523 34.2924 23.6899 34.3855 23.7373 34.5578L23.6433 34.6518L21.5938 32.6034L21.6878 32.5093C24.3783 33.4786 27.1787 33.1192 29.9949 33.0876C26.084 29.8668 33.3114 22.768 30.8557 20.3127C30.3554 19.8126 29.6195 19.6404 28.9469 19.8126L28.9003 19.672C29.8701 19.4532 30.8874 19.7819 31.5758 20.4691C35.033 23.9245 28.1028 30.852 30.2306 32.9786L30.3246 33.0726L32.5465 32.9786L37.115 28.4124C37.5371 27.9906 37.6936 27.3333 37.4905 26.7551L37.5687 26.6768L39.9312 29.0381L39.853 29.1164C39.2586 28.9599 38.6018 29.1163 38.1631 29.554L29.4806 38.232C29.0269 38.6854 28.8704 39.2795 29.0735 39.8894L28.9794 39.9834L26.6169 37.6221L26.7109 37.5281C27.2587 37.7311 27.9155 37.6063 28.3375 37.1845L32.0611 33.4628H32.0603Z" fill="white"/>
<path d="M33.4746 15.9319L33.6311 21.7486C33.6469 22.3901 33.7251 23.6564 34.1947 24.1257C34.3046 24.2356 34.3978 24.298 34.5701 24.2505L34.6642 24.3445L32.6147 26.393L32.5206 26.299C33.4904 23.6099 33.1308 20.8109 33.0991 17.9962C29.8767 21.905 22.7742 14.6814 20.3176 17.1359C19.8173 17.6359 19.6449 18.3714 19.8173 19.0437L19.6766 19.0903C19.4577 18.121 19.7865 17.1042 20.4741 16.4161C23.9313 12.9607 30.8623 19.8873 32.9901 17.7607L33.0842 17.6666L32.9901 15.446L28.4215 10.8798C27.9995 10.458 27.3418 10.3015 26.7633 10.5045L26.685 10.4263L29.0476 8.06503L29.1258 8.14324C28.9693 8.7373 29.1258 9.39376 29.5637 9.83227L38.2462 18.5103C38.6999 18.9637 39.2943 19.1202 39.9045 18.9172L39.9985 19.0112L37.636 21.3725L37.5419 21.2785C37.745 20.731 37.6202 20.0745 37.1982 19.6527L33.4746 15.931V15.9319Z" fill="white"/>
</svg>
