<svg width="512" height="512" viewBox="0 0 512 512" fill="none" xmlns="http://www.w3.org/2000/svg">
<rect width="512" height="512" rx="64" fill="black"/>
<path d="M385.149 138.442C385.149 138.569 385.276 138.761 385.531 139.016C385.149 139.143 384.766 139.207 384.384 139.207C384.129 139.207 383.874 139.27 383.619 139.398C381.07 140.035 378.712 141.119 376.545 142.648C374.505 144.05 372.785 145.835 371.383 148.002C370.108 150.041 369.216 152.208 368.706 154.502C368.196 156.797 367.877 159.091 367.75 161.385C367.622 164.062 367.559 166.802 367.559 169.606C367.559 172.283 367.559 174.96 367.559 177.637V196.565V259.276C367.559 259.276 367.304 259.149 366.794 258.894C366.412 258.639 365.965 258.32 365.456 257.938C364.946 257.555 364.5 257.237 364.117 256.982C363.735 256.727 363.607 256.663 363.735 256.791C362.205 255.643 360.676 254.496 359.146 253.349C357.617 252.202 356.151 250.991 354.749 249.716C353.347 248.569 351.881 247.422 350.351 246.275C348.949 245 347.547 243.726 346.145 242.451C345.635 242.069 345.125 241.686 344.616 241.304C344.106 240.794 343.596 240.221 343.086 239.583C343.086 239.456 343.022 239.392 342.895 239.392C342.895 239.392 342.895 239.328 342.895 239.201V236.907V174.195V155.267C342.895 152.718 342.895 150.105 342.895 147.428C342.767 144.751 342.831 142.138 343.086 139.589C343.086 139.334 343.086 139.079 343.086 138.824C343.213 138.442 343.277 138.123 343.277 137.868H338.306C337.796 137.741 337.159 137.295 336.394 136.53L334.673 134.809C333.271 133.407 331.933 132.005 330.658 130.603C329.256 129.074 327.854 127.608 326.452 126.206C325.178 124.804 323.903 123.338 322.628 121.808C321.354 120.279 320.079 118.749 318.804 117.22C318.295 116.582 317.848 116.009 317.466 115.499C317.084 114.989 316.701 114.415 316.319 113.778C316.191 113.651 316.128 113.587 316.128 113.587C316.128 113.459 316.064 113.332 315.937 113.204H327.408H358.381C359.146 113.587 359.784 114.097 360.293 114.734C361.058 115.499 361.695 116.072 362.205 116.455L370.235 125.058C370.618 125.568 371.319 126.333 372.339 127.353C372.848 127.863 373.231 128.181 373.486 128.309C375.015 129.583 376.481 130.794 377.883 131.941C379.285 133.089 380.687 134.299 382.089 135.574C382.727 136.084 383.237 136.594 383.619 137.104C384.129 137.486 384.639 137.932 385.149 138.442Z" fill="white"/>
<path d="M416.781 377.242C417.928 381.321 418.183 385.336 417.545 389.288C416.908 393.239 415.697 397.063 413.913 400.759C412.001 404.711 409.834 408.407 407.412 411.848C404.99 415.417 402.887 419.114 401.103 422.938C399.191 426.761 397.789 430.777 396.896 434.983C396.004 439.189 396.259 443.332 397.661 447.41C396.896 447.155 396.323 446.709 395.94 446.072C395.176 445.562 394.538 444.925 394.028 444.16C392.626 442.758 391.288 441.356 390.013 439.954C388.739 438.552 387.4 437.15 385.998 435.748C384.596 434.218 383.258 432.688 381.983 431.159C380.709 429.757 379.498 428.291 378.351 426.761C377.841 426.124 377.267 425.423 376.63 424.658C376.12 424.021 375.738 423.384 375.483 422.746C374.463 419.942 374.017 417.074 374.144 414.143C374.272 411.339 374.782 408.534 375.674 405.73C377.331 400.632 379.625 395.852 382.557 391.391C385.489 387.057 388.229 382.596 390.778 378.007C391.925 375.713 392.881 373.419 393.646 371.124C394.538 368.83 395.176 366.408 395.558 363.859C396.068 359.143 395.431 354.363 393.646 349.519C393.009 347.99 392.308 346.524 391.543 345.122C390.778 343.72 389.95 342.318 389.057 340.916C388.803 340.661 388.548 340.278 388.293 339.769C387.783 339.259 387.273 338.621 386.763 337.857L386.572 337.665C386.444 337.41 386.317 337.219 386.19 337.092C386.062 337.092 385.935 336.964 385.807 336.709C384.915 335.69 384.086 334.734 383.322 333.842C382.557 332.949 381.792 331.993 381.027 330.974C380.518 330.464 380.135 330.018 379.88 329.635C378.86 328.233 377.777 326.895 376.63 325.62C375.483 324.346 374.399 323.007 373.38 321.605C371.595 319.311 369.747 317.017 367.835 314.722C366.051 312.555 364.266 310.325 362.482 308.03C360.06 305.099 357.638 302.103 355.216 299.044C352.922 296.113 350.628 293.181 348.333 290.249C345.529 286.935 342.789 283.558 340.112 280.116C337.435 276.675 334.695 273.297 331.891 269.983C329.087 266.414 326.282 262.845 323.478 259.276C320.674 255.835 317.806 252.329 314.874 248.761C312.07 245.192 309.266 241.686 306.462 238.245C303.785 234.803 301.045 231.362 298.241 227.92C295.691 224.734 293.206 221.611 290.784 218.552C288.362 215.493 285.877 212.37 283.328 209.184C282.435 209.184 281.543 209.184 280.651 209.184C279.886 209.184 279.058 209.12 278.165 208.992C277.528 208.865 276.827 208.801 276.062 208.801C275.425 208.674 274.788 208.482 274.15 208.228C273.131 207.718 272.111 206.953 271.091 205.933C269.307 204.276 267.586 202.555 265.929 200.771C264.272 198.987 262.615 197.202 260.958 195.418C259.301 193.633 257.644 191.849 255.987 190.064C254.457 188.152 252.928 186.177 251.398 184.137C249.996 182.098 249.104 180.058 248.722 178.019C248.467 176.362 248.722 174.769 249.486 173.239C250.251 171.71 251.335 170.435 252.737 169.415C254.266 168.523 255.668 168.396 256.943 169.033C257.58 169.288 258.409 169.925 259.428 170.945C260.321 171.71 261.149 172.474 261.914 173.239C262.679 174.004 263.443 174.769 264.208 175.534L271.665 183.564C272.557 183.436 273.386 183.309 274.15 183.181C275.043 183.054 275.935 182.863 276.827 182.608C278.739 182.098 280.587 181.588 282.372 181.078C284.284 180.441 286.132 179.612 287.916 178.593C290.338 177.318 292.505 175.725 294.417 173.813C294.927 173.43 295.373 173.048 295.755 172.666C296.138 172.283 296.52 171.901 296.902 171.518C296.775 171.264 296.584 171.009 296.329 170.754C295.691 170.116 294.99 169.415 294.226 168.651C293.588 167.886 292.951 167.185 292.314 166.547C287.98 162.086 283.837 157.561 279.886 152.973C278.102 150.933 276.381 148.958 274.724 147.046C273.067 145.134 271.537 143.094 270.135 140.928C268.733 139.016 267.459 137.04 266.311 135.001C265.164 132.961 264.336 130.731 263.826 128.309C263.443 126.269 263.38 124.166 263.635 121.999C264.017 119.833 264.718 117.857 265.738 116.072C267.65 113.013 270.263 110.974 273.577 109.954C276.891 108.935 280.332 108.743 283.901 109.381C287.47 110.018 290.784 111.101 293.843 112.631C297.412 114.415 300.662 116.71 303.594 119.514C305.633 121.298 307.545 123.21 309.33 125.25C311.242 127.162 313.09 129.137 314.874 131.177C316.277 132.834 317.742 134.554 319.272 136.339C320.801 137.996 322.267 139.717 323.669 141.501C324.562 142.648 325.454 143.795 326.346 144.943C327.238 145.962 328.003 147.173 328.64 148.575C330.297 151.634 331.381 154.821 331.891 158.135C332.528 161.449 332.655 164.763 332.273 168.077C331.891 171.391 331.126 174.705 329.979 178.019C328.832 181.333 327.429 184.392 325.772 187.196C324.115 190.128 322.204 192.868 320.037 195.418C317.87 197.839 315.384 200.006 312.58 201.918C310.796 203.065 308.947 204.021 307.036 204.786C305.251 205.423 303.275 206.061 301.109 206.698C298.814 207.335 296.456 207.845 294.034 208.228C291.613 208.61 289.127 208.929 286.578 209.184C286.578 209.184 286.705 209.311 286.96 209.566C288.107 210.968 289.191 212.37 290.211 213.772C291.358 215.047 292.441 216.385 293.461 217.787C296.265 221.229 299.005 224.67 301.682 228.112C304.359 231.553 307.099 234.995 309.903 238.436C313.217 242.515 316.404 246.53 319.463 250.481C322.65 254.433 325.9 258.448 329.214 262.526C332.528 266.733 335.906 270.939 339.347 275.145C342.789 279.351 346.166 283.558 349.48 287.764C352.667 291.843 355.79 295.794 358.849 299.618C362.035 303.569 365.222 307.521 368.409 311.472C371.085 314.786 373.698 318.036 376.248 321.223C378.924 324.409 381.537 327.66 384.086 330.974C385.871 333.141 387.592 335.307 389.249 337.474C391.033 339.641 392.818 341.808 394.602 343.975C394.857 344.23 395.048 344.548 395.176 344.931C395.431 345.313 395.685 345.632 395.94 345.887C397.088 347.161 398.171 348.372 399.191 349.519C400.338 350.794 401.421 352.069 402.441 353.343C405.373 356.912 408.177 360.672 410.853 364.624C413.53 368.575 415.506 372.781 416.781 377.242ZM305.697 123.147C305.697 123.147 305.761 123.21 305.888 123.338C305.888 123.21 305.825 123.147 305.697 123.147ZM305.697 122.955C305.57 122.828 305.506 122.764 305.506 122.764L305.697 122.955ZM289.063 160.429C290.593 162.086 292.059 163.743 293.461 165.4C294.99 166.93 296.456 168.587 297.858 170.371C300.662 167.44 302.957 164.062 304.741 160.238C306.781 156.414 308.31 152.335 309.33 148.002C310.35 143.668 310.541 139.334 309.903 135.001C309.139 134.746 308.119 134.491 306.844 134.236C304.04 133.726 301.172 133.662 298.241 134.045C295.309 134.427 292.76 135.638 290.593 137.677C288.044 140.099 286.514 143.094 286.004 146.663C285.494 150.105 285.877 153.419 287.151 156.605C287.661 157.88 288.299 159.155 289.063 160.429Z" fill="white"/>
<path d="M242.875 138.442C242.875 138.569 243.003 138.761 243.257 139.016C242.875 139.143 242.493 139.207 242.11 139.207C241.855 139.207 241.6 139.27 241.346 139.398C238.796 140.035 236.438 141.119 234.271 142.648C232.232 144.05 230.511 145.835 229.109 148.002C227.835 150.041 226.942 152.208 226.432 154.502C225.923 156.797 225.604 159.091 225.476 161.385C225.349 164.062 225.285 166.802 225.285 169.606C225.285 172.283 225.285 174.96 225.285 177.637V196.565V259.276C225.285 259.276 225.03 259.149 224.521 258.894C224.138 258.639 223.692 258.32 223.182 257.938C222.672 257.555 222.226 257.237 221.844 256.982C221.461 256.727 221.334 256.663 221.461 256.791C219.932 255.643 218.402 254.496 216.873 253.349C215.343 252.202 213.877 250.991 212.475 249.716C211.073 248.569 209.607 247.422 208.078 246.275C206.676 245 205.274 243.726 203.872 242.451C203.362 242.069 202.852 241.686 202.342 241.304C201.832 240.794 201.322 240.221 200.813 239.583C200.813 239.456 200.749 239.392 200.621 239.392C200.621 239.392 200.621 239.328 200.621 239.201V236.907V174.195V155.267C200.621 152.718 200.621 150.105 200.621 147.428C200.494 144.751 200.558 142.138 200.813 139.589C200.813 139.334 200.813 139.079 200.813 138.824C200.94 138.442 201.004 138.123 201.004 137.868H196.033C195.523 137.741 194.886 137.295 194.121 136.53L192.4 134.809C190.998 133.407 189.66 132.005 188.385 130.603C186.983 129.074 185.581 127.608 184.179 126.206C182.904 124.804 181.629 123.338 180.355 121.808C179.08 120.279 177.806 118.749 176.531 117.22C176.021 116.582 175.575 116.009 175.193 115.499C174.81 114.989 174.428 114.415 174.045 113.778C173.918 113.651 173.854 113.587 173.854 113.587C173.854 113.459 173.791 113.332 173.663 113.204H185.135H216.108C216.873 113.587 217.51 114.097 218.02 114.734C218.785 115.499 219.422 116.072 219.932 116.455L227.962 125.058C228.344 125.568 229.045 126.333 230.065 127.353C230.575 127.863 230.957 128.181 231.212 128.309C232.742 129.583 234.208 130.794 235.61 131.941C237.012 133.089 238.414 134.299 239.816 135.574C240.453 136.084 240.963 136.594 241.346 137.104C241.855 137.486 242.365 137.932 242.875 138.442Z" fill="white"/>
<path d="M219.376 220.846C219.376 220.846 219.503 221.037 219.758 221.42C220.14 221.802 220.523 222.248 220.905 222.758C221.288 223.141 221.606 223.587 221.861 224.097C222.243 224.479 222.371 224.734 222.244 224.861C218.929 227.92 215.233 230.597 211.154 232.891C207.203 235.186 202.997 236.97 198.536 238.245C196.241 239.01 193.883 239.583 191.461 239.966C189.167 240.348 186.809 240.667 184.387 240.922C182.22 241.177 179.99 241.304 177.695 241.304C175.529 241.304 173.362 241.177 171.195 240.922C167.116 240.284 163.165 239.328 159.341 238.054C155.644 236.652 152.012 234.995 148.443 233.083C146.531 232.063 144.683 230.98 142.898 229.832C141.114 228.685 139.393 227.411 137.736 226.009C136.716 225.116 135.697 224.288 134.677 223.523C133.785 222.758 132.829 221.866 131.809 220.846C128.495 217.66 125.308 214.409 122.249 211.095C119.19 207.781 116.195 204.34 113.263 200.771C109.949 197.075 106.89 193.06 104.086 188.726C101.282 184.265 99.8798 179.421 99.8798 174.195C99.8798 172.793 100.007 171.391 100.262 169.989C100.517 168.587 101.091 167.312 101.983 166.165C103.385 164.381 105.297 163.17 107.719 162.532C110.65 161.768 113.518 161.449 116.322 161.576C119.254 161.704 122.186 161.831 125.117 161.959C128.049 162.086 130.981 162.086 133.912 161.959C136.844 161.831 139.584 161.067 142.134 159.664C145.448 157.88 148.06 155.394 149.972 152.208C152.012 148.894 153.541 145.452 154.561 141.883C154.816 141.246 155.007 140.609 155.135 139.972C155.262 139.207 155.39 138.506 155.517 137.868H106.38C105.871 137.741 105.233 137.295 104.468 136.53L102.748 134.809C101.346 133.407 100.007 132.005 98.7326 130.603C97.3305 129.074 95.9285 127.608 94.5264 126.206C93.2518 124.804 91.9771 123.338 90.7025 121.808C89.4279 120.279 88.1533 118.749 86.8786 117.22C86.3688 116.582 85.9227 116.009 85.5403 115.499C85.1579 114.989 84.7755 114.415 84.3931 113.778C84.2657 113.651 84.2019 113.587 84.2019 113.587C84.2019 113.459 84.1382 113.332 84.0107 113.204H149.972C150.737 113.587 151.375 114.097 151.884 114.734C152.139 114.989 152.394 115.244 152.649 115.499C153.032 115.754 153.35 116.009 153.605 116.264C153.86 116.518 154.051 116.773 154.179 117.028C154.434 117.156 154.497 117.156 154.37 117.028C155.517 118.176 156.664 119.386 157.811 120.661C158.959 121.808 160.106 122.955 161.253 124.102C162.655 125.76 164.057 127.353 165.459 128.882C166.861 130.412 168.263 132.005 169.665 133.662C170.558 134.682 171.386 135.702 172.151 136.721C173.043 137.741 173.808 138.761 174.445 139.78C177.249 144.624 178.588 149.977 178.46 155.841C178.46 161.576 177.313 166.93 175.019 171.901C175.784 171.264 176.548 170.626 177.313 169.989C178.205 169.352 179.161 168.778 180.181 168.268C181.711 167.376 183.431 166.739 185.343 166.356C187.255 165.846 189.103 165.91 190.888 166.547C191.525 166.802 192.162 167.312 192.8 168.077C193.565 168.714 194.138 169.288 194.52 169.798C197.325 172.474 200.001 175.342 202.551 178.401C203.953 179.803 205.291 181.269 206.566 182.799C207.84 184.201 209.051 185.667 210.198 187.196C210.708 187.834 211.154 188.407 211.537 188.917C212.047 189.427 212.493 190 212.875 190.638C212.875 190.765 212.875 190.893 212.875 191.02C213.002 191.02 213.066 191.084 213.066 191.211C210.39 190.192 207.585 190.383 204.654 191.785C201.85 193.06 199.428 194.653 197.388 196.565C196.624 197.33 195.859 198.158 195.094 199.05C194.457 199.943 193.883 200.898 193.373 201.918L194.52 203.065C194.775 203.193 194.903 203.32 194.903 203.448C195.03 203.575 195.222 203.766 195.476 204.021C196.241 203.384 197.006 202.747 197.771 202.109C198.536 201.472 199.3 200.835 200.065 200.197C200.193 200.07 200.447 200.197 200.83 200.58C201.212 200.962 201.595 201.408 201.977 201.918C202.487 202.301 202.869 202.683 203.124 203.065C203.507 203.32 203.698 203.448 203.698 203.448C206.502 206.124 209.179 208.992 211.728 212.051C213.13 213.454 214.468 214.919 215.743 216.449C217.018 217.851 218.228 219.317 219.376 220.846ZM175.21 213.963C179.544 212.689 183.75 210.968 187.829 208.801C185.917 206.634 184.005 204.531 182.093 202.492C180.308 200.325 178.524 198.158 176.739 195.991C175.72 194.717 174.7 193.442 173.68 192.167C172.661 190.765 171.832 189.299 171.195 187.77C170.048 184.838 169.729 182.034 170.239 179.357C166.797 183.436 162.527 185.858 157.429 186.623C154.497 186.878 151.502 186.941 148.443 186.814C145.384 186.559 142.388 186.432 139.457 186.432C137.035 186.304 134.422 186.432 131.618 186.814C128.941 187.069 126.711 188.216 124.926 190.255C123.906 191.275 123.205 192.422 122.823 193.697C122.441 194.844 122.186 196.119 122.058 197.521C122.058 200.835 122.504 203.83 123.397 206.507C124.926 207.527 126.392 208.419 127.794 209.184C130.853 210.713 134.04 212.051 137.354 213.199C140.668 214.346 143.982 215.238 147.296 215.875C149.463 216.258 151.629 216.513 153.796 216.64C155.963 216.64 158.13 216.576 160.297 216.449C162.846 216.194 165.332 215.875 167.753 215.493C170.303 215.111 172.788 214.601 175.21 213.963ZM245.187 137.295C245.314 137.422 245.378 137.55 245.378 137.677C245.378 137.677 245.442 137.741 245.569 137.868H233.524H193.565C193.055 137.741 192.417 137.295 191.653 136.53C190.888 135.765 190.25 135.192 189.741 134.809L181.711 126.206C180.308 124.804 178.97 123.338 177.695 121.808C176.548 120.279 175.337 118.749 174.063 117.22C173.553 116.582 173.107 116.009 172.724 115.499C172.342 114.989 171.896 114.415 171.386 113.778C171.386 113.523 171.322 113.332 171.195 113.204H183.431H223.199C223.964 113.587 224.602 114.097 225.111 114.734C225.876 115.499 226.513 116.072 227.023 116.455L235.053 125.058C236.328 126.461 237.603 127.926 238.877 129.456C240.152 130.985 241.427 132.515 242.701 134.045C243.211 134.554 243.657 135.064 244.04 135.574C244.422 136.084 244.804 136.658 245.187 137.295Z" fill="white"/>
<path fill-rule="evenodd" clip-rule="evenodd" d="M280.236 296.941C279.472 293.882 278.197 291.014 276.413 288.337C275.01 286.17 273.481 284.067 271.824 282.028C270.167 280.116 268.446 278.204 266.662 276.292C264.75 274.125 262.774 271.958 260.735 269.792C258.823 267.625 256.783 265.458 254.617 263.291L251.175 259.85C248.116 257.173 244.993 255.133 241.807 253.731C235.561 250.927 229.188 250.417 222.687 252.202C218.736 253.222 215.167 254.942 211.98 257.364C208.666 259.786 205.735 262.59 203.186 265.777L202.994 265.968C202.867 266.095 202.994 266.35 203.377 266.733C203.632 267.242 203.95 267.752 204.333 268.262C204.715 268.772 205.097 269.154 205.48 269.409L205.862 269.983L209.686 274.571C210.833 276.101 212.108 277.567 213.51 278.969L221.54 287.573L222.114 287.955C222.369 288.337 222.751 288.72 223.261 289.102C223.771 289.612 224.217 289.994 224.599 290.249C224.982 290.632 225.236 290.823 225.364 290.823C227.913 287.509 230.781 284.641 233.968 282.219C237.154 279.797 240.723 278.013 244.674 276.866C246.969 276.228 249.327 275.846 251.749 275.719C254.17 275.719 256.528 276.037 258.823 276.675C259.205 280.498 258.695 284.513 257.293 288.72C256.146 292.034 254.425 295.157 252.131 298.088C249.837 301.02 247.224 303.505 244.292 305.545C241.743 307.329 239.066 308.604 236.262 309.369C233.33 310.261 230.399 310.771 227.467 310.898C224.408 311.026 221.349 310.771 218.29 310.133C215.231 309.624 212.299 308.922 209.495 308.03C206.308 307.011 203.249 305.863 200.318 304.589C197.259 303.314 194.263 301.912 191.332 300.383C184.449 296.814 177.948 292.862 171.83 288.529C165.584 284.322 159.402 279.861 153.284 275.145C149.205 271.831 145.19 268.453 141.239 265.012C137.16 261.698 133.081 258.32 129.003 254.879C128.238 254.241 128.174 254.369 128.811 255.261C129.321 256.026 129.64 256.472 129.767 256.599C130.787 258.001 131.87 259.276 133.018 260.423L136.077 264.247C137.479 265.904 138.945 267.497 140.474 269.027L144.68 273.615C145.573 274.635 146.465 275.527 147.357 276.292C148.249 277.184 149.205 278.077 150.225 278.969C154.941 283.048 159.721 287.063 164.564 291.014C169.281 295.093 174.124 299.044 179.095 302.868C185.341 307.584 191.714 312.045 198.214 316.252C204.588 320.458 211.343 324.218 218.481 327.532C224.217 330.209 230.335 332.439 236.836 334.224C243.209 336.008 249.645 336.199 256.146 334.797C259.078 334.16 261.754 333.14 264.176 331.738C266.725 330.336 269.02 328.552 271.059 326.385C273.736 323.708 275.966 320.713 277.751 317.399C279.535 314.085 280.619 310.516 281.001 306.692C281.384 303.378 281.129 300.128 280.236 296.941Z" fill="white"/>
</svg>
