<svg width="36" height="36" viewBox="0 0 36 36" fill="none" xmlns="http://www.w3.org/2000/svg">
<path d="M8.74542 7.18969L15.159 7.01721C15.8663 6.99977 17.2626 6.91353 17.78 6.39611C17.9011 6.27499 17.9699 6.17228 17.9176 5.98236L18.0213 5.87868L20.2799 8.13733L20.1762 8.24101C17.2112 7.17225 14.1251 7.56855 11.0215 7.60343C15.3314 11.1547 7.36659 18.9819 10.0729 21.6892C10.6242 22.2405 11.4353 22.4305 12.1765 22.2405L12.2279 22.3956C11.1591 22.6369 10.038 22.2745 9.27932 21.5167C5.46937 17.7068 13.1067 10.0685 10.7618 7.72358L10.6581 7.6199L8.20958 7.72358L3.17487 12.7583C2.70977 13.2234 2.53729 13.9482 2.76112 14.5858L2.67488 14.672L0.0712891 12.0684L0.157528 11.9822C0.812545 12.1546 1.53636 11.9822 2.01987 11.4996L11.5883 1.93114C12.0883 1.43116 12.2608 0.776138 12.037 0.103679L12.1407 0L14.7443 2.6036L14.6406 2.70727C14.0369 2.48345 13.3131 2.62104 12.848 3.08614L8.74445 7.18969H8.74542Z" fill="black"/>
<path d="M7.18969 26.5195L7.01721 20.1059C6.99977 19.3986 6.91353 18.0023 6.39611 17.4849C6.27499 17.3638 6.17228 17.295 5.98236 17.3473L5.87868 17.2436L8.13733 14.985L8.241 15.0886C7.17224 18.0537 7.56855 21.1398 7.60343 24.2434C11.1547 19.9335 18.9819 27.8983 21.6892 25.192C22.2405 24.6407 22.4305 23.8296 22.2405 23.0884L22.3956 23.037C22.6368 24.1058 22.2745 25.2269 21.5167 25.9856C17.7068 29.7955 10.0685 22.1582 7.72358 24.5031L7.6199 24.6067L7.72358 27.0553L12.7583 32.09C13.2234 32.5551 13.9482 32.7276 14.5858 32.5038L14.672 32.59L12.0684 35.1936L11.9822 35.1074C12.1546 34.4524 11.9822 33.7285 11.4996 33.245L1.93114 23.6765C1.43115 23.1766 0.776138 23.0041 0.103679 23.2279L0 23.1242L2.6036 20.5206L2.70727 20.6243C2.48345 21.228 2.62104 21.9518 3.08614 22.4169L7.18969 26.5204V26.5195Z" fill="black"/>
<path d="M26.5199 28.0756L20.1063 28.2481C19.399 28.2655 18.0027 28.3518 17.4853 28.8692C17.3641 28.9903 17.2953 29.093 17.3477 29.2829L17.244 29.3866L14.9854 27.128L15.089 27.0243C18.054 28.093 21.1402 27.6967 24.2438 27.6619C19.9338 24.1106 27.8987 16.2834 25.1924 13.5761C24.641 13.0248 23.83 12.8348 23.0888 13.0248L23.0374 12.8697C24.1062 12.6284 25.2273 12.9908 25.986 13.7486C29.7959 17.5585 22.1586 25.1968 24.5034 27.5417L24.6071 27.6454L27.0557 27.5417L32.0904 22.507C32.5555 22.0419 32.728 21.3171 32.5042 20.6795L32.5904 20.5933L35.194 23.1969L35.1077 23.2831C34.4527 23.1107 33.7289 23.2831 33.2454 23.7657L23.6769 33.3342C23.1769 33.8341 23.0045 34.4892 23.2283 35.1616L23.1246 35.2653L20.521 32.6617L20.6247 32.558C21.2284 32.7819 21.9522 32.6443 22.4173 32.1792L26.5208 28.0756H26.5199Z" fill="black"/>
<path d="M28.0759 8.74585L28.2483 15.1594C28.2658 15.8667 28.352 17.263 28.8694 17.7804C28.9906 17.9016 29.0933 17.9704 29.2832 17.918L29.3869 18.0217L27.1282 20.2804L27.0245 20.1767C28.0933 17.2117 27.697 14.1255 27.6621 11.0219C24.1109 15.3319 16.2836 7.36702 13.5763 10.0733C13.025 10.6247 12.8351 11.4357 13.025 12.1769L12.87 12.2283C12.6287 11.1595 12.9911 10.0384 13.7488 9.27975C17.5588 5.4698 25.1971 13.1071 27.542 10.7623L27.6456 10.6586L27.542 8.21002L22.5073 3.1753C22.0421 2.7102 21.3174 2.53773 20.6798 2.76156L20.5936 2.67532L23.1972 0.0717239L23.2834 0.15796C23.1109 0.812977 23.2834 1.53679 23.7659 2.0203L33.3344 11.5888C33.8344 12.0888 34.4894 12.2612 35.1619 12.0374L35.2656 12.1411L32.662 14.7447L32.5583 14.641C32.7821 14.0373 32.6445 13.3135 32.1794 12.8484L28.0759 8.74488V8.74585Z" fill="black"/>
</svg>
