<svg width="382" height="226" viewBox="0 0 382 226" fill="none" xmlns="http://www.w3.org/2000/svg">
<path d="M72.5926 11.0469H71.3099L74.1921 3.0377H75.5882L78.4704 11.0469H77.1877L74.9234 4.49249H74.8608L72.5926 11.0469ZM72.8077 7.91047H76.9687V8.92726H72.8077V7.91047ZM100.206 5.64225H98.9861C98.9392 5.38153 98.8519 5.1521 98.7241 4.95396C98.5964 4.75581 98.4399 4.58765 98.2548 4.44947C98.0697 4.31129 97.8624 4.20701 97.633 4.13662C97.4062 4.06622 97.165 4.03103 96.9095 4.03103C96.4481 4.03103 96.0348 4.14704 95.6698 4.37908C95.3074 4.61112 95.0207 4.95135 94.8095 5.39978C94.6009 5.84821 94.4966 6.39571 94.4966 7.04229C94.4966 7.69408 94.6009 8.24419 94.8095 8.69262C95.0207 9.14105 95.3087 9.47998 95.6737 9.70941C96.0387 9.93883 96.4494 10.0535 96.9056 10.0535C97.1585 10.0535 97.3984 10.0197 97.6252 9.95187C97.8546 9.88148 98.0619 9.7785 98.247 9.64292C98.4321 9.50735 98.5885 9.3418 98.7163 9.14626C98.8466 8.94812 98.9366 8.72129 98.9861 8.46579L100.206 8.4697C100.141 8.86338 100.015 9.22578 99.8269 9.55689C99.6418 9.88539 99.4033 10.1696 99.1113 10.4094C98.8219 10.6467 98.4908 10.8305 98.1179 10.9608C97.7451 11.0912 97.3384 11.1564 96.8978 11.1564C96.2043 11.1564 95.5864 10.9921 95.0441 10.6636C94.5018 10.3325 94.0743 9.85932 93.7614 9.24403C93.4511 8.62874 93.296 7.89483 93.296 7.04229C93.296 6.18714 93.4524 5.45323 93.7653 4.84055C94.0782 4.22526 94.5057 3.75336 95.048 3.42486C95.5903 3.09375 96.2069 2.9282 96.8978 2.9282C97.3228 2.9282 97.7191 2.98947 98.0867 3.112C98.4569 3.23193 98.7893 3.40922 99.0839 3.64386C99.3785 3.8759 99.6223 4.16008 99.8152 4.4964C100.008 4.83012 100.138 5.21207 100.206 5.64225ZM114.116 7.04229C114.116 7.89743 113.959 8.63265 113.646 9.24794C113.334 9.86062 112.905 10.3325 112.36 10.6636C111.818 10.9921 111.201 11.1564 110.51 11.1564C109.817 11.1564 109.197 10.9921 108.652 10.6636C108.11 10.3325 107.683 9.85932 107.37 9.24403C107.057 8.62874 106.9 7.89483 106.9 7.04229C106.9 6.18714 107.057 5.45323 107.37 4.84055C107.683 4.22526 108.11 3.75336 108.652 3.42486C109.197 3.09375 109.817 2.9282 110.51 2.9282C111.201 2.9282 111.818 3.09375 112.36 3.42486C112.905 3.75336 113.334 4.22526 113.646 4.84055C113.959 5.45323 114.116 6.18714 114.116 7.04229ZM112.919 7.04229C112.919 6.3905 112.813 5.84169 112.602 5.39587C112.394 4.94744 112.107 4.60851 111.742 4.37908C111.38 4.14704 110.969 4.03103 110.51 4.03103C110.049 4.03103 109.637 4.14704 109.274 4.37908C108.912 4.60851 108.625 4.94744 108.414 5.39587C108.205 5.84169 108.101 6.3905 108.101 7.04229C108.101 7.69408 108.205 8.24419 108.414 8.69262C108.625 9.13844 108.912 9.47737 109.274 9.70941C109.637 9.93883 110.049 10.0535 110.51 10.0535C110.969 10.0535 111.38 9.93883 111.742 9.70941C112.107 9.47737 112.394 9.13844 112.602 8.69262C112.813 8.24419 112.919 7.69408 112.919 7.04229ZM126.279 3.0377H127.491V8.30545C127.491 8.86599 127.36 9.36265 127.096 9.79544C126.833 10.2256 126.463 10.5646 125.986 10.8122C125.509 11.0573 124.949 11.1798 124.308 11.1798C123.669 11.1798 123.111 11.0573 122.634 10.8122C122.157 10.5646 121.787 10.2256 121.524 9.79544C121.26 9.36265 121.129 8.86599 121.129 8.30545V3.0377H122.337V8.20769C122.337 8.57008 122.417 8.89206 122.576 9.17364C122.737 9.45521 122.965 9.67682 123.26 9.83846C123.555 9.9975 123.904 10.077 124.308 10.077C124.715 10.077 125.065 9.9975 125.36 9.83846C125.657 9.67682 125.884 9.45521 126.041 9.17364C126.2 8.89206 126.279 8.57008 126.279 8.20769V3.0377ZM134.755 11.0469V3.0377H137.609C138.233 3.0377 138.749 3.15111 139.158 3.37793C139.567 3.60476 139.874 3.91501 140.077 4.30869C140.281 4.69976 140.382 5.14037 140.382 5.63051C140.382 6.12327 140.279 6.56648 140.073 6.96016C139.87 7.35124 139.562 7.66149 139.15 7.89092C138.741 8.11774 138.226 8.23115 137.606 8.23115H135.642V7.20654H137.496C137.89 7.20654 138.209 7.13875 138.454 7.00318C138.699 6.865 138.879 6.67729 138.994 6.44004C139.109 6.20278 139.166 5.93294 139.166 5.63051C139.166 5.32808 139.109 5.05955 138.994 4.8249C138.879 4.59026 138.698 4.40646 138.45 4.27349C138.205 4.14053 137.882 4.07404 137.48 4.07404H135.963V11.0469H134.755ZM147.305 11.0469V3.0377H148.514V10.0066H152.143V11.0469H147.305ZM159.028 11.0469V3.0377H164.049V4.07796H160.236V6.51825H163.787V7.55459H160.236V10.0066H164.096V11.0469H159.028ZM174.615 6.53389V7.55068H171.064V6.53389H174.615ZM181.773 11.0469V3.0377H184.706C185.275 3.0377 185.745 3.13156 186.118 3.31927C186.491 3.50438 186.77 3.75597 186.955 4.07404C187.14 4.38951 187.233 4.74539 187.233 5.14167C187.233 5.47539 187.171 5.75696 187.049 5.98639C186.926 6.21321 186.762 6.39571 186.556 6.53389C186.353 6.66946 186.129 6.76854 185.884 6.83111V6.90932C186.149 6.92236 186.409 7.00839 186.662 7.16743C186.917 7.32386 187.128 7.54677 187.295 7.83617C187.462 8.12556 187.546 8.47753 187.546 8.89206C187.546 9.30139 187.449 9.66899 187.256 9.99489C187.066 10.3182 186.771 10.575 186.372 10.7653C185.973 10.953 185.464 11.0469 184.843 11.0469H181.773ZM182.982 10.0105H184.726C185.305 10.0105 185.719 9.89842 185.97 9.67421C186.22 9.44999 186.345 9.16972 186.345 8.8334C186.345 8.58051 186.281 8.34847 186.153 8.13729C186.026 7.92611 185.843 7.75795 185.606 7.63281C185.371 7.50766 185.092 7.44509 184.769 7.44509H182.982V10.0105ZM182.982 6.50261H184.601C184.872 6.50261 185.116 6.45046 185.332 6.34618C185.551 6.24189 185.724 6.09589 185.852 5.90818C185.983 5.71785 186.048 5.49364 186.048 5.23553C186.048 4.90442 185.932 4.62676 185.7 4.40255C185.468 4.17833 185.112 4.06622 184.632 4.06622H182.982V6.50261ZM199.636 3.0377H200.848V8.30545C200.848 8.86599 200.716 9.36265 200.453 9.79544C200.19 10.2256 199.819 10.5646 199.342 10.8122C198.865 11.0573 198.306 11.1798 197.665 11.1798C197.026 11.1798 196.468 11.0573 195.991 10.8122C195.514 10.5646 195.143 10.2256 194.88 9.79544C194.617 9.36265 194.485 8.86599 194.485 8.30545V3.0377H195.694V8.20769C195.694 8.57008 195.773 8.89206 195.932 9.17364C196.094 9.45521 196.322 9.67682 196.617 9.83846C196.911 9.9975 197.26 10.077 197.665 10.077C198.071 10.077 198.422 9.9975 198.717 9.83846C199.014 9.67682 199.241 9.45521 199.397 9.17364C199.556 8.89206 199.636 8.57008 199.636 8.20769V3.0377ZM209.32 3.0377V11.0469H208.111V3.0377H209.32ZM216.586 11.0469V3.0377H217.794V10.0066H221.423V11.0469H216.586ZM226.87 4.07796V3.0377H233.068V4.07796H230.569V11.0469H229.365V4.07796H226.87ZM248.365 11.0469V3.0377H251.298C251.867 3.0377 252.337 3.13156 252.71 3.31927C253.083 3.50438 253.362 3.75597 253.547 4.07404C253.732 4.38951 253.825 4.74539 253.825 5.14167C253.825 5.47539 253.763 5.75696 253.641 5.98639C253.518 6.21321 253.354 6.39571 253.148 6.53389C252.945 6.66946 252.72 6.76854 252.475 6.83111V6.90932C252.741 6.92236 253.001 7.00839 253.254 7.16743C253.509 7.32386 253.72 7.54677 253.887 7.83617C254.054 8.12556 254.137 8.47753 254.137 8.89206C254.137 9.30139 254.041 9.66899 253.848 9.99489C253.658 10.3182 253.363 10.575 252.964 10.7653C252.565 10.953 252.056 11.0469 251.435 11.0469H248.365ZM249.574 10.0105H251.318C251.897 10.0105 252.311 9.89842 252.561 9.67421C252.812 9.44999 252.937 9.16972 252.937 8.8334C252.937 8.58051 252.873 8.34847 252.745 8.13729C252.618 7.92611 252.435 7.75795 252.198 7.63281C251.963 7.50766 251.684 7.44509 251.361 7.44509H249.574V10.0105ZM249.574 6.50261H251.193C251.464 6.50261 251.708 6.45046 251.924 6.34618C252.143 6.24189 252.316 6.09589 252.444 5.90818C252.574 5.71785 252.64 5.49364 252.64 5.23553C252.64 4.90442 252.524 4.62676 252.292 4.40255C252.06 4.17833 251.704 4.06622 251.224 4.06622H249.574V6.50261ZM261.077 11.0469V3.0377H263.932C264.552 3.0377 265.067 3.14459 265.477 3.35838C265.889 3.57217 266.196 3.86808 266.4 4.24612C266.603 4.62155 266.705 5.05564 266.705 5.54839C266.705 6.03853 266.602 6.47002 266.396 6.84284C266.192 7.21306 265.885 7.50115 265.473 7.70711C265.063 7.91308 264.548 8.01606 263.928 8.01606H261.765V6.97581H263.818C264.21 6.97581 264.528 6.91975 264.773 6.80764C265.02 6.69554 265.202 6.53259 265.316 6.3188C265.431 6.10502 265.488 5.84821 265.488 5.54839C265.488 5.24596 265.43 4.98394 265.312 4.76233C265.198 4.54072 265.016 4.37126 264.769 4.25394C264.524 4.13401 264.202 4.07404 263.803 4.07404H262.285V11.0469H261.077ZM265.031 7.43336L267.01 11.0469H265.633L263.693 7.43336H265.031ZM274.358 11.0469H273.075L275.957 3.0377H277.354L280.236 11.0469H278.953L276.689 4.49249H276.626L274.358 11.0469ZM274.573 7.91047H278.734V8.92726H274.573V7.91047ZM293.363 3.0377V11.0469H292.252L288.181 5.17296H288.107V11.0469H286.899V3.0377H288.017L292.092 8.91944H292.166V3.0377H293.363ZM303.225 11.0469H300.632V3.0377H303.307C304.092 3.0377 304.766 3.19804 305.329 3.51872C305.892 3.83679 306.324 4.29435 306.623 4.89139C306.926 5.48582 307.077 6.19887 307.077 7.03056C307.077 7.86484 306.925 8.58181 306.619 9.18146C306.317 9.7811 305.879 10.2426 305.305 10.5659C304.732 10.8865 304.038 11.0469 303.225 11.0469ZM301.841 9.99098H303.158C303.769 9.99098 304.276 9.87626 304.68 9.64683C305.084 9.4148 305.386 9.07978 305.587 8.64178C305.788 8.20117 305.888 7.66409 305.888 7.03056C305.888 6.40223 305.788 5.86907 305.587 5.43107C305.389 4.99307 305.093 4.66065 304.699 4.43383C304.306 4.20701 303.817 4.0936 303.233 4.0936H301.841V9.99098Z" fill="white"/>
<path d="M31.7997 6.70117H60.9949M349.596 6.70117H317.547" stroke="white" stroke-width="0.917718" stroke-linecap="round"/>
<path d="M263.902 45.8727C263.902 45.9469 263.976 46.0581 264.124 46.2065C263.902 46.2806 263.679 46.3177 263.457 46.3177C263.308 46.3177 263.16 46.3548 263.012 46.429C261.528 46.7998 260.156 47.4302 258.895 48.3202C257.709 49.1361 256.707 50.1744 255.891 51.4353C255.15 52.622 254.631 53.8828 254.334 55.2178C254.037 56.5529 253.852 57.8879 253.778 59.2229C253.703 60.7804 253.666 62.375 253.666 64.0067C253.666 65.5642 253.666 67.1218 253.666 68.6793V79.6932V116.184C253.666 116.184 253.518 116.11 253.221 115.961C252.999 115.813 252.739 115.627 252.443 115.405C252.146 115.182 251.886 114.997 251.664 114.849C251.441 114.7 251.367 114.663 251.441 114.737C250.551 114.07 249.661 113.402 248.771 112.735C247.881 112.067 247.028 111.363 246.213 110.621C245.397 109.954 244.544 109.286 243.654 108.619C242.838 107.877 242.022 107.135 241.206 106.394C240.91 106.171 240.613 105.949 240.316 105.726C240.02 105.429 239.723 105.096 239.426 104.725C239.426 104.651 239.389 104.614 239.315 104.614C239.315 104.614 239.315 104.576 239.315 104.502V103.167V66.6767V55.6628C239.315 54.1795 239.315 52.6591 239.315 51.1015C239.241 49.544 239.278 48.0236 239.426 46.5402C239.426 46.3919 239.426 46.2435 239.426 46.0952C239.5 45.8727 239.537 45.6873 239.537 45.5389H236.645C236.348 45.4648 235.977 45.2052 235.532 44.7602L234.531 43.7589C233.715 42.9431 232.937 42.1272 232.195 41.3114C231.379 40.4214 230.563 39.5685 229.747 38.7526C229.006 37.9368 228.264 37.0838 227.522 36.1938C226.781 35.3038 226.039 34.4138 225.297 33.5238C225.001 33.1529 224.741 32.8192 224.518 32.5225C224.296 32.2258 224.073 31.8921 223.851 31.5213C223.777 31.4471 223.74 31.41 223.74 31.41C223.74 31.3358 223.703 31.2617 223.628 31.1875H230.304H248.326C248.771 31.41 249.142 31.7067 249.439 32.0775C249.884 32.5225 250.255 32.8563 250.551 33.0788L255.224 38.0851C255.446 38.3818 255.854 38.8268 256.448 39.4201C256.744 39.7168 256.967 39.9022 257.115 39.9764C258.005 40.7181 258.858 41.4226 259.674 42.0902C260.49 42.7577 261.306 43.4623 262.122 44.2039C262.492 44.5006 262.789 44.7973 263.012 45.094C263.308 45.3165 263.605 45.576 263.902 45.8727Z" fill="white"/>
<path d="M282.307 184.825C282.974 187.199 283.123 189.535 282.752 191.834C282.381 194.133 281.676 196.358 280.638 198.509C279.525 200.809 278.265 202.959 276.855 204.962C275.446 207.039 274.222 209.19 273.184 211.415C272.072 213.64 271.256 215.976 270.737 218.423C270.217 220.871 270.366 223.281 271.182 225.655C270.737 225.506 270.403 225.247 270.18 224.876C269.735 224.579 269.364 224.208 269.068 223.763C268.252 222.948 267.473 222.132 266.731 221.316C265.99 220.5 265.211 219.684 264.395 218.868C263.579 217.978 262.801 217.088 262.059 216.198C261.317 215.383 260.613 214.53 259.945 213.64C259.648 213.269 259.315 212.861 258.944 212.416C258.647 212.045 258.425 211.674 258.276 211.303C257.683 209.672 257.423 208.003 257.498 206.297C257.572 204.665 257.868 203.034 258.388 201.402C259.352 198.435 260.687 195.654 262.393 193.058C264.099 190.536 265.693 187.94 267.177 185.27C267.844 183.935 268.4 182.6 268.845 181.265C269.364 179.93 269.735 178.521 269.958 177.038C270.254 174.294 269.884 171.512 268.845 168.694C268.474 167.804 268.067 166.951 267.622 166.135C267.177 165.319 266.694 164.503 266.175 163.688C266.027 163.539 265.879 163.317 265.73 163.02C265.434 162.723 265.137 162.353 264.84 161.908L264.729 161.796C264.655 161.648 264.581 161.537 264.506 161.463C264.432 161.463 264.358 161.388 264.284 161.24C263.765 160.647 263.283 160.09 262.838 159.571C262.393 159.052 261.948 158.496 261.503 157.903C261.206 157.606 260.984 157.346 260.835 157.124C260.242 156.308 259.611 155.529 258.944 154.787C258.276 154.046 257.646 153.267 257.053 152.451C256.014 151.116 254.939 149.781 253.826 148.446C252.788 147.185 251.75 145.887 250.711 144.552C249.302 142.847 247.893 141.104 246.484 139.324C245.149 137.618 243.814 135.912 242.479 134.206C240.847 132.278 239.252 130.312 237.695 128.31C236.137 126.307 234.543 124.342 232.911 122.413C231.279 120.337 229.648 118.26 228.016 116.183C226.384 114.181 224.715 112.141 223.01 110.064C221.378 107.988 219.746 105.948 218.115 103.946C216.557 101.943 214.962 99.9405 213.331 97.938C211.847 96.0838 210.401 94.2667 208.992 92.4866C207.583 90.7066 206.136 88.8895 204.653 87.0353C204.134 87.0353 203.615 87.0353 203.096 87.0353C202.651 87.0353 202.169 86.9982 201.649 86.9241C201.279 86.8499 200.871 86.8128 200.426 86.8128C200.055 86.7386 199.684 86.6274 199.313 86.479C198.72 86.1824 198.126 85.7374 197.533 85.144C196.495 84.1798 195.493 83.1786 194.529 82.1402C193.565 81.1019 192.601 80.0635 191.637 79.0252C190.673 77.9868 189.708 76.9485 188.744 75.9101C187.854 74.7976 186.964 73.648 186.074 72.4614C185.258 71.2747 184.739 70.088 184.517 68.9013C184.368 67.9371 184.517 67.01 184.962 66.12C185.407 65.23 186.037 64.4883 186.853 63.895C187.743 63.3758 188.559 63.3016 189.3 63.6725C189.671 63.8208 190.153 64.1916 190.747 64.785C191.266 65.23 191.748 65.675 192.193 66.12C192.638 66.565 193.083 67.01 193.528 67.455L197.867 72.1276C198.386 72.0534 198.868 71.9793 199.313 71.9051C199.832 71.8309 200.351 71.7197 200.871 71.5713C201.983 71.2747 203.059 70.978 204.097 70.6813C205.209 70.3105 206.285 69.8284 207.323 69.2351C208.732 68.4934 209.993 67.5663 211.106 66.4538C211.402 66.2313 211.662 66.0088 211.884 65.7863C212.107 65.5638 212.329 65.3413 212.552 65.1187C212.478 64.9704 212.367 64.8221 212.218 64.6737C211.847 64.3029 211.439 63.895 210.994 63.45C210.624 63.005 210.253 62.597 209.882 62.2262C207.36 59.6303 204.95 56.9974 202.651 54.3274C201.612 53.1407 200.611 51.9911 199.647 50.8786C198.683 49.766 197.793 48.5794 196.977 47.3185C196.161 46.206 195.419 45.0564 194.752 43.8697C194.084 42.683 193.602 41.3851 193.305 39.9759C193.083 38.7892 193.046 37.5654 193.194 36.3046C193.417 35.0437 193.825 33.8941 194.418 32.8558C195.531 31.0758 197.051 29.8891 198.979 29.2957C200.908 28.7024 202.91 28.5912 204.987 28.962C207.064 29.3328 208.992 29.9633 210.772 30.8533C212.849 31.8916 214.74 33.2266 216.446 34.8583C217.632 35.8967 218.745 37.0092 219.783 38.1959C220.896 39.3084 221.971 40.458 223.01 41.6447C223.825 42.6089 224.678 43.6101 225.568 44.6485C226.458 45.6126 227.311 46.6139 228.127 47.6523C228.646 48.3198 229.166 48.9873 229.685 49.6548C230.204 50.2481 230.649 50.9527 231.02 51.7686C231.984 53.5486 232.614 55.4028 232.911 57.3311C233.282 59.2595 233.356 61.1879 233.134 63.1162C232.911 65.0446 232.466 66.9729 231.799 68.9013C231.131 70.8297 230.315 72.6097 229.351 74.2414C228.387 75.9472 227.274 77.5418 226.013 79.0252C224.753 80.4344 223.306 81.6952 221.675 82.8077C220.636 83.4753 219.561 84.0315 218.448 84.4765C217.41 84.8474 216.26 85.2182 215 85.589C213.665 85.9599 212.292 86.2565 210.883 86.479C209.474 86.7016 208.028 86.887 206.544 87.0353C206.544 87.0353 206.619 87.1095 206.767 87.2578C207.434 88.0737 208.065 88.8895 208.658 89.7053C209.326 90.447 209.956 91.2258 210.549 92.0416C212.181 94.0442 213.776 96.0467 215.333 98.0492C216.891 100.052 218.485 102.054 220.117 104.057C222.045 106.43 223.9 108.766 225.68 111.066C227.534 113.365 229.425 115.701 231.354 118.074C233.282 120.522 235.247 122.97 237.25 125.417C239.252 127.865 241.218 130.312 243.146 132.76C245 135.133 246.817 137.432 248.597 139.657C250.452 141.956 252.306 144.256 254.16 146.555C255.718 148.483 257.238 150.375 258.721 152.229C260.279 154.083 261.799 155.974 263.283 157.903C264.321 159.163 265.322 160.424 266.286 161.685C267.325 162.946 268.363 164.207 269.402 165.468C269.55 165.616 269.661 165.801 269.735 166.024C269.884 166.246 270.032 166.432 270.18 166.58C270.848 167.322 271.478 168.026 272.072 168.694C272.739 169.436 273.37 170.177 273.963 170.919C275.669 172.996 277.3 175.184 278.858 177.483C280.415 179.782 281.565 182.23 282.307 184.825ZM217.67 36.9721C217.67 36.9721 217.707 37.0092 217.781 37.0834C217.781 37.0092 217.744 36.9721 217.67 36.9721ZM217.67 36.8609C217.595 36.7867 217.558 36.7496 217.558 36.7496L217.67 36.8609ZM207.991 58.6662C208.881 59.6303 209.734 60.5945 210.549 61.5587C211.439 62.4487 212.292 63.4129 213.108 64.4512C214.74 62.7454 216.075 60.7799 217.113 58.5549C218.3 56.3299 219.19 53.9565 219.783 51.4348C220.377 48.9131 220.488 46.3914 220.117 43.8697C219.672 43.7214 219.079 43.573 218.337 43.4247C216.705 43.128 215.037 43.0909 213.331 43.3134C211.625 43.5359 210.142 44.2405 208.881 45.4272C207.397 46.8364 206.507 48.5793 206.211 50.656C205.914 52.6586 206.136 54.5869 206.878 56.4411C207.175 57.1828 207.546 57.9245 207.991 58.6662Z" fill="white"/>
<path d="M181.115 45.8727C181.115 45.9469 181.189 46.0581 181.337 46.2065C181.115 46.2806 180.892 46.3177 180.67 46.3177C180.521 46.3177 180.373 46.3548 180.225 46.429C178.741 46.7998 177.369 47.4302 176.108 48.3202C174.922 49.1361 173.92 50.1744 173.105 51.4353C172.363 52.622 171.844 53.8828 171.547 55.2178C171.25 56.5529 171.065 57.8879 170.991 59.2229C170.917 60.7804 170.88 62.375 170.88 64.0067C170.88 65.5642 170.88 67.1218 170.88 68.6793V79.6932V116.184C170.88 116.184 170.731 116.11 170.435 115.961C170.212 115.813 169.952 115.627 169.656 115.405C169.359 115.182 169.1 114.997 168.877 114.849C168.655 114.7 168.58 114.663 168.655 114.737C167.765 114.07 166.875 113.402 165.985 112.735C165.094 112.067 164.242 111.363 163.426 110.621C162.61 109.954 161.757 109.286 160.867 108.619C160.051 107.877 159.235 107.135 158.419 106.394C158.123 106.171 157.826 105.949 157.529 105.726C157.233 105.429 156.936 105.096 156.639 104.725C156.639 104.651 156.602 104.614 156.528 104.614C156.528 104.614 156.528 104.576 156.528 104.502V103.167V66.6767V55.6628C156.528 54.1795 156.528 52.6591 156.528 51.1015C156.454 49.544 156.491 48.0236 156.639 46.5402C156.639 46.3919 156.639 46.2435 156.639 46.0952C156.714 45.8727 156.751 45.6873 156.751 45.5389H153.858C153.561 45.4648 153.191 45.2052 152.746 44.7602L151.744 43.7589C150.928 42.9431 150.15 42.1272 149.408 41.3114C148.592 40.4214 147.776 39.5685 146.96 38.7526C146.219 37.9368 145.477 37.0838 144.735 36.1938C143.994 35.3038 143.252 34.4138 142.51 33.5238C142.214 33.1529 141.954 32.8192 141.732 32.5225C141.509 32.2258 141.287 31.8921 141.064 31.5213C140.99 31.4471 140.953 31.41 140.953 31.41C140.953 31.3358 140.916 31.2617 140.842 31.1875H147.517H165.54C165.985 31.41 166.355 31.7067 166.652 32.0775C167.097 32.5225 167.468 32.8563 167.765 33.0788L172.437 38.0851C172.66 38.3818 173.068 38.8268 173.661 39.4201C173.958 39.7168 174.18 39.9022 174.328 39.9764C175.218 40.7181 176.071 41.4226 176.887 42.0902C177.703 42.7577 178.519 43.4623 179.335 44.2039C179.706 44.5006 180.002 44.7973 180.225 45.094C180.521 45.3165 180.818 45.576 181.115 45.8727Z" fill="white"/>
<path d="M167.441 93.8221C167.441 93.8221 167.515 93.9334 167.664 94.1559C167.886 94.3784 168.109 94.638 168.331 94.9346C168.554 95.1571 168.739 95.4167 168.887 95.7134C169.11 95.9359 169.184 96.0842 169.11 96.1584C167.182 97.9384 165.031 99.496 162.657 100.831C160.358 102.166 157.911 103.204 155.315 103.946C153.98 104.391 152.608 104.725 151.199 104.947C149.863 105.17 148.491 105.355 147.082 105.504C145.821 105.652 144.523 105.726 143.188 105.726C141.928 105.726 140.667 105.652 139.406 105.504C137.032 105.133 134.733 104.576 132.508 103.835C130.357 103.019 128.244 102.055 126.167 100.942C125.054 100.349 123.979 99.7185 122.941 99.0509C121.902 98.3834 120.901 97.6418 119.937 96.8259C119.343 96.3067 118.75 95.8246 118.157 95.3796C117.638 94.9346 117.081 94.4155 116.488 93.8221C114.56 91.9679 112.705 90.0767 110.925 88.1483C109.145 86.2199 107.402 84.2174 105.697 82.1407C103.768 79.9898 101.988 77.6536 100.357 75.1319C98.7248 72.536 97.909 69.7176 97.909 66.6767C97.909 65.8609 97.9832 65.0451 98.1315 64.2292C98.2798 63.4134 98.6136 62.6717 99.1328 62.0042C99.9486 60.9658 101.061 60.2612 102.47 59.8904C104.176 59.4454 105.845 59.26 107.477 59.3341C109.182 59.4083 110.888 59.4825 112.594 59.5567C114.3 59.6308 116.006 59.6308 117.712 59.5567C119.418 59.4825 121.012 59.0375 122.496 58.2216C124.424 57.1833 125.944 55.737 127.057 53.8828C128.244 51.9545 129.134 49.9519 129.727 47.8752C129.875 47.5044 129.987 47.1336 130.061 46.7627C130.135 46.3177 130.209 45.9098 130.283 45.5389H101.692C101.395 45.4648 101.024 45.2052 100.579 44.7602L99.5778 43.7589C98.7619 42.9431 97.9832 42.1272 97.2415 41.3114C96.4257 40.4214 95.6098 39.5685 94.794 38.7526C94.0523 37.9368 93.3106 37.0838 92.5689 36.1938C91.8273 35.3038 91.0856 34.4138 90.3439 33.5238C90.0472 33.1529 89.7876 32.8192 89.5651 32.5225C89.3426 32.2258 89.1201 31.8921 88.8976 31.5213C88.8235 31.4471 88.7864 31.41 88.7864 31.41C88.7864 31.3358 88.7493 31.2617 88.6751 31.1875H127.057C127.502 31.41 127.873 31.7067 128.169 32.0775C128.318 32.2259 128.466 32.3742 128.614 32.5225C128.837 32.6709 129.022 32.8192 129.171 32.9675C129.319 33.1159 129.43 33.2642 129.504 33.4125C129.653 33.4867 129.69 33.4867 129.616 33.4125C130.283 34.08 130.951 34.7846 131.618 35.5263C132.286 36.1938 132.953 36.8613 133.621 37.5288C134.437 38.493 135.252 39.4201 136.068 40.3101C136.884 41.2001 137.7 42.1272 138.516 43.0914C139.035 43.6848 139.517 44.2781 139.962 44.8714C140.481 45.4648 140.926 46.0581 141.297 46.6515C142.929 49.4698 143.708 52.5849 143.633 55.9966C143.633 59.3341 142.966 62.4492 141.631 65.3417C142.076 64.9709 142.521 64.6001 142.966 64.2292C143.485 63.8584 144.041 63.5246 144.635 63.2279C145.525 62.7088 146.526 62.3379 147.638 62.1154C148.751 61.8188 149.826 61.8558 150.865 62.2267C151.236 62.375 151.606 62.6717 151.977 63.1167C152.422 63.4875 152.756 63.8213 152.979 64.118C154.61 65.6755 156.168 67.3443 157.651 69.1243C158.467 69.9401 159.246 70.7931 159.987 71.6831C160.729 72.4989 161.434 73.3518 162.101 74.2419C162.398 74.6127 162.657 74.9464 162.88 75.2431C163.177 75.5398 163.436 75.8735 163.659 76.2444C163.659 76.3185 163.659 76.3927 163.659 76.4669C163.733 76.4669 163.77 76.504 163.77 76.5781C162.212 75.9848 160.581 76.096 158.875 76.9119C157.243 77.6536 155.834 78.5807 154.647 79.6932C154.202 80.1382 153.757 80.6203 153.312 81.1394C152.941 81.6586 152.608 82.2149 152.311 82.8082L152.979 83.4757C153.127 83.5499 153.201 83.6241 153.201 83.6982C153.275 83.7724 153.386 83.8837 153.535 84.032C153.98 83.6612 154.425 83.2903 154.87 82.9195C155.315 82.5486 155.76 82.1778 156.205 81.807C156.279 81.7328 156.427 81.807 156.65 82.0295C156.872 82.252 157.095 82.5116 157.317 82.8082C157.614 83.0307 157.837 83.2532 157.985 83.4757C158.207 83.6241 158.319 83.6982 158.319 83.6982C159.95 85.2558 161.508 86.9245 162.991 88.7046C163.807 89.5204 164.586 90.3733 165.327 91.2633C166.069 92.0792 166.774 92.9321 167.441 93.8221ZM141.742 89.8171C144.264 89.0754 146.711 88.0741 149.085 86.8133C147.972 85.5524 146.86 84.3287 145.747 83.142C144.709 81.8811 143.67 80.6203 142.632 79.3594C142.039 78.6177 141.445 77.8761 140.852 77.1344C140.259 76.3185 139.777 75.4656 139.406 74.5756C138.738 72.8698 138.553 71.2381 138.85 69.6805C136.847 72.0539 134.362 73.4631 131.396 73.9081C129.69 74.0564 127.947 74.0935 126.167 74.0194C124.387 73.871 122.644 73.7968 120.938 73.7968C119.529 73.7227 118.008 73.7968 116.377 74.0194C114.819 74.1677 113.521 74.8352 112.483 76.0219C111.89 76.6152 111.482 77.2827 111.259 78.0244C111.037 78.6919 110.888 79.4336 110.814 80.2494C110.814 82.1778 111.074 83.9207 111.593 85.4783C112.483 86.0716 113.336 86.5908 114.152 87.0358C115.932 87.9258 117.786 88.7046 119.714 89.3721C121.643 90.0396 123.571 90.5587 125.499 90.9296C126.76 91.1521 128.021 91.3004 129.282 91.3746C130.543 91.3746 131.804 91.3375 133.064 91.2633C134.548 91.115 135.994 90.9296 137.403 90.7071C138.887 90.4846 140.333 90.1879 141.742 89.8171ZM182.46 45.2052C182.534 45.2794 182.571 45.3535 182.571 45.4277C182.571 45.4277 182.609 45.4648 182.683 45.5389H175.674H152.422C152.126 45.4648 151.755 45.2052 151.31 44.7602C150.865 44.3152 150.494 43.9814 150.197 43.7589L145.525 38.7526C144.709 37.9368 143.93 37.0838 143.188 36.1938C142.521 35.3038 141.816 34.4138 141.075 33.5238C140.778 33.1529 140.518 32.8192 140.296 32.5225C140.073 32.2258 139.814 31.8921 139.517 31.5213C139.517 31.3729 139.48 31.2617 139.406 31.1875H146.526H169.666C170.111 31.41 170.482 31.7067 170.779 32.0775C171.224 32.5225 171.595 32.8563 171.891 33.0788L176.564 38.0851C177.306 38.9009 178.047 39.7539 178.789 40.6439C179.531 41.5339 180.272 42.4239 181.014 43.3139C181.311 43.6106 181.57 43.9073 181.793 44.2039C182.015 44.5006 182.238 44.8344 182.46 45.2052Z" fill="white"/>
<path d="M2.90675 141.846L0 131.009H2.42228L3.67813 136.338C3.78012 136.784 3.8757 137.262 3.95857 137.766C4.04144 138.276 4.12432 138.779 4.20719 139.296C4.29006 139.806 4.36655 140.297 4.44942 140.768H4.0542C4.14345 140.297 4.22634 139.806 4.31558 139.296C4.40483 138.786 4.49402 138.276 4.58326 137.766C4.67251 137.262 4.77449 136.784 4.88923 136.338L6.21519 131.009H8.52277L9.84227 136.338C9.95063 136.784 10.0526 137.262 10.1482 137.766C10.2375 138.276 10.3331 138.779 10.4224 139.296C10.5116 139.806 10.6009 140.297 10.6901 140.768H10.2822C10.365 140.297 10.4479 139.806 10.5244 139.296C10.6073 138.786 10.6901 138.276 10.7794 137.766C10.8686 137.262 10.9642 136.784 11.0598 136.338L12.3156 131.009H14.7443L11.8247 141.846H9.29406L7.85341 136.306C7.70042 135.688 7.56656 135.025 7.45819 134.304C7.34982 133.584 7.22874 132.845 7.0885 132.086H7.64308C7.49009 132.826 7.369 133.552 7.27338 134.26C7.17776 134.967 7.04382 135.649 6.87809 136.306L5.44381 141.846H2.90675Z" fill="white"/>
<path d="M37.4886 141.846V131.009H44.7428V132.851H39.7069V135.471H44.3603V137.281H39.7069V140.01H44.7556V141.852H37.4886V141.846Z" fill="white"/>
<path d="M67.3138 141.846L71.0175 131.009H73.9242L77.7234 141.846H75.2565L73.5162 136.618C73.3059 135.943 73.0955 135.203 72.8788 134.406C72.662 133.603 72.439 132.73 72.1967 131.78H72.6812C72.4453 132.736 72.2286 133.616 72.031 134.426C71.827 135.235 71.6293 135.968 71.4317 136.625L69.7616 141.852H67.3074L67.3138 141.846ZM69.6278 139.334V137.594H75.4094V139.334H69.6278Z" fill="white"/>
<path d="M100.468 141.846V131.009H104.694C105.516 131.009 106.218 131.155 106.798 131.442C107.371 131.735 107.818 132.143 108.117 132.673C108.417 133.202 108.57 133.82 108.57 134.534C108.57 135.248 108.417 135.86 108.111 136.376C107.805 136.893 107.359 137.288 106.772 137.562C106.186 137.836 105.478 137.97 104.643 137.97H101.775V136.172H104.286C104.739 136.172 105.115 136.108 105.408 135.987C105.701 135.866 105.918 135.681 106.065 135.433C106.211 135.19 106.281 134.885 106.281 134.528C106.281 134.171 106.211 133.852 106.065 133.603C105.918 133.355 105.701 133.163 105.408 133.03C105.115 132.896 104.739 132.832 104.286 132.832H102.692V141.839H100.474L100.468 141.846ZM106.498 141.846L103.859 136.912H106.269L108.959 141.846H106.498Z" fill="white"/>
<path d="M159.982 141.846V137.772L155.966 131.009H158.56L160.396 134.381C160.587 134.719 160.753 135.057 160.9 135.394C161.046 135.732 161.193 136.128 161.352 136.593H160.868C161.021 136.121 161.161 135.72 161.301 135.388C161.442 135.057 161.601 134.719 161.779 134.387L163.552 131.015H166.14L162.187 137.779V141.852H159.975L159.982 141.846Z" fill="white"/>
<path fill-rule="evenodd" clip-rule="evenodd" d="M202.094 136.432C201.649 134.652 200.908 132.983 199.869 131.425C199.054 130.164 198.164 128.941 197.199 127.754C196.235 126.641 195.234 125.529 194.196 124.416C193.083 123.156 191.933 121.895 190.747 120.634C189.634 119.373 188.448 118.112 187.187 116.851L185.184 114.849C183.404 113.291 181.587 112.105 179.733 111.289C176.099 109.657 172.39 109.36 168.608 110.399C166.308 110.992 164.232 111.993 162.378 113.402C160.449 114.812 158.743 116.443 157.26 118.298L157.149 118.409C157.075 118.483 157.149 118.631 157.371 118.854C157.52 119.15 157.705 119.447 157.928 119.744C158.15 120.04 158.373 120.263 158.595 120.411L158.818 120.745L161.043 123.415C161.71 124.305 162.452 125.158 163.268 125.974L167.94 130.98L168.274 131.203C168.422 131.425 168.645 131.648 168.941 131.87C169.238 132.167 169.498 132.389 169.72 132.538C169.943 132.76 170.091 132.871 170.165 132.871C171.649 130.943 173.317 129.274 175.172 127.865C177.026 126.456 179.102 125.418 181.402 124.75C182.737 124.379 184.109 124.157 185.518 124.083C186.927 124.083 188.299 124.268 189.634 124.639C189.857 126.864 189.56 129.2 188.744 131.648C188.077 133.576 187.075 135.393 185.74 137.099C184.405 138.805 182.885 140.251 181.179 141.438C179.696 142.476 178.138 143.218 176.507 143.663C174.801 144.182 173.095 144.479 171.389 144.553C169.609 144.627 167.829 144.479 166.049 144.108C164.269 143.811 162.563 143.403 160.931 142.884C159.077 142.291 157.297 141.623 155.591 140.882C153.811 140.14 152.068 139.324 150.362 138.434C146.357 136.357 142.575 134.058 139.015 131.536C135.381 129.089 131.783 126.493 128.223 123.749C125.85 121.82 123.514 119.855 121.215 117.853C118.841 115.924 116.468 113.959 114.094 111.956C113.649 111.585 113.612 111.66 113.983 112.179C114.28 112.624 114.465 112.883 114.539 112.957C115.133 113.773 115.763 114.515 116.431 115.182L118.211 117.408C119.027 118.372 119.88 119.299 120.77 120.189L123.217 122.859C123.736 123.452 124.255 123.971 124.775 124.416C125.294 124.936 125.85 125.455 126.443 125.974C129.188 128.347 131.969 130.684 134.787 132.983C137.531 135.356 140.35 137.655 143.242 139.88C146.877 142.625 150.585 145.22 154.367 147.668C158.076 150.115 162.007 152.303 166.16 154.232C169.498 155.789 173.058 157.087 176.84 158.126C180.549 159.164 184.294 159.275 188.077 158.459C189.783 158.088 191.34 157.495 192.749 156.679C194.233 155.863 195.568 154.825 196.754 153.564C198.312 152.007 199.61 150.264 200.648 148.335C201.686 146.407 202.317 144.33 202.539 142.105C202.762 140.177 202.614 138.286 202.094 136.432ZM193.002 141.992C192.046 141.992 191.185 141.775 190.427 141.335C189.668 140.895 189.056 140.264 188.616 139.436C188.177 138.607 187.953 137.606 187.953 136.433C187.953 135.26 188.177 134.253 188.616 133.418C189.063 132.589 189.662 131.952 190.427 131.518C191.192 131.085 192.052 130.862 193.002 130.862C193.952 130.862 194.825 131.079 195.584 131.518C196.342 131.952 196.948 132.589 197.394 133.418C197.84 134.253 198.057 135.254 198.057 136.433C198.057 137.613 197.834 138.607 197.394 139.436C196.954 140.264 196.349 140.895 195.584 141.335C194.825 141.769 193.965 141.992 193.002 141.992ZM194.475 139.614C194.054 139.888 193.563 140.022 193.002 140.022C192.448 140.022 191.957 139.888 191.536 139.608C191.115 139.327 190.79 138.926 190.554 138.39C190.318 137.855 190.204 137.211 190.204 136.433C190.204 135.656 190.318 134.999 190.554 134.463C190.784 133.928 191.115 133.52 191.536 133.246C191.957 132.972 192.441 132.832 193.002 132.832C193.563 132.832 194.054 132.965 194.475 133.24C194.889 133.514 195.214 133.922 195.45 134.457C195.686 134.993 195.801 135.662 195.801 136.433C195.801 137.205 195.686 137.861 195.45 138.397C195.22 138.938 194.895 139.34 194.475 139.614Z" fill="white"/>
<path d="M225.594 141.999C224.702 141.999 223.918 141.833 223.248 141.502C222.579 141.17 222.056 140.705 221.687 140.118C221.317 139.526 221.132 138.837 221.132 138.047V131.016H223.35V137.868C223.35 138.289 223.446 138.665 223.631 138.99C223.816 139.315 224.077 139.577 224.415 139.762C224.753 139.946 225.148 140.042 225.594 140.042C226.041 140.042 226.449 139.946 226.786 139.762C227.124 139.577 227.386 139.315 227.57 138.99C227.755 138.665 227.851 138.289 227.851 137.868V131.016H230.076V138.047C230.076 138.837 229.891 139.526 229.515 140.118C229.139 140.711 228.616 141.17 227.947 141.502C227.277 141.833 226.493 141.999 225.594 141.999Z" fill="white"/>
<path d="M253.432 141.846V131.009H257.659C258.481 131.009 259.182 131.155 259.762 131.442C260.336 131.735 260.782 132.143 261.082 132.673C261.381 133.202 261.535 133.82 261.535 134.534C261.535 135.248 261.381 135.86 261.075 136.376C260.77 136.893 260.323 137.288 259.737 137.562C259.15 137.836 258.443 137.97 257.608 137.97H254.739V136.172H257.251C257.703 136.172 258.079 136.108 258.373 135.987C258.666 135.866 258.883 135.681 259.029 135.433C259.176 135.19 259.246 134.885 259.246 134.528C259.246 134.171 259.176 133.852 259.029 133.603C258.883 133.355 258.666 133.163 258.373 133.03C258.079 132.896 257.703 132.832 257.251 132.832H255.657V141.839H253.439L253.432 141.846ZM259.463 141.846L256.824 136.912H259.233L261.923 141.846H259.463Z" fill="white"/>
<path d="M312.696 141.992C311.567 141.992 310.688 141.699 310.037 141.106C309.387 140.513 309.069 139.678 309.069 138.588V137.957H311.287V138.626C311.287 139.143 311.414 139.538 311.669 139.806C311.924 140.073 312.269 140.207 312.696 140.207C313.123 140.207 313.467 140.073 313.722 139.806C313.977 139.538 314.098 139.143 314.098 138.62V131.009H316.297V138.582C316.297 139.678 315.979 140.52 315.335 141.112C314.691 141.705 313.818 141.999 312.696 141.999V141.992Z" fill="white"/>
<path d="M344.428 141.991C343.472 141.991 342.611 141.775 341.853 141.335C341.094 140.895 340.482 140.264 340.042 139.435C339.602 138.606 339.379 137.606 339.379 136.433C339.379 135.26 339.602 134.253 340.042 133.418C340.489 132.589 341.088 131.951 341.853 131.518C342.618 131.084 343.478 130.861 344.428 130.861C345.378 130.861 346.251 131.078 347.01 131.518C347.768 131.951 348.374 132.589 348.82 133.418C349.266 134.253 349.483 135.253 349.483 136.433C349.483 137.612 349.26 138.606 348.82 139.435C348.38 140.264 347.775 140.895 347.01 141.335C346.251 141.768 345.391 141.991 344.428 141.991ZM344.428 140.022C344.989 140.022 345.48 139.888 345.901 139.614C346.321 139.339 346.646 138.938 346.876 138.396C347.112 137.861 347.226 137.204 347.226 136.433C347.226 135.661 347.112 134.992 346.876 134.457C346.64 133.921 346.315 133.513 345.901 133.239C345.48 132.965 344.989 132.831 344.428 132.831C343.867 132.831 343.383 132.971 342.962 133.245C342.541 133.52 342.21 133.928 341.98 134.463C341.744 134.998 341.63 135.655 341.63 136.433C341.63 137.21 341.744 137.854 341.98 138.39C342.216 138.925 342.541 139.327 342.962 139.607C343.383 139.888 343.873 140.022 344.428 140.022Z" fill="white"/>
<path d="M375.3 141.846V137.772L371.284 131.009H373.879L375.715 134.381C375.906 134.719 376.072 135.057 376.218 135.394C376.365 135.732 376.511 136.128 376.671 136.593H376.186C376.339 136.121 376.479 135.72 376.62 135.388C376.76 135.057 376.919 134.719 377.098 134.387L378.87 131.015H381.458L377.506 137.779V141.852H375.294L375.3 141.846Z" fill="white"/>
</svg>
