<svg width="135" height="58" viewBox="0 0 135 58" fill="none" xmlns="http://www.w3.org/2000/svg">
<path fill-rule="evenodd" clip-rule="evenodd" d="M71.8495 35.3555C71.7266 34.864 71.5218 34.4032 71.2351 33.9731C71.0098 33.625 70.7641 33.2871 70.4978 32.9594C70.2316 32.6522 69.9551 32.345 69.6684 32.0378C69.3612 31.6897 69.0438 31.3415 68.7161 30.9934C68.4089 30.6452 68.0813 30.2971 67.7331 29.949L67.1802 29.396C66.6887 28.9659 66.1869 28.6383 65.675 28.413C64.6715 27.9625 63.6475 27.8805 62.6031 28.1672C61.9682 28.3311 61.3948 28.6076 60.8828 28.9967C60.3503 29.3858 59.8793 29.8363 59.4697 30.3483L59.439 30.379C59.4185 30.3995 59.439 30.4405 59.5004 30.5019C59.5414 30.5838 59.5926 30.6657 59.654 30.7476C59.7155 30.8296 59.7769 30.891 59.8383 30.932L59.8998 31.0241L60.5142 31.7614C60.6985 32.0071 60.9033 32.2426 61.1285 32.4679L62.4187 33.8503L62.5109 33.9117C62.5519 33.9731 62.6133 34.0346 62.6952 34.096C62.7771 34.1779 62.8488 34.2394 62.9102 34.2803C62.9717 34.3418 63.0126 34.3725 63.0331 34.3725C63.4427 33.84 63.9035 33.3792 64.4155 32.9901C64.9275 32.601 65.5009 32.3143 66.1357 32.13C66.5044 32.0276 66.8832 31.9662 67.2723 31.9457C67.6614 31.9457 68.0403 31.9969 68.4089 32.0993C68.4704 32.7137 68.3885 33.3588 68.1632 34.0346C67.9789 34.567 67.7024 35.0688 67.3338 35.5398C66.9652 36.0108 66.5453 36.4102 66.0743 36.7379C65.6647 37.0246 65.2346 37.2294 64.7841 37.3522C64.3131 37.4956 63.8421 37.5775 63.371 37.598C62.8795 37.6185 62.388 37.5775 61.8965 37.4751C61.405 37.3932 60.934 37.2806 60.4834 37.1372C59.9715 36.9734 59.48 36.7891 59.0089 36.5843C58.5174 36.3795 58.0362 36.1542 57.5651 35.9084C56.4592 35.335 55.4148 34.7002 54.4318 34.0039C53.4283 33.328 52.4351 32.6113 51.452 31.8535C50.7967 31.3211 50.1516 30.7784 49.5167 30.2254C48.8614 29.693 48.2061 29.1503 47.5507 28.5973C47.4279 28.4949 47.4176 28.5154 47.52 28.6588C47.6019 28.7816 47.6531 28.8533 47.6736 28.8738C47.8374 29.0991 48.0115 29.3039 48.1958 29.4882L48.6873 30.1025C48.9126 30.3688 49.1481 30.6248 49.3939 30.8705L50.0697 31.6078C50.213 31.7716 50.3564 31.915 50.4998 32.0378C50.6431 32.1812 50.7967 32.3246 50.9605 32.4679C51.7183 33.1232 52.4863 33.7683 53.2645 34.4032C54.0222 35.0585 54.8004 35.6934 55.5991 36.3078C56.6026 37.0655 57.6266 37.7823 58.671 38.4581C59.695 39.1339 60.7804 39.7381 61.9272 40.2705C62.8488 40.7006 63.8318 41.059 64.8763 41.3457C65.9002 41.6324 66.9344 41.6631 67.9789 41.4379C68.4499 41.3355 68.88 41.1716 69.2691 40.9464C69.6787 40.7211 70.0473 40.4344 70.375 40.0862C70.805 39.6562 71.1634 39.1749 71.4501 38.6424C71.7368 38.11 71.9109 37.5365 71.9724 36.9222C72.0338 36.3897 71.9928 35.8675 71.8495 35.3555ZM69.3389 36.8908C69.0749 36.8908 68.8372 36.831 68.6278 36.7095C68.4183 36.5881 68.2494 36.4138 68.1279 36.185C68.0065 35.9562 67.9448 35.6798 67.9448 35.356C67.9448 35.0321 68.0065 34.754 68.1279 34.5234C68.2511 34.2946 68.4166 34.1186 68.6278 33.9989C68.839 33.8792 69.0766 33.8176 69.3389 33.8176C69.6012 33.8176 69.8423 33.8774 70.0517 33.9989C70.2612 34.1186 70.4284 34.2946 70.5516 34.5234C70.6749 34.754 70.7347 35.0303 70.7347 35.356C70.7347 35.6816 70.6731 35.9562 70.5516 36.185C70.4302 36.4138 70.263 36.5881 70.0517 36.7095C69.8423 36.8292 69.6047 36.8908 69.3389 36.8908ZM69.7455 36.2343C69.6293 36.31 69.4938 36.3469 69.3389 36.3469C69.1858 36.3469 69.0502 36.31 68.9341 36.2325C68.8179 36.1551 68.7281 36.0442 68.663 35.8963C68.5979 35.7485 68.5662 35.5707 68.5662 35.356C68.5662 35.1412 68.5979 34.9599 68.663 34.8121C68.7263 34.6642 68.8179 34.5516 68.9341 34.4759C69.0502 34.4002 69.184 34.3615 69.3389 34.3615C69.4938 34.3615 69.6293 34.3984 69.7455 34.4741C69.8599 34.5498 69.9497 34.6625 70.0148 34.8103C70.0799 34.9582 70.1116 35.143 70.1116 35.356C70.1116 35.5689 70.0799 35.7502 70.0148 35.8981C69.9514 36.0477 69.8617 36.1586 69.7455 36.2343Z" fill="black"/>
<path d="M86.115 10.9701C86.115 10.9892 86.1341 11.0179 86.1723 11.0561C86.115 11.0752 86.0577 11.0847 86.0004 11.0847C85.9622 11.0847 85.924 11.0943 85.8858 11.1133C85.5039 11.2088 85.1507 11.3711 84.826 11.6003C84.5205 11.8103 84.2627 12.0777 84.0527 12.4023C83.8617 12.7078 83.728 13.0325 83.6517 13.3762C83.5753 13.7199 83.5275 14.0636 83.5084 14.4073C83.4893 14.8083 83.4798 15.2189 83.4798 15.639C83.4798 16.04 83.4798 16.441 83.4798 16.842V19.6777V29.0727C83.4798 29.0727 83.4416 29.0536 83.3652 29.0154C83.3079 28.9772 83.2411 28.9295 83.1647 28.8722C83.0883 28.8149 83.0215 28.7672 82.9642 28.729C82.9069 28.6908 82.8878 28.6813 82.9069 28.7004C82.6778 28.5285 82.4486 28.3566 82.2195 28.1848C81.9903 28.0129 81.7707 27.8315 81.5607 27.6406C81.3506 27.4687 81.131 27.2968 80.9019 27.125C80.6918 26.934 80.4818 26.7431 80.2717 26.5521C80.1954 26.4948 80.119 26.4375 80.0426 26.3802C79.9662 26.3039 79.8898 26.2179 79.8135 26.1225C79.8135 26.1034 79.8039 26.0938 79.7848 26.0938C79.7848 26.0938 79.7848 26.0843 79.7848 26.0652V25.7215V16.3264V13.4907C79.7848 13.1088 79.7848 12.7174 79.7848 12.3164C79.7657 11.9154 79.7753 11.5239 79.8135 11.142C79.8135 11.1038 79.8135 11.0656 79.8135 11.0274C79.8325 10.9701 79.8421 10.9224 79.8421 10.8842H79.0974C79.021 10.8651 78.9255 10.7983 78.8109 10.6837L78.5531 10.4259C78.3431 10.2159 78.1426 10.0058 77.9516 9.79575C77.7416 9.56661 77.5315 9.34701 77.3215 9.13696C77.1305 8.92691 76.9396 8.70731 76.7486 8.47816C76.5577 8.24901 76.3667 8.01987 76.1757 7.79072C76.0994 7.69524 76.0325 7.60931 75.9752 7.53293C75.918 7.45655 75.8607 7.37062 75.8034 7.27514C75.7843 7.25604 75.7747 7.2465 75.7747 7.2465C75.7747 7.2274 75.7652 7.20831 75.7461 7.18921H77.4647H82.1049C82.2195 7.2465 82.315 7.32288 82.3913 7.41836C82.5059 7.53293 82.6014 7.61886 82.6778 7.67615L83.8808 8.9651C83.9381 9.04148 84.0431 9.15605 84.1959 9.30882C84.2723 9.3852 84.3295 9.43294 84.3677 9.45203C84.5969 9.64299 84.8165 9.8244 85.0265 9.99626C85.2366 10.1681 85.4466 10.3495 85.6567 10.5405C85.7522 10.6169 85.8286 10.6932 85.8858 10.7696C85.9622 10.8269 86.0386 10.8937 86.115 10.9701Z" fill="black"/>
<path d="M90.853 46.7454C91.0248 47.3565 91.063 47.958 90.9675 48.55C90.872 49.1419 90.6906 49.7148 90.4233 50.2686C90.1369 50.8605 89.8122 51.4143 89.4494 51.9299C89.0866 52.4646 88.7715 53.0183 88.5042 53.5912C88.2178 54.1641 88.0077 54.7656 87.874 55.3957C87.7404 56.0259 87.7786 56.6465 87.9886 57.2575C87.874 57.2194 87.7881 57.1525 87.7308 57.057C87.6163 56.9807 87.5208 56.8852 87.4444 56.7706C87.2343 56.5606 87.0338 56.3505 86.8429 56.1405C86.6519 55.9304 86.4514 55.7204 86.2414 55.5103C86.0313 55.2812 85.8308 55.052 85.6399 54.8229C85.4489 54.6128 85.2675 54.3932 85.0956 54.1641C85.0193 54.0686 84.9333 53.9636 84.8379 53.849C84.7615 53.7535 84.7042 53.658 84.666 53.5626C84.5132 53.1425 84.4464 52.7128 84.4655 52.2736C84.4846 51.8535 84.561 51.4334 84.6946 51.0133C84.9429 50.2495 85.2866 49.5334 85.7258 48.865C86.165 48.2158 86.5755 47.5475 86.9575 46.86C87.1293 46.5163 87.2725 46.1726 87.3871 45.8289C87.5208 45.4851 87.6163 45.1223 87.6735 44.7404C87.7499 44.0339 87.6544 43.3178 87.3871 42.5922C87.2916 42.363 87.1866 42.1434 87.072 41.9334C86.9575 41.7233 86.8333 41.5133 86.6997 41.3032C86.6615 41.265 86.6233 41.2077 86.5851 41.1313C86.5087 41.055 86.4323 40.9595 86.3559 40.8449L86.3273 40.8163C86.3082 40.7781 86.2891 40.7494 86.27 40.7303C86.2509 40.7303 86.2318 40.7112 86.2127 40.6731C86.0791 40.5203 85.9549 40.3771 85.8404 40.2434C85.7258 40.1097 85.6112 39.9665 85.4966 39.8138C85.4203 39.7374 85.363 39.6705 85.3248 39.6133C85.172 39.4032 85.0097 39.2027 84.8379 39.0117C84.666 38.8208 84.5037 38.6203 84.3509 38.4102C84.0836 38.0665 83.8067 37.7228 83.5203 37.3791C83.2529 37.0544 82.9856 36.7203 82.7182 36.3766C82.3554 35.9374 81.9926 35.4886 81.6298 35.0303C81.2861 34.5911 80.9424 34.1519 80.5986 33.7127C80.1785 33.2162 79.768 32.7102 79.367 32.1946C78.966 31.679 78.5554 31.173 78.1353 30.6765C77.7152 30.1419 77.2951 29.6072 76.875 29.0725C76.4549 28.5569 76.0252 28.0318 75.5861 27.4971C75.1659 26.9624 74.7458 26.4373 74.3257 25.9217C73.9247 25.4062 73.5142 24.8906 73.0941 24.375C72.7122 23.8976 72.3398 23.4298 71.977 22.9715C71.6142 22.5132 71.2418 22.0453 70.8599 21.5679C70.7262 21.5679 70.5926 21.5679 70.4589 21.5679C70.3443 21.5679 70.2202 21.5584 70.0865 21.5393C69.9911 21.5202 69.886 21.5107 69.7715 21.5107C69.676 21.4916 69.5805 21.4629 69.485 21.4247C69.3323 21.3483 69.1795 21.2338 69.0267 21.081C68.7594 20.8328 68.5016 20.575 68.2534 20.3076C68.0051 20.0403 67.7569 19.773 67.5086 19.5056C67.2604 19.2383 67.0121 18.9709 66.7639 18.7036C66.5348 18.4172 66.3056 18.1212 66.0765 17.8157C65.8664 17.5101 65.7327 17.2046 65.6755 16.8991C65.6373 16.6508 65.6755 16.4121 65.79 16.183C65.9046 15.9538 66.0669 15.7629 66.277 15.6101C66.5061 15.4765 66.7162 15.4574 66.9071 15.5528C67.0026 15.591 67.1267 15.6865 67.2795 15.8393C67.4132 15.9538 67.5373 16.0684 67.6518 16.183C67.7664 16.2976 67.881 16.4121 67.9956 16.5267L69.1127 17.7297C69.2463 17.7106 69.3704 17.6915 69.485 17.6724C69.6187 17.6534 69.7524 17.6247 69.886 17.5865C70.1725 17.5101 70.4493 17.4338 70.7167 17.3574C71.0031 17.2619 71.28 17.1378 71.5473 16.985C71.9102 16.7941 72.2348 16.5554 72.5212 16.2689C72.5976 16.2116 72.6644 16.1544 72.7217 16.0971C72.779 16.0398 72.8363 15.9825 72.8936 15.9252C72.8745 15.887 72.8458 15.8488 72.8076 15.8106C72.7122 15.7152 72.6071 15.6101 72.4926 15.4956C72.3971 15.381 72.3016 15.276 72.2061 15.1805C71.5569 14.5121 70.9363 13.8342 70.3443 13.1468C70.077 12.8413 69.8192 12.5453 69.571 12.2589C69.3227 11.9724 69.0936 11.6669 68.8835 11.3423C68.6735 11.0558 68.4825 10.7599 68.3106 10.4543C68.1388 10.1488 68.0147 9.81463 67.9383 9.45181C67.881 9.14628 67.8714 8.8312 67.9096 8.50658C67.9669 8.18195 68.0719 7.88597 68.2247 7.61864C68.5111 7.16034 68.9026 6.85481 69.3991 6.70205C69.8956 6.54928 70.4112 6.52064 70.9458 6.61612C71.4805 6.7116 71.977 6.87391 72.4353 7.10306C72.97 7.37039 73.4569 7.71411 73.8961 8.13422C74.2016 8.40155 74.4881 8.68799 74.7554 8.99352C75.0418 9.27995 75.3187 9.57593 75.5861 9.88146C75.7961 10.1297 76.0157 10.3875 76.2448 10.6548C76.474 10.9031 76.6936 11.1609 76.9036 11.4282C77.0373 11.6001 77.171 11.7719 77.3047 11.9438C77.4383 12.0965 77.5529 12.278 77.6484 12.488C77.8966 12.9463 78.0589 13.4237 78.1353 13.9202C78.2308 14.4167 78.2499 14.9131 78.1926 15.4096C78.1353 15.9061 78.0207 16.4026 77.8489 16.8991C77.677 17.3956 77.467 17.8539 77.2187 18.274C76.9705 18.7132 76.684 19.1237 76.3594 19.5056C76.0348 19.8684 75.6624 20.1931 75.2423 20.4795C74.975 20.6514 74.6981 20.7946 74.4117 20.9091C74.1443 21.0046 73.8484 21.1001 73.5237 21.1956C73.18 21.2911 72.8267 21.3674 72.4639 21.4247C72.1011 21.482 71.7287 21.5298 71.3468 21.5679C71.3468 21.5679 71.3659 21.587 71.4041 21.6252C71.576 21.8353 71.7383 22.0453 71.8911 22.2554C72.0629 22.4463 72.2252 22.6468 72.378 22.8569C72.7981 23.3725 73.2087 23.8881 73.6097 24.4036C74.0107 24.9192 74.4212 25.4348 74.8413 25.9504C75.3378 26.5614 75.8152 27.1629 76.2735 27.7549C76.7509 28.3469 77.2378 28.9484 77.7343 29.5594C78.2308 30.1896 78.7368 30.8197 79.2524 31.4499C79.768 32.0801 80.274 32.7102 80.7705 33.3404C81.2479 33.9514 81.7157 34.5434 82.174 35.1162C82.6514 35.7082 83.1288 36.3002 83.6062 36.8921C84.0072 37.3886 84.3987 37.8756 84.7806 38.3529C85.1816 38.8303 85.573 39.3173 85.9549 39.8138C86.2223 40.1384 86.4801 40.463 86.7283 40.7876C86.9956 41.1123 87.263 41.4369 87.5303 41.7615C87.5685 41.7997 87.5972 41.8474 87.6163 41.9047C87.6544 41.962 87.6926 42.0097 87.7308 42.0479C87.9027 42.2389 88.065 42.4203 88.2178 42.5922C88.3896 42.7831 88.5519 42.9741 88.7047 43.165C89.1439 43.6997 89.564 44.263 89.965 44.855C90.366 45.4469 90.662 46.0771 90.853 46.7454ZM74.2112 8.67844C74.2112 8.67844 74.2207 8.68799 74.2398 8.70708C74.2398 8.68799 74.2303 8.67844 74.2112 8.67844ZM74.2112 8.6498C74.1921 8.6307 74.1825 8.62115 74.1825 8.62115L74.2112 8.6498ZM71.7192 14.2639C71.9483 14.5121 72.1679 14.7604 72.378 15.0086C72.6071 15.2378 72.8267 15.486 73.0368 15.7533C73.4569 15.3141 73.8006 14.8081 74.068 14.2352C74.3735 13.6624 74.6026 13.0513 74.7554 12.4021C74.9082 11.7528 74.9368 11.1036 74.8413 10.4543C74.7268 10.4161 74.574 10.3779 74.383 10.3398C73.9629 10.2634 73.5333 10.2538 73.0941 10.3111C72.6549 10.3684 72.273 10.5498 71.9483 10.8553C71.5664 11.2181 71.3373 11.6669 71.2609 12.2016C71.1845 12.7172 71.2418 13.2136 71.4328 13.691C71.5091 13.882 71.6046 14.0729 71.7192 14.2639Z" fill="black"/>
<path d="M64.7986 10.9701C64.7986 10.9892 64.8177 11.0179 64.8559 11.0561C64.7986 11.0752 64.7413 11.0847 64.684 11.0847C64.6458 11.0847 64.6076 11.0943 64.5694 11.1133C64.1875 11.2088 63.8343 11.3711 63.5096 11.6003C63.2041 11.8103 62.9463 12.0777 62.7363 12.4023C62.5453 12.7078 62.4116 13.0325 62.3352 13.3762C62.2589 13.7199 62.2111 14.0636 62.192 14.4073C62.1729 14.8083 62.1634 15.2189 62.1634 15.639C62.1634 16.04 62.1634 16.441 62.1634 16.842V19.6777V29.0727C62.1634 29.0727 62.1252 29.0536 62.0488 29.0154C61.9915 28.9772 61.9247 28.9295 61.8483 28.8722C61.7719 28.8149 61.7051 28.7672 61.6478 28.729C61.5905 28.6908 61.5714 28.6813 61.5905 28.7004C61.3614 28.5285 61.1322 28.3566 60.9031 28.1848C60.6739 28.0129 60.4543 27.8315 60.2443 27.6406C60.0342 27.4687 59.8146 27.2968 59.5855 27.125C59.3754 26.934 59.1654 26.7431 58.9553 26.5521C58.879 26.4948 58.8026 26.4375 58.7262 26.3802C58.6498 26.3039 58.5734 26.2179 58.497 26.1225C58.497 26.1034 58.4875 26.0938 58.4684 26.0938C58.4684 26.0938 58.4684 26.0843 58.4684 26.0652V25.7215V16.3264V13.4907C58.4684 13.1088 58.4684 12.7174 58.4684 12.3164C58.4493 11.9154 58.4588 11.5239 58.497 11.142C58.497 11.1038 58.497 11.0656 58.497 11.0274C58.5161 10.9701 58.5257 10.9224 58.5257 10.8842H57.781C57.7046 10.8651 57.6091 10.7983 57.4945 10.6837L57.2367 10.4259C57.0267 10.2159 56.8262 10.0058 56.6352 9.79575C56.4252 9.56661 56.2151 9.34701 56.0051 9.13696C55.8141 8.92691 55.6232 8.70731 55.4322 8.47816C55.2412 8.24901 55.0503 8.01987 54.8593 7.79072C54.783 7.69524 54.7161 7.60931 54.6588 7.53293C54.6015 7.45655 54.5443 7.37062 54.487 7.27514C54.4679 7.25604 54.4583 7.2465 54.4583 7.2465C54.4583 7.2274 54.4488 7.20831 54.4297 7.18921H56.1483H60.7885C60.9031 7.2465 60.9986 7.32288 61.0749 7.41836C61.1895 7.53293 61.285 7.61886 61.3614 7.67615L62.5644 8.9651C62.6217 9.04148 62.7267 9.15605 62.8795 9.30882C62.9559 9.3852 63.0131 9.43294 63.0513 9.45203C63.2805 9.64299 63.5001 9.8244 63.7101 9.99626C63.9202 10.1681 64.1302 10.3495 64.3403 10.5405C64.4358 10.6169 64.5121 10.6932 64.5694 10.7696C64.6458 10.8269 64.7222 10.8937 64.7986 10.9701Z" fill="black"/>
<path d="M61.2785 23.3154C61.2785 23.3154 61.2976 23.3441 61.3358 23.4013C61.3931 23.4586 61.4504 23.5255 61.5077 23.6018C61.5649 23.6591 61.6127 23.726 61.6509 23.8023C61.7082 23.8596 61.7273 23.8978 61.7082 23.9169C61.2117 24.3752 60.6579 24.7762 60.0468 25.1199C59.4549 25.4637 58.8247 25.731 58.1564 25.922C57.8127 26.0365 57.4594 26.1225 57.0966 26.1797C56.7529 26.237 56.3996 26.2848 56.0368 26.323C55.7122 26.3612 55.378 26.3802 55.0343 26.3802C54.7096 26.3802 54.385 26.3612 54.0604 26.323C53.4493 26.2275 52.8574 26.0843 52.2845 25.8933C51.7307 25.6833 51.1865 25.435 50.6518 25.1486C50.3654 24.9958 50.0885 24.8335 49.8212 24.6616C49.5538 24.4898 49.296 24.2988 49.0478 24.0888C48.895 23.9551 48.7423 23.831 48.5895 23.7164C48.4558 23.6018 48.3126 23.4682 48.1599 23.3154C47.6634 22.838 47.186 22.3511 46.7277 21.8546C46.2694 21.3581 45.8207 20.8425 45.3815 20.3079C44.885 19.7541 44.4267 19.1526 44.0066 18.5033C43.5865 17.835 43.3764 17.1094 43.3764 16.3264C43.3764 16.1164 43.3955 15.9063 43.4337 15.6963C43.4719 15.4862 43.5578 15.2953 43.6915 15.1234C43.9015 14.8561 44.188 14.6747 44.5508 14.5792C44.99 14.4646 45.4196 14.4169 45.8397 14.436C46.2789 14.4551 46.7181 14.4742 47.1573 14.4933C47.5965 14.5124 48.0357 14.5124 48.4749 14.4933C48.9141 14.4742 49.3247 14.3596 49.7066 14.1495C50.2031 13.8822 50.5945 13.5098 50.881 13.0325C51.1865 12.536 51.4157 12.0204 51.5684 11.4857C51.6066 11.3902 51.6353 11.2948 51.6543 11.1993C51.6734 11.0847 51.6925 10.9797 51.7116 10.8842H44.3503C44.2739 10.8651 44.1784 10.7983 44.0639 10.6837L43.8061 10.4259C43.596 10.2159 43.3955 10.0058 43.2046 9.79575C42.9945 9.56661 42.7845 9.34701 42.5744 9.13696C42.3835 8.92691 42.1925 8.70731 42.0015 8.47816C41.8106 8.24901 41.6196 8.01987 41.4287 7.79072C41.3523 7.69524 41.2855 7.60931 41.2282 7.53293C41.1709 7.45655 41.1136 7.37062 41.0563 7.27514C41.0372 7.25604 41.0277 7.2465 41.0277 7.2465C41.0277 7.2274 41.0181 7.20831 40.999 7.18921H50.881C50.9955 7.2465 51.091 7.32288 51.1674 7.41836C51.2056 7.45655 51.2438 7.49474 51.282 7.53293C51.3393 7.57112 51.387 7.60931 51.4252 7.6475C51.4634 7.68569 51.492 7.72389 51.5111 7.76208C51.5493 7.78117 51.5589 7.78117 51.5398 7.76208C51.7116 7.93394 51.8835 8.11534 52.0554 8.3063C52.2272 8.47816 52.3991 8.65002 52.5709 8.82188C52.781 9.07012 52.991 9.30882 53.2011 9.53796C53.4111 9.76711 53.6212 10.0058 53.8312 10.254C53.9649 10.4068 54.089 10.5596 54.2036 10.7123C54.3373 10.8651 54.4518 11.0179 54.5473 11.1706C54.9674 11.8963 55.1679 12.6983 55.1488 13.5767C55.1488 14.436 54.977 15.238 54.6333 15.9827C54.7478 15.8872 54.8624 15.7918 54.977 15.6963C55.1106 15.6008 55.2539 15.5149 55.4066 15.4385C55.6358 15.3048 55.8936 15.2093 56.18 15.1521C56.4664 15.0757 56.7433 15.0852 57.0107 15.1807C57.1061 15.2189 57.2016 15.2953 57.2971 15.4098C57.4117 15.5053 57.4976 15.5913 57.5549 15.6676C57.975 16.0686 58.376 16.4983 58.7579 16.9566C58.9679 17.1666 59.1684 17.3862 59.3594 17.6154C59.5504 17.8254 59.7318 18.045 59.9036 18.2742C59.98 18.3697 60.0468 18.4556 60.1041 18.532C60.1805 18.6084 60.2473 18.6943 60.3046 18.7898C60.3046 18.8089 60.3046 18.828 60.3046 18.8471C60.3237 18.8471 60.3333 18.8566 60.3333 18.8757C59.9323 18.7229 59.5122 18.7516 59.073 18.9616C58.6529 19.1526 58.2901 19.3913 57.9845 19.6777C57.87 19.7923 57.7554 19.9164 57.6408 20.0501C57.5453 20.1837 57.4594 20.327 57.383 20.4797L57.5549 20.6516C57.5931 20.6707 57.6122 20.6898 57.6122 20.7089C57.6313 20.728 57.6599 20.7566 57.6981 20.7948C57.8127 20.6993 57.9272 20.6038 58.0418 20.5084C58.1564 20.4129 58.271 20.3174 58.3855 20.2219C58.4046 20.2028 58.4428 20.2219 58.5001 20.2792C58.5574 20.3365 58.6147 20.4033 58.672 20.4797C58.7483 20.537 58.8056 20.5943 58.8438 20.6516C58.9011 20.6898 58.9298 20.7089 58.9298 20.7089C59.3499 21.1099 59.7509 21.5395 60.1328 21.9978C60.3428 22.2079 60.5433 22.4275 60.7343 22.6566C60.9252 22.8667 61.1067 23.0863 61.2785 23.3154ZM54.6619 22.2843C55.3111 22.0933 55.9413 21.8355 56.5524 21.5109C56.2659 21.1863 55.9795 20.8712 55.6931 20.5657C55.4257 20.241 55.1584 19.9164 54.891 19.5918C54.7383 19.4008 54.5855 19.2099 54.4328 19.0189C54.28 18.8089 54.1559 18.5893 54.0604 18.3601C53.8885 17.9209 53.8408 17.5008 53.9172 17.0998C53.4016 17.7109 52.7619 18.0737 51.9981 18.1883C51.5589 18.2264 51.1101 18.236 50.6518 18.2169C50.1935 18.1787 49.7448 18.1596 49.3056 18.1596C48.9428 18.1405 48.5513 18.1596 48.1312 18.2169C47.7302 18.2551 47.396 18.4269 47.1287 18.7325C46.9759 18.8852 46.8709 19.0571 46.8136 19.2481C46.7563 19.4199 46.7181 19.6109 46.699 19.8209C46.699 20.3174 46.7659 20.7662 46.8996 21.1672C47.1287 21.3199 47.3483 21.4536 47.5583 21.5682C48.0166 21.7973 48.494 21.9978 48.9905 22.1697C49.487 22.3415 49.9835 22.4752 50.48 22.5707C50.8046 22.628 51.1292 22.6662 51.4538 22.6853C51.7785 22.6853 52.1031 22.6757 52.4277 22.6566C52.8096 22.6184 53.182 22.5707 53.5448 22.5134C53.9267 22.4561 54.2991 22.3797 54.6619 22.2843ZM65.1454 10.7983C65.1645 10.8174 65.174 10.8365 65.174 10.8556C65.174 10.8556 65.1836 10.8651 65.2026 10.8842H63.3981H57.4117C57.3353 10.8651 57.2398 10.7983 57.1252 10.6837C57.0107 10.5691 56.9152 10.4832 56.8388 10.4259L55.6358 9.13696C55.4257 8.92691 55.2252 8.70731 55.0343 8.47816C54.8624 8.24901 54.681 8.01987 54.49 7.79072C54.4137 7.69524 54.3468 7.60931 54.2895 7.53293C54.2322 7.45655 54.1654 7.37062 54.089 7.27514C54.089 7.23695 54.0795 7.20831 54.0604 7.18921H55.8936H61.8514C61.9659 7.2465 62.0614 7.32288 62.1378 7.41836C62.2524 7.53293 62.3479 7.61886 62.4242 7.67615L63.6273 8.9651C63.8182 9.17515 64.0092 9.39475 64.2001 9.62389C64.3911 9.85304 64.582 10.0822 64.773 10.3113C64.8494 10.3877 64.9162 10.4641 64.9735 10.5405C65.0308 10.6169 65.0881 10.7028 65.1454 10.7983Z" fill="black"/>
<path d="M34.8236 4.01099H34.4788L35.2534 1.85862H35.6286L36.4032 4.01099H36.0584L35.4499 2.24958H35.4331L34.8236 4.01099ZM34.8814 3.16812H35.9996V3.44137H34.8814V3.16812ZM42.2444 2.55856H41.9165C41.9039 2.48849 41.8804 2.42684 41.8461 2.37359C41.8117 2.32034 41.7697 2.27515 41.72 2.23802C41.6702 2.20088 41.6145 2.17286 41.5529 2.15394C41.4919 2.13502 41.4271 2.12556 41.3584 2.12556C41.2344 2.12556 41.1234 2.15674 41.0253 2.2191C40.9279 2.28146 40.8508 2.37289 40.7941 2.4934C40.738 2.61391 40.71 2.76104 40.71 2.9348C40.71 3.10996 40.738 3.2578 40.7941 3.37831C40.8508 3.49882 40.9282 3.5899 41.0263 3.65156C41.1244 3.71321 41.2348 3.74404 41.3574 3.74404C41.4253 3.74404 41.4898 3.73493 41.5508 3.71672C41.6124 3.6978 41.6681 3.67012 41.7179 3.63369C41.7676 3.59726 41.8096 3.55277 41.844 3.50022C41.879 3.44697 41.9032 3.38601 41.9165 3.31735L42.2444 3.3184C42.2269 3.4242 42.1929 3.52159 42.1424 3.61057C42.0927 3.69885 42.0286 3.77522 41.9501 3.83968C41.8724 3.90344 41.7834 3.95283 41.6832 3.98787C41.583 4.0229 41.4737 4.04041 41.3553 4.04041C41.1689 4.04041 41.0029 3.99627 40.8571 3.90799C40.7114 3.81901 40.5965 3.69184 40.5124 3.52649C40.429 3.36114 40.3873 3.16391 40.3873 2.9348C40.3873 2.70499 40.4294 2.50776 40.5135 2.34311C40.5975 2.17776 40.7124 2.05094 40.8582 1.96266C41.0039 1.87368 41.1696 1.82919 41.3553 1.82919C41.4695 1.82919 41.576 1.84566 41.6748 1.87859C41.7743 1.91082 41.8636 1.95846 41.9428 2.02152C42.0219 2.08387 42.0874 2.16024 42.1393 2.25063C42.1911 2.34031 42.2262 2.44295 42.2444 2.55856ZM45.9824 2.9348C45.9824 3.16461 45.9404 3.36219 45.8563 3.52754C45.7722 3.69219 45.6569 3.81901 45.5105 3.90799C45.3648 3.99627 45.1991 4.04041 45.0134 4.04041C44.827 4.04041 44.6606 3.99627 44.5142 3.90799C44.3685 3.81901 44.2536 3.69184 44.1695 3.52649C44.0854 3.36114 44.0434 3.16391 44.0434 2.9348C44.0434 2.70499 44.0854 2.50776 44.1695 2.34311C44.2536 2.17776 44.3685 2.05094 44.5142 1.96266C44.6606 1.87368 44.827 1.82919 45.0134 1.82919C45.1991 1.82919 45.3648 1.87368 45.5105 1.96266C45.6569 2.05094 45.7722 2.17776 45.8563 2.34311C45.9404 2.50776 45.9824 2.70499 45.9824 2.9348ZM45.6608 2.9348C45.6608 2.75964 45.6324 2.61216 45.5757 2.49235C45.5196 2.37184 45.4426 2.28075 45.3445 2.2191C45.2471 2.15674 45.1367 2.12556 45.0134 2.12556C44.8894 2.12556 44.7787 2.15674 44.6813 2.2191C44.5839 2.28075 44.5068 2.37184 44.4501 2.49235C44.394 2.61216 44.366 2.75964 44.366 2.9348C44.366 3.10996 44.394 3.2578 44.4501 3.37831C44.5068 3.49812 44.5839 3.5892 44.6813 3.65156C44.7787 3.71321 44.8894 3.74404 45.0134 3.74404C45.1367 3.74404 45.2471 3.71321 45.3445 3.65156C45.4426 3.5892 45.5196 3.49812 45.5757 3.37831C45.6324 3.2578 45.6608 3.10996 45.6608 2.9348ZM49.2511 1.85862H49.5769V3.27426C49.5769 3.4249 49.5416 3.55837 49.4708 3.67468C49.4 3.79028 49.3005 3.88137 49.1723 3.94793C49.0441 4.01379 48.8938 4.04672 48.7215 4.04672C48.5498 4.04672 48.3999 4.01379 48.2717 3.94793C48.1434 3.88137 48.0439 3.79028 47.9732 3.67468C47.9024 3.55837 47.867 3.4249 47.867 3.27426V1.85862H48.1918V3.24799C48.1918 3.34538 48.2131 3.43191 48.2559 3.50758C48.2993 3.58325 48.3606 3.6428 48.4398 3.68624C48.519 3.72898 48.6129 3.75035 48.7215 3.75035C48.8308 3.75035 48.925 3.72898 49.0042 3.68624C49.084 3.6428 49.145 3.58325 49.187 3.50758C49.2298 3.43191 49.2511 3.34538 49.2511 3.24799V1.85862ZM51.5288 4.01099V1.85862H52.296C52.4635 1.85862 52.6022 1.8891 52.7122 1.95005C52.8222 2.01101 52.9045 2.09438 52.9592 2.20018C53.0138 2.30528 53.0412 2.42369 53.0412 2.55541C53.0412 2.68783 53.0135 2.80694 52.9581 2.91273C52.9035 3.01783 52.8208 3.1012 52.7101 3.16286C52.6001 3.22382 52.4617 3.25429 52.295 3.25429H51.7674V2.97894H52.2656C52.3714 2.97894 52.4572 2.96073 52.5231 2.92429C52.5889 2.88716 52.6373 2.83671 52.6681 2.77295C52.6989 2.7092 52.7143 2.63668 52.7143 2.55541C52.7143 2.47413 52.6989 2.40197 52.6681 2.33891C52.6373 2.27585 52.5886 2.22645 52.522 2.19072C52.4561 2.15499 52.3693 2.13712 52.2614 2.13712H51.8536V4.01099H51.5288ZM54.9016 4.01099V1.85862H55.2264V3.73143H56.2017V4.01099H54.9016ZM58.0519 4.01099V1.85862H59.4013V2.13817H58.3766V2.79397H59.3309V3.07248H58.3766V3.73143H59.4139V4.01099H58.0519ZM62.2408 2.79818V3.07143H61.2865V2.79818H62.2408ZM64.1645 4.01099V1.85862H64.9528C65.1055 1.85862 65.232 1.88384 65.3322 1.93429C65.4324 1.98403 65.5073 2.05164 65.5571 2.13712C65.6068 2.2219 65.6317 2.31754 65.6317 2.42404C65.6317 2.51372 65.6152 2.58939 65.5823 2.65104C65.5494 2.712 65.5052 2.76104 65.4499 2.79818C65.3952 2.83461 65.335 2.86124 65.2691 2.87805V2.89907C65.3406 2.90257 65.4103 2.92569 65.4782 2.96843C65.5469 3.01047 65.6037 3.07038 65.6485 3.14815C65.6933 3.22592 65.7158 3.32051 65.7158 3.43191C65.7158 3.54191 65.6898 3.6407 65.638 3.72828C65.5868 3.81516 65.5077 3.88417 65.4005 3.93532C65.2933 3.98576 65.1563 4.01099 64.9895 4.01099H64.1645ZM64.4893 3.73248H64.958C65.1136 3.73248 65.225 3.70235 65.2922 3.6421C65.3595 3.58184 65.3931 3.50653 65.3931 3.41614C65.3931 3.34818 65.376 3.28582 65.3416 3.22907C65.3073 3.17232 65.2582 3.12713 65.1945 3.0935C65.1314 3.05987 65.0565 3.04305 64.9696 3.04305H64.4893V3.73248ZM64.4893 2.78977H64.9244C64.9973 2.78977 65.0628 2.77576 65.1209 2.74773C65.1798 2.71971 65.2264 2.68047 65.2607 2.63002C65.2957 2.57888 65.3132 2.51862 65.3132 2.44926C65.3132 2.36028 65.2821 2.28566 65.2197 2.2254C65.1574 2.16515 65.0617 2.13502 64.9328 2.13502H64.4893V2.78977ZM68.9648 1.85862H69.2906V3.27426C69.2906 3.4249 69.2552 3.55837 69.1845 3.67468C69.1137 3.79028 69.0142 3.88137 68.886 3.94793C68.7578 4.01379 68.6075 4.04672 68.4351 4.04672C68.2635 4.04672 68.1135 4.01379 67.9853 3.94793C67.8571 3.88137 67.7576 3.79028 67.6868 3.67468C67.6161 3.55837 67.5807 3.4249 67.5807 3.27426V1.85862H67.9054V3.24799C67.9054 3.34538 67.9268 3.43191 67.9695 3.50758C68.013 3.58325 68.0743 3.6428 68.1535 3.68624C68.2326 3.72898 68.3265 3.75035 68.4351 3.75035C68.5444 3.75035 68.6387 3.72898 68.7178 3.68624C68.7977 3.6428 68.8587 3.58325 68.9007 3.50758C68.9434 3.43191 68.9648 3.34538 68.9648 3.24799V1.85862ZM71.5672 1.85862V4.01099H71.2425V1.85862H71.5672ZM73.5199 4.01099V1.85862H73.8447V3.73143H74.82V4.01099H73.5199ZM76.2837 2.13817V1.85862H77.9495V2.13817H77.2779V4.01099H76.9542V2.13817H76.2837ZM82.0603 4.01099V1.85862H82.8485C83.0013 1.85862 83.1277 1.88384 83.2279 1.93429C83.3281 1.98403 83.4031 2.05164 83.4528 2.13712C83.5026 2.2219 83.5274 2.31754 83.5274 2.42404C83.5274 2.51372 83.511 2.58939 83.4781 2.65104C83.4451 2.712 83.401 2.76104 83.3456 2.79818C83.291 2.83461 83.2307 2.86124 83.1649 2.87805V2.89907C83.2363 2.90257 83.306 2.92569 83.374 2.96843C83.4427 3.01047 83.4994 3.07038 83.5443 3.14815C83.5891 3.22592 83.6115 3.32051 83.6115 3.43191C83.6115 3.54191 83.5856 3.6407 83.5338 3.72828C83.4826 3.81516 83.4034 3.88417 83.2962 3.93532C83.189 3.98576 83.0521 4.01099 82.8853 4.01099H82.0603ZM82.3851 3.73248H82.8538C83.0093 3.73248 83.1207 3.70235 83.188 3.6421C83.2552 3.58184 83.2889 3.50653 83.2889 3.41614C83.2889 3.34818 83.2717 3.28582 83.2374 3.22907C83.2031 3.17232 83.154 3.12713 83.0902 3.0935C83.0272 3.05987 82.9522 3.04305 82.8653 3.04305H82.3851V3.73248ZM82.3851 2.78977H82.8202C82.893 2.78977 82.9585 2.77576 83.0167 2.74773C83.0755 2.71971 83.1221 2.68047 83.1565 2.63002C83.1915 2.57888 83.209 2.51862 83.209 2.44926C83.209 2.36028 83.1778 2.28566 83.1155 2.2254C83.0531 2.16515 82.9575 2.13502 82.8286 2.13502H82.3851V2.78977ZM85.4765 4.01099V1.85862H86.2437C86.4104 1.85862 86.5488 1.88734 86.6588 1.9448C86.7695 2.00225 86.8522 2.08177 86.9068 2.18337C86.9615 2.28426 86.9888 2.40091 86.9888 2.53334C86.9888 2.66506 86.9611 2.78101 86.9058 2.8812C86.8511 2.98069 86.7684 3.05812 86.6577 3.11347C86.5477 3.16882 86.4094 3.19649 86.2426 3.19649H85.6614V2.91694H86.2132C86.3183 2.91694 86.4038 2.90187 86.4696 2.87174C86.5362 2.84162 86.5849 2.79783 86.6157 2.74037C86.6465 2.68292 86.6619 2.61391 86.6619 2.53334C86.6619 2.45206 86.6462 2.38165 86.6146 2.32209C86.5838 2.26254 86.5351 2.217 86.4686 2.18547C86.4027 2.15324 86.3162 2.13712 86.209 2.13712H85.8012V4.01099H85.4765ZM86.539 3.0399L87.0708 4.01099H86.7008L86.1795 3.0399H86.539ZM89.0455 4.01099H88.7008L89.4754 1.85862H89.8506L90.6251 4.01099H90.2804L89.6719 2.24958H89.6551L89.0455 4.01099ZM89.1033 3.16812H90.2215V3.44137H89.1033V3.16812ZM94.1529 1.85862V4.01099H93.8544L92.7604 2.43244H92.7404V4.01099H92.4157V1.85862H92.7163L93.8114 3.43926H93.8313V1.85862H94.1529ZM96.8032 4.01099H96.1064V1.85862H96.8253C97.0361 1.85862 97.2173 1.90171 97.3686 1.98789C97.5199 2.07336 97.6359 2.19633 97.7165 2.35677C97.7977 2.51652 97.8384 2.70815 97.8384 2.93165C97.8384 3.15585 97.7974 3.34853 97.7154 3.50968C97.6341 3.67083 97.5164 3.79484 97.3623 3.88172C97.2082 3.9679 97.0218 4.01099 96.8032 4.01099ZM96.4311 3.72723H96.7853C96.9493 3.72723 97.0855 3.6964 97.1941 3.63474C97.3027 3.57239 97.384 3.48235 97.438 3.36465C97.4919 3.24624 97.5189 3.10191 97.5189 2.93165C97.5189 2.7628 97.4919 2.61951 97.438 2.50181C97.3847 2.3841 97.3052 2.29477 97.1994 2.23381C97.0936 2.17286 96.9622 2.14238 96.8053 2.14238H96.4311V3.72723Z" fill="black"/>
<path d="M24.0479 2.47974L31.7965 2.47974M108.394 2.47973L99.8878 2.47973" stroke="black" stroke-width="0.209689" stroke-linecap="round"/>
<path d="M13.2847 36.9558L12.4443 33.823H13.1446L13.5077 35.3636C13.5372 35.4926 13.5648 35.6308 13.5887 35.7764C13.6127 35.9239 13.6367 36.0694 13.6606 36.2187C13.6846 36.3661 13.7067 36.508 13.7306 36.6444H13.6164C13.6422 36.508 13.6662 36.3661 13.692 36.2187C13.7178 36.0713 13.7435 35.9239 13.7693 35.7764C13.7951 35.6308 13.8246 35.4926 13.8578 35.3636L14.2411 33.823H14.9082L15.2897 35.3636C15.321 35.4926 15.3505 35.6308 15.3781 35.7764C15.4039 35.9239 15.4316 36.0694 15.4574 36.2187C15.4832 36.3661 15.509 36.508 15.5348 36.6444H15.4169C15.4408 36.508 15.4648 36.3661 15.4869 36.2187C15.5108 36.0713 15.5348 35.9239 15.5606 35.7764C15.5864 35.6308 15.614 35.4926 15.6417 35.3636L16.0047 33.823H16.7069L15.8628 36.9558H15.1312L14.7147 35.3544C14.6705 35.1757 14.6318 34.984 14.6005 34.7758C14.5691 34.5675 14.5341 34.3537 14.4936 34.1344H14.6539C14.6097 34.3482 14.5747 34.5583 14.547 34.7629C14.5194 34.9674 14.4807 35.1646 14.4328 35.3544L14.0181 36.9558H13.2847Z" fill="black"/>
<path d="M23.2812 36.9558V33.823H25.3784V34.3556H23.9226V35.113H25.2679V35.6364H23.9226V36.4251H25.3821V36.9577H23.2812V36.9558Z" fill="black"/>
<path d="M31.9042 36.9558L32.9749 33.823H33.8152L34.9136 36.9558H34.2004L33.6973 35.4447C33.6365 35.2494 33.5757 35.0356 33.513 34.8052C33.4503 34.573 33.3858 34.3206 33.3158 34.046H33.4559C33.3877 34.3224 33.325 34.5767 33.2679 34.8108C33.2089 35.0448 33.1518 35.2567 33.0947 35.4466L32.6118 36.9577H31.9023L31.9042 36.9558ZM32.5731 36.2298V35.7267H34.2446V36.2298H32.5731Z" fill="black"/>
<path d="M41.4893 36.9558V33.823H42.7111C42.9488 33.823 43.1515 33.8654 43.3192 33.9483C43.4851 34.0331 43.6141 34.151 43.7007 34.304C43.7873 34.4569 43.8315 34.6357 43.8315 34.8421C43.8315 35.0485 43.7873 35.2254 43.6988 35.3747C43.6104 35.524 43.4814 35.6382 43.3118 35.7175C43.1423 35.7967 42.9377 35.8354 42.6963 35.8354H41.8671V35.3157H42.5931C42.724 35.3157 42.8327 35.2973 42.9175 35.2623C43.0022 35.2273 43.0649 35.1738 43.1073 35.1019C43.1497 35.0319 43.1699 34.9435 43.1699 34.8403C43.1699 34.7371 43.1497 34.6449 43.1073 34.573C43.0649 34.5012 43.0022 34.4459 42.9175 34.4072C42.8327 34.3685 42.724 34.3501 42.5931 34.3501H42.1324V36.954H41.4911L41.4893 36.9558ZM43.2326 36.9558L42.4696 35.5295H43.1662L43.9439 36.9558H43.2326Z" fill="black"/>
<path d="M77.663 37.0002C77.405 37.0002 77.1784 36.9523 76.9849 36.8564C76.7914 36.7606 76.6403 36.6261 76.5334 36.4565C76.4265 36.2852 76.373 36.0861 76.373 35.8576V33.825H77.0144V35.806C77.0144 35.9276 77.042 36.0364 77.0954 36.1304C77.1489 36.2243 77.2244 36.2999 77.3221 36.3533C77.4198 36.4068 77.534 36.4344 77.663 36.4344C77.792 36.4344 77.91 36.4068 78.0077 36.3533C78.1053 36.2999 78.1809 36.2243 78.2343 36.1304C78.2878 36.0364 78.3154 35.9276 78.3154 35.806V33.825H78.9586V35.8576C78.9586 36.0861 78.9051 36.2852 78.7964 36.4565C78.6877 36.6279 78.5365 36.7606 78.343 36.8564C78.1495 36.9523 77.9229 37.0002 77.663 37.0002Z" fill="black"/>
<path d="M85.7109 36.9558V33.823H86.9327C87.1705 33.823 87.3732 33.8654 87.5409 33.9483C87.7068 34.0331 87.8357 34.151 87.9224 34.304C88.009 34.4569 88.0532 34.6357 88.0532 34.8421C88.0532 35.0485 88.009 35.2254 87.9205 35.3747C87.8321 35.524 87.7031 35.6382 87.5335 35.7175C87.364 35.7967 87.1594 35.8354 86.918 35.8354H86.0887V35.3157H86.8148C86.9456 35.3157 87.0544 35.2973 87.1391 35.2623C87.2239 35.2273 87.2866 35.1738 87.329 35.1019C87.3714 35.0319 87.3916 34.9435 87.3916 34.8403C87.3916 34.7371 87.3714 34.6449 87.329 34.573C87.2866 34.5012 87.2239 34.4459 87.1391 34.4072C87.0544 34.3685 86.9456 34.3501 86.8148 34.3501H86.3541V36.954H85.7128L85.7109 36.9558ZM87.4543 36.9558L86.6913 35.5295H87.3879L88.1656 36.9558H87.4543Z" fill="black"/>
<path d="M102.843 36.9982C102.516 36.9982 102.262 36.9135 102.074 36.7421C101.886 36.5707 101.794 36.3293 101.794 36.0142V35.8317H102.435V36.0252C102.435 36.1745 102.472 36.2887 102.546 36.3661C102.62 36.4435 102.719 36.4822 102.843 36.4822C102.966 36.4822 103.066 36.4435 103.139 36.3661C103.213 36.2887 103.248 36.1745 103.248 36.0234V33.823H103.884V36.0123C103.884 36.3293 103.792 36.5725 103.605 36.7439C103.419 36.9153 103.167 37.0001 102.843 37.0001V36.9982Z" fill="black"/>
<path d="M112.016 36.9979C111.74 36.9979 111.491 36.9352 111.272 36.8081C111.052 36.6809 110.875 36.4985 110.748 36.2589C110.621 36.0193 110.557 35.73 110.557 35.3909C110.557 35.0518 110.621 34.7607 110.748 34.5193C110.877 34.2797 111.051 34.0954 111.272 33.9701C111.493 33.8448 111.742 33.7803 112.016 33.7803C112.291 33.7803 112.543 33.8429 112.763 33.9701C112.982 34.0954 113.157 34.2797 113.286 34.5193C113.415 34.7607 113.478 35.05 113.478 35.3909C113.478 35.7319 113.413 36.0193 113.286 36.2589C113.159 36.4985 112.984 36.6809 112.763 36.8081C112.543 36.9334 112.294 36.9979 112.016 36.9979ZM112.016 36.4285C112.178 36.4285 112.32 36.3898 112.442 36.3105C112.564 36.2313 112.657 36.1152 112.724 35.9585C112.792 35.8037 112.825 35.6139 112.825 35.3909C112.825 35.1679 112.792 34.9744 112.724 34.8196C112.656 34.6648 112.562 34.5469 112.442 34.4677C112.32 34.3884 112.178 34.3497 112.016 34.3497C111.854 34.3497 111.714 34.3903 111.592 34.4695C111.471 34.5487 111.375 34.6667 111.309 34.8215C111.24 34.9763 111.207 35.1661 111.207 35.3909C111.207 35.6158 111.24 35.8019 111.309 35.9567C111.377 36.1115 111.471 36.2276 111.592 36.3087C111.714 36.3898 111.856 36.4285 112.016 36.4285Z" fill="black"/>
<path d="M120.942 36.9558V35.7783L119.781 33.823H120.531L121.062 34.7979C121.117 34.8955 121.165 34.9932 121.208 35.0909C121.25 35.1886 121.292 35.3028 121.338 35.4373H121.198C121.243 35.301 121.283 35.1849 121.324 35.089C121.364 34.9932 121.41 34.8955 121.462 34.7997L121.974 33.8248H122.722L121.58 35.7801V36.9577H120.94L120.942 36.9558Z" fill="black"/>
<path d="M58.6942 36.9558V35.7783L57.5332 33.823H58.2833L58.814 34.7979C58.8693 34.8955 58.9172 34.9932 58.9596 35.0909C59.002 35.1886 59.0444 35.3028 59.0904 35.4373H58.9504C58.9946 35.301 59.0351 35.1849 59.0757 35.089C59.1162 34.9932 59.1623 34.8955 59.2139 34.7997L59.7262 33.8248H60.4744L59.3318 35.7801V36.9577H58.6924L58.6942 36.9558Z" fill="black"/>
</svg>
