<svg width="908" height="699" viewBox="0 0 908 699" fill="none" xmlns="http://www.w3.org/2000/svg">
<path d="M217.24 219.882H214.485L220.676 202.676H223.676L229.867 219.882H227.112L222.247 205.801H222.113L217.24 219.882ZM217.702 213.144H226.641V215.328H217.702V213.144ZM276.562 208.271H273.941C273.84 207.711 273.653 207.218 273.378 206.793C273.104 206.367 272.768 206.006 272.37 205.709C271.972 205.412 271.527 205.188 271.034 205.037C270.547 204.885 270.029 204.81 269.48 204.81C268.489 204.81 267.601 205.059 266.817 205.558C266.038 206.056 265.422 206.787 264.968 207.75C264.52 208.714 264.296 209.89 264.296 211.279C264.296 212.679 264.52 213.861 264.968 214.824C265.422 215.788 266.041 216.516 266.825 217.009C267.609 217.501 268.491 217.748 269.471 217.748C270.015 217.748 270.53 217.675 271.017 217.529C271.51 217.378 271.955 217.157 272.353 216.866C272.751 216.575 273.087 216.219 273.361 215.799C273.641 215.373 273.835 214.886 273.941 214.337L276.562 214.345C276.422 215.191 276.151 215.97 275.747 216.681C275.35 217.387 274.837 217.997 274.21 218.512C273.588 219.022 272.877 219.417 272.076 219.697C271.275 219.977 270.401 220.117 269.455 220.117C267.965 220.117 266.637 219.764 265.472 219.059C264.307 218.347 263.389 217.331 262.717 216.009C262.05 214.687 261.717 213.11 261.717 211.279C261.717 209.442 262.053 207.865 262.725 206.549C263.397 205.227 264.316 204.213 265.481 203.508C266.646 202.796 267.97 202.441 269.455 202.441C270.368 202.441 271.219 202.572 272.009 202.835C272.804 203.093 273.518 203.474 274.151 203.978C274.784 204.477 275.308 205.087 275.722 205.81C276.137 206.526 276.417 207.347 276.562 208.271ZM306.444 211.279C306.444 213.116 306.108 214.695 305.436 216.017C304.763 217.333 303.842 218.347 302.672 219.059C301.507 219.764 300.182 220.117 298.698 220.117C297.208 220.117 295.878 219.764 294.707 219.059C293.542 218.347 292.624 217.331 291.951 216.009C291.279 214.687 290.943 213.11 290.943 211.279C290.943 209.442 291.279 207.865 291.951 206.549C292.624 205.227 293.542 204.213 294.707 203.508C295.878 202.796 297.208 202.441 298.698 202.441C300.182 202.441 301.507 202.796 302.672 203.508C303.842 204.213 304.763 205.227 305.436 206.549C306.108 207.865 306.444 209.442 306.444 211.279ZM303.873 211.279C303.873 209.879 303.646 208.7 303.192 207.742C302.744 206.779 302.128 206.05 301.344 205.558C300.566 205.059 299.683 204.81 298.698 204.81C297.706 204.81 296.821 205.059 296.043 205.558C295.264 206.05 294.648 206.779 294.195 207.742C293.747 208.7 293.522 209.879 293.522 211.279C293.522 212.679 293.747 213.861 294.195 214.824C294.648 215.782 295.264 216.51 296.043 217.009C296.821 217.501 297.706 217.748 298.698 217.748C299.683 217.748 300.566 217.501 301.344 217.009C302.128 216.51 302.744 215.782 303.192 214.824C303.646 213.861 303.873 212.679 303.873 211.279ZM332.574 202.676H335.179V213.992C335.179 215.197 334.896 216.264 334.33 217.193C333.764 218.118 332.969 218.846 331.944 219.378C330.919 219.904 329.718 220.167 328.34 220.167C326.968 220.167 325.769 219.904 324.744 219.378C323.719 218.846 322.924 218.118 322.358 217.193C321.792 216.264 321.509 215.197 321.509 213.992V202.676H324.106V213.782C324.106 214.561 324.276 215.253 324.618 215.858C324.965 216.462 325.455 216.939 326.088 217.286C326.721 217.627 327.472 217.798 328.34 217.798C329.214 217.798 329.967 217.627 330.6 217.286C331.238 216.939 331.726 216.462 332.062 215.858C332.403 215.253 332.574 214.561 332.574 213.782V202.676ZM350.782 219.882V202.676H356.915C358.254 202.676 359.363 202.919 360.242 203.407C361.121 203.894 361.779 204.561 362.216 205.406C362.653 206.246 362.871 207.193 362.871 208.246C362.871 209.305 362.65 210.257 362.208 211.102C361.771 211.943 361.11 212.609 360.225 213.102C359.346 213.589 358.24 213.833 356.907 213.833H352.689V211.632H356.671C357.517 211.632 358.203 211.486 358.73 211.195C359.256 210.898 359.643 210.495 359.889 209.985C360.135 209.475 360.259 208.896 360.259 208.246C360.259 207.596 360.135 207.019 359.889 206.515C359.643 206.011 359.253 205.616 358.721 205.331C358.195 205.045 357.5 204.902 356.638 204.902H353.378V219.882H350.782ZM377.744 219.882V202.676H380.34V217.647H388.136V219.882H377.744ZM402.927 219.882V202.676H413.714V204.911H405.523V210.153H413.152V212.379H405.523V217.647H413.815V219.882H402.927ZM436.413 210.187V212.371H428.784V210.187H436.413ZM451.791 219.882V202.676H458.092C459.313 202.676 460.324 202.877 461.125 203.281C461.926 203.678 462.526 204.219 462.923 204.902C463.321 205.58 463.52 206.344 463.52 207.196C463.52 207.913 463.388 208.518 463.125 209.01C462.862 209.498 462.509 209.89 462.066 210.187C461.629 210.478 461.148 210.691 460.621 210.825V210.993C461.193 211.021 461.75 211.206 462.293 211.548C462.842 211.884 463.296 212.363 463.654 212.984C464.013 213.606 464.192 214.362 464.192 215.253C464.192 216.132 463.985 216.922 463.57 217.622C463.161 218.316 462.528 218.868 461.671 219.277C460.815 219.68 459.72 219.882 458.387 219.882H451.791ZM454.387 217.655H458.135C459.378 217.655 460.268 217.415 460.806 216.933C461.344 216.451 461.613 215.849 461.613 215.127C461.613 214.583 461.475 214.085 461.201 213.631C460.927 213.178 460.534 212.816 460.025 212.547C459.521 212.279 458.921 212.144 458.227 212.144H454.387V217.655ZM454.387 210.119H457.866C458.448 210.119 458.972 210.007 459.437 209.783C459.907 209.559 460.28 209.246 460.554 208.842C460.834 208.434 460.974 207.952 460.974 207.397C460.974 206.686 460.725 206.09 460.226 205.608C459.728 205.126 458.963 204.885 457.933 204.885H454.387V210.119ZM490.165 202.676H492.769V213.992C492.769 215.197 492.486 216.264 491.921 217.193C491.355 218.118 490.56 218.846 489.535 219.378C488.51 219.904 487.308 220.167 485.93 220.167C484.558 220.167 483.36 219.904 482.335 219.378C481.31 218.846 480.514 218.118 479.949 217.193C479.383 216.264 479.1 215.197 479.1 213.992V202.676H481.696V213.782C481.696 214.561 481.867 215.253 482.209 215.858C482.556 216.462 483.046 216.939 483.679 217.286C484.312 217.627 485.062 217.798 485.93 217.798C486.804 217.798 487.557 217.627 488.19 217.286C488.829 216.939 489.316 216.462 489.652 215.858C489.994 215.253 490.165 214.561 490.165 213.782V202.676ZM510.969 202.676V219.882H508.373V202.676H510.969ZM526.578 219.882V202.676H529.174V217.647H536.971V219.882H526.578ZM548.672 204.911V202.676H561.988V204.911H556.619V219.882H554.032V204.911H548.672ZM594.85 219.882V202.676H601.151C602.372 202.676 603.383 202.877 604.184 203.281C604.985 203.678 605.584 204.219 605.982 204.902C606.379 205.58 606.578 206.344 606.578 207.196C606.578 207.913 606.447 208.518 606.183 209.01C605.92 209.498 605.567 209.89 605.125 210.187C604.688 210.478 604.206 210.691 603.68 210.825V210.993C604.251 211.021 604.808 211.206 605.352 211.548C605.9 211.884 606.354 212.363 606.713 212.984C607.071 213.606 607.25 214.362 607.25 215.253C607.25 216.132 607.043 216.922 606.629 217.622C606.22 218.316 605.587 218.868 604.73 219.277C603.873 219.68 602.778 219.882 601.445 219.882H594.85ZM597.446 217.655H601.193C602.436 217.655 603.327 217.415 603.864 216.933C604.402 216.451 604.671 215.849 604.671 215.127C604.671 214.583 604.534 214.085 604.259 213.631C603.985 213.178 603.593 212.816 603.083 212.547C602.579 212.279 601.98 212.144 601.285 212.144H597.446V217.655ZM597.446 210.119H600.924C601.507 210.119 602.03 210.007 602.495 209.783C602.966 209.559 603.338 209.246 603.612 208.842C603.893 208.434 604.033 207.952 604.033 207.397C604.033 206.686 603.783 206.09 603.285 205.608C602.786 205.126 602.022 204.885 600.991 204.885H597.446V210.119ZM622.158 219.882V202.676H628.291C629.624 202.676 630.731 202.905 631.61 203.365C632.495 203.824 633.156 204.46 633.593 205.272C634.03 206.078 634.248 207.011 634.248 208.07C634.248 209.122 634.027 210.049 633.584 210.85C633.147 211.646 632.487 212.265 631.602 212.707C630.722 213.15 629.616 213.371 628.283 213.371H623.637V211.136H628.048C628.888 211.136 629.571 211.016 630.098 210.775C630.63 210.534 631.019 210.184 631.266 209.725C631.512 209.265 631.635 208.714 631.635 208.07C631.635 207.42 631.509 206.857 631.257 206.381C631.011 205.905 630.621 205.541 630.089 205.289C629.563 205.031 628.871 204.902 628.014 204.902H624.754V219.882H622.158ZM630.652 212.119L634.903 219.882H631.946L627.779 212.119H630.652ZM650.689 219.882H647.934L654.126 202.676H657.125L663.317 219.882H660.561L655.697 205.801H655.562L650.689 219.882ZM651.152 213.144H660.091V215.328H651.152V213.144ZM691.518 202.676V219.882H689.132L680.386 207.263H680.227V219.882H677.631V202.676H680.033L688.788 215.311H688.947V202.676H691.518ZM712.704 219.882H707.134V202.676H712.881C714.566 202.676 716.014 203.02 717.224 203.709C718.434 204.393 719.361 205.375 720.005 206.658C720.655 207.935 720.979 209.467 720.979 211.254C720.979 213.046 720.652 214.586 719.996 215.874C719.347 217.163 718.406 218.154 717.174 218.848C715.941 219.537 714.452 219.882 712.704 219.882ZM709.73 217.613H712.561C713.872 217.613 714.961 217.367 715.829 216.874C716.698 216.376 717.347 215.656 717.779 214.715C718.21 213.768 718.425 212.615 718.425 211.254C718.425 209.904 718.21 208.758 717.779 207.817C717.353 206.877 716.717 206.162 715.871 205.675C715.026 205.188 713.975 204.944 712.721 204.944H709.73V217.613Z" fill="black"/>
<path d="M129.605 211.18H192.325M812.322 211.18H743.473" stroke="black" stroke-width="1.97152" stroke-linecap="round"/>
<path d="M611.225 295.33C611.225 295.489 611.384 295.728 611.703 296.047C611.225 296.206 610.747 296.286 610.269 296.286C609.95 296.286 609.632 296.365 609.313 296.525C606.126 297.321 603.179 298.676 600.47 300.588C597.921 302.34 595.77 304.571 594.017 307.28C592.424 309.829 591.308 312.537 590.671 315.405C590.034 318.273 589.635 321.142 589.476 324.01C589.317 327.356 589.237 330.781 589.237 334.287C589.237 337.633 589.237 340.979 589.237 344.325V367.986V446.378C589.237 446.378 588.918 446.218 588.281 445.9C587.803 445.581 587.245 445.182 586.608 444.704C585.971 444.226 585.413 443.828 584.935 443.51C584.457 443.191 584.298 443.111 584.457 443.271C582.545 441.837 580.633 440.403 578.721 438.969C576.809 437.535 574.977 436.021 573.224 434.428C571.471 432.994 569.639 431.56 567.727 430.126C565.974 428.532 564.222 426.939 562.469 425.346C561.832 424.868 561.194 424.389 560.557 423.911C559.92 423.274 559.282 422.557 558.645 421.76C558.645 421.601 558.565 421.521 558.406 421.521C558.406 421.521 558.406 421.442 558.406 421.283V418.415V340.022V316.361C558.406 313.175 558.406 309.909 558.406 306.562C558.247 303.217 558.326 299.95 558.645 296.763C558.645 296.445 558.645 296.126 558.645 295.808C558.804 295.33 558.884 294.931 558.884 294.612H552.67C552.033 294.453 551.236 293.895 550.28 292.94L548.129 290.789C546.376 289.036 544.703 287.283 543.11 285.53C541.357 283.619 539.605 281.786 537.852 280.033C536.259 278.281 534.665 276.449 533.072 274.536C531.479 272.625 529.885 270.713 528.292 268.801C527.655 268.004 527.097 267.287 526.619 266.649C526.141 266.012 525.663 265.295 525.185 264.498C525.026 264.339 524.946 264.26 524.946 264.26C524.946 264.1 524.866 263.941 524.707 263.781H539.047H577.765C578.721 264.259 579.518 264.897 580.155 265.693C581.111 266.65 581.908 267.367 582.545 267.844L592.583 278.6C593.061 279.237 593.937 280.193 595.212 281.468C595.849 282.105 596.327 282.503 596.646 282.663C598.558 284.256 600.39 285.77 602.143 287.204C603.896 288.638 605.648 290.151 607.401 291.745C608.198 292.382 608.835 293.019 609.313 293.657C609.95 294.135 610.588 294.692 611.225 295.33Z" fill="black"/>
<path d="M650.765 593.841C652.199 598.939 652.518 603.958 651.721 608.898C650.924 613.837 649.411 618.617 647.18 623.238C644.79 628.177 642.081 632.798 639.054 637.1C636.027 641.561 633.398 646.182 631.167 650.962C628.777 655.742 627.024 660.761 625.909 666.019C624.794 671.277 625.112 676.455 626.865 681.554C625.909 681.235 625.192 680.677 624.714 679.881C623.758 679.243 622.961 678.447 622.324 677.491C620.571 675.738 618.898 673.985 617.305 672.233C615.712 670.48 614.039 668.727 612.286 666.975C610.533 665.063 608.86 663.151 607.267 661.239C605.674 659.486 604.16 657.654 602.726 655.742C602.089 654.945 601.372 654.069 600.575 653.113C599.938 652.316 599.46 651.519 599.141 650.723C597.866 647.217 597.309 643.632 597.468 639.968C597.627 636.462 598.265 632.957 599.38 629.452C601.451 623.078 604.319 617.103 607.984 611.527C611.649 606.109 615.074 600.533 618.261 594.797C619.695 591.929 620.89 589.061 621.846 586.193C622.961 583.325 623.758 580.297 624.236 577.111C624.873 571.215 624.077 565.24 621.846 559.186C621.049 557.274 620.173 555.441 619.217 553.689C618.261 551.936 617.225 550.183 616.11 548.431C615.791 548.112 615.473 547.634 615.154 546.997C614.517 546.359 613.879 545.563 613.242 544.607L613.003 544.368C612.844 544.049 612.684 543.81 612.525 543.651C612.366 543.651 612.206 543.491 612.047 543.173C610.932 541.898 609.896 540.703 608.94 539.588C607.984 538.472 607.028 537.277 606.072 536.003C605.435 535.365 604.957 534.808 604.638 534.33C603.363 532.577 602.009 530.904 600.575 529.311C599.141 527.717 597.787 526.044 596.512 524.292C594.281 521.424 591.971 518.556 589.581 515.688C587.35 512.979 585.12 510.191 582.889 507.323C579.862 503.658 576.834 499.914 573.807 496.09C570.939 492.425 568.071 488.76 565.203 485.096C561.698 480.953 558.272 476.731 554.926 472.429C551.58 468.127 548.154 463.904 544.649 459.762C541.144 455.3 537.638 450.839 534.133 446.378C530.628 442.076 527.043 437.694 523.378 433.233C519.873 428.771 516.367 424.39 512.862 420.088C509.516 415.786 506.09 411.484 502.585 407.182C499.398 403.198 496.291 399.295 493.264 395.471C490.237 391.647 487.13 387.743 483.943 383.76C482.828 383.76 481.712 383.76 480.597 383.76C479.641 383.76 478.605 383.68 477.49 383.521C476.693 383.361 475.817 383.282 474.861 383.282C474.064 383.122 473.268 382.883 472.471 382.565C471.196 381.927 469.922 380.971 468.647 379.697C466.416 377.625 464.265 375.474 462.194 373.244C460.123 371.013 458.051 368.782 455.98 366.552C453.909 364.321 451.837 362.09 449.766 359.86C447.854 357.47 445.942 355 444.03 352.451C442.277 349.901 441.162 347.352 440.684 344.803C440.365 342.731 440.684 340.74 441.64 338.828C442.596 336.916 443.95 335.322 445.703 334.048C447.615 332.932 449.368 332.773 450.961 333.57C451.758 333.888 452.793 334.685 454.068 335.96C455.183 336.916 456.219 337.872 457.175 338.828C458.131 339.784 459.087 340.74 460.043 341.696L469.364 351.734C470.479 351.574 471.515 351.415 472.471 351.256C473.586 351.096 474.702 350.857 475.817 350.539C478.207 349.901 480.517 349.264 482.748 348.627C485.138 347.83 487.448 346.794 489.679 345.52C492.706 343.926 495.415 341.935 497.805 339.545C498.442 339.067 499 338.589 499.478 338.111C499.956 337.633 500.434 337.155 500.912 336.677C500.753 336.358 500.514 336.039 500.195 335.721C499.398 334.924 498.522 334.048 497.566 333.092C496.769 332.136 495.973 331.259 495.176 330.463C489.759 324.886 484.58 319.23 479.641 313.494C477.41 310.944 475.259 308.475 473.188 306.085C471.117 303.695 469.205 301.145 467.452 298.437C465.699 296.047 464.106 293.577 462.672 291.028C461.238 288.478 460.202 285.69 459.565 282.663C459.087 280.113 459.007 277.484 459.326 274.776C459.804 272.067 460.68 269.597 461.955 267.367C464.345 263.543 467.611 260.993 471.754 259.719C475.897 258.444 480.199 258.205 484.66 259.002C489.121 259.798 493.264 261.153 497.088 263.065C501.549 265.295 505.612 268.163 509.277 271.669C511.826 273.899 514.216 276.289 516.447 278.839C518.837 281.229 521.147 283.698 523.378 286.248C525.131 288.319 526.963 290.47 528.875 292.701C530.787 294.772 532.619 296.923 534.372 299.154C535.487 300.588 536.603 302.022 537.718 303.456C538.833 304.73 539.789 306.244 540.586 307.997C542.657 311.821 544.012 315.804 544.649 319.947C545.446 324.089 545.605 328.232 545.127 332.375C544.649 336.517 543.693 340.66 542.259 344.803C540.825 348.945 539.072 352.769 537.001 356.275C534.93 359.939 532.54 363.365 529.831 366.552C527.122 369.579 524.015 372.288 520.51 374.678C518.279 376.112 515.969 377.307 513.579 378.263C511.348 379.059 508.879 379.856 506.17 380.653C503.302 381.449 500.354 382.087 497.327 382.565C494.3 383.043 491.193 383.441 488.006 383.76C488.006 383.76 488.165 383.919 488.484 384.238C489.918 385.99 491.272 387.743 492.547 389.496C493.981 391.089 495.335 392.762 496.61 394.515C500.115 398.817 503.541 403.119 506.887 407.421C510.233 411.723 513.659 416.025 517.164 420.327C521.307 425.425 525.29 430.444 529.114 435.384C533.097 440.323 537.16 445.342 541.303 450.441C545.446 455.699 549.668 460.957 553.97 466.215C558.272 471.473 562.494 476.731 566.637 481.989C570.62 487.087 574.524 492.027 578.348 496.807C582.331 501.746 586.315 506.685 590.298 511.625C593.644 515.767 596.91 519.83 600.097 523.814C603.443 527.797 606.709 531.86 609.896 536.003C612.127 538.711 614.278 541.42 616.349 544.129C618.58 546.837 620.81 549.546 623.041 552.255C623.36 552.573 623.599 552.972 623.758 553.45C624.077 553.928 624.395 554.326 624.714 554.645C626.148 556.238 627.502 557.752 628.777 559.186C630.211 560.779 631.565 562.372 632.84 563.966C636.505 568.427 640.01 573.127 643.356 578.067C646.702 583.006 649.172 588.264 650.765 593.841ZM511.906 276.21C511.906 276.21 511.986 276.289 512.145 276.449C512.145 276.289 512.065 276.21 511.906 276.21ZM511.906 275.971C511.747 275.811 511.667 275.732 511.667 275.732L511.906 275.971ZM491.113 322.815C493.025 324.886 494.857 326.957 496.61 329.029C498.522 330.941 500.354 333.012 502.107 335.243C505.612 331.578 508.48 327.356 510.711 322.576C513.26 317.796 515.172 312.697 516.447 307.28C517.722 301.862 517.961 296.445 517.164 291.028C516.208 290.709 514.933 290.39 513.34 290.072C509.835 289.434 506.25 289.355 502.585 289.833C498.92 290.311 495.734 291.824 493.025 294.374C489.838 297.401 487.926 301.145 487.289 305.607C486.652 309.909 487.13 314.051 488.723 318.035C489.36 319.628 490.157 321.221 491.113 322.815Z" fill="black"/>
<path d="M433.375 295.33C433.375 295.489 433.535 295.728 433.853 296.047C433.375 296.206 432.897 296.286 432.419 296.286C432.101 296.286 431.782 296.365 431.463 296.525C428.277 297.321 425.329 298.676 422.62 300.588C420.071 302.34 417.92 304.571 416.167 307.28C414.574 309.829 413.459 312.537 412.821 315.405C412.184 318.273 411.786 321.142 411.626 324.01C411.467 327.356 411.387 330.781 411.387 334.287C411.387 337.633 411.387 340.979 411.387 344.325V367.986V446.378C411.387 446.378 411.069 446.218 410.431 445.9C409.953 445.581 409.396 445.182 408.758 444.704C408.121 444.226 407.563 443.828 407.085 443.51C406.607 443.191 406.448 443.111 406.607 443.271C404.695 441.837 402.783 440.403 400.871 438.969C398.959 437.535 397.127 436.021 395.374 434.428C393.622 432.994 391.789 431.56 389.877 430.126C388.125 428.532 386.372 426.939 384.619 425.346C383.982 424.868 383.345 424.389 382.707 423.911C382.07 423.274 381.433 422.557 380.795 421.76C380.795 421.601 380.716 421.521 380.556 421.521C380.556 421.521 380.556 421.442 380.556 421.283V418.415V340.022V316.361C380.556 313.175 380.556 309.909 380.556 306.562C380.397 303.217 380.477 299.95 380.795 296.763C380.795 296.445 380.795 296.126 380.795 295.808C380.955 295.33 381.034 294.931 381.034 294.612H374.82C374.183 294.453 373.386 293.895 372.43 292.94L370.279 290.789C368.527 289.036 366.854 287.283 365.26 285.53C363.508 283.619 361.755 281.786 360.002 280.033C358.409 278.281 356.816 276.449 355.222 274.536C353.629 272.625 352.036 270.713 350.442 268.801C349.805 268.004 349.247 267.287 348.769 266.649C348.291 266.012 347.813 265.295 347.335 264.498C347.176 264.339 347.096 264.26 347.096 264.26C347.096 264.1 347.017 263.941 346.857 263.781H361.197H399.915C400.871 264.259 401.668 264.897 402.305 265.693C403.261 266.65 404.058 267.367 404.695 267.844L414.733 278.6C415.211 279.237 416.088 280.193 417.362 281.468C418 282.105 418.478 282.503 418.796 282.663C420.708 284.256 422.541 285.77 424.293 287.204C426.046 288.638 427.799 290.151 429.551 291.745C430.348 292.382 430.985 293.019 431.463 293.657C432.101 294.135 432.738 294.692 433.375 295.33Z" fill="black"/>
<path d="M404.001 398.339C404.001 398.339 404.16 398.577 404.479 399.055C404.957 399.533 405.435 400.091 405.913 400.729C406.391 401.206 406.789 401.764 407.108 402.402C407.586 402.88 407.745 403.198 407.586 403.357C403.443 407.181 398.823 410.528 393.724 413.396C388.785 416.264 383.527 418.494 377.95 420.087C375.082 421.043 372.134 421.76 369.107 422.238C366.239 422.716 363.291 423.115 360.264 423.434C357.555 423.752 354.767 423.911 351.899 423.911C349.19 423.911 346.482 423.752 343.773 423.434C338.674 422.637 333.735 421.442 328.955 419.848C324.334 418.096 319.793 416.025 315.332 413.635C312.942 412.36 310.632 411.006 308.401 409.572C306.17 408.138 304.019 406.544 301.948 404.792C300.673 403.676 299.399 402.64 298.124 401.684C297.009 400.728 295.814 399.613 294.539 398.339C290.396 394.355 286.413 390.292 282.589 386.15C278.765 382.007 275.021 377.705 271.356 373.244C267.213 368.623 263.389 363.604 259.884 358.187C256.379 352.61 254.626 346.555 254.626 340.022C254.626 338.27 254.785 336.517 255.104 334.765C255.423 333.012 256.14 331.419 257.255 329.985C259.008 327.754 261.398 326.24 264.425 325.444C268.09 324.488 271.675 324.089 275.18 324.249C278.845 324.408 282.509 324.567 286.174 324.727C289.839 324.886 293.503 324.886 297.168 324.727C300.833 324.567 304.258 323.611 307.445 321.859C311.588 319.628 314.854 316.521 317.244 312.538C319.793 308.395 321.705 304.093 322.98 299.632C323.299 298.835 323.538 298.038 323.697 297.242C323.856 296.286 324.016 295.409 324.175 294.612H262.752C262.115 294.453 261.318 293.895 260.362 292.94L258.211 290.789C256.458 289.036 254.785 287.283 253.192 285.53C251.439 283.619 249.687 281.786 247.934 280.033C246.341 278.281 244.747 276.449 243.154 274.536C241.561 272.625 239.967 270.713 238.374 268.801C237.737 268.004 237.179 267.287 236.701 266.649C236.223 266.012 235.745 265.295 235.267 264.498C235.108 264.339 235.028 264.26 235.028 264.26C235.028 264.1 234.948 263.941 234.789 263.781H317.244C318.2 264.259 318.997 264.897 319.634 265.693C319.953 266.012 320.271 266.331 320.59 266.649C321.068 266.968 321.466 267.287 321.785 267.606C322.104 267.924 322.343 268.243 322.502 268.562C322.821 268.721 322.9 268.721 322.741 268.562C324.175 269.996 325.609 271.509 327.043 273.103C328.477 274.537 329.911 275.971 331.345 277.405C333.098 279.476 334.85 281.468 336.603 283.379C338.356 285.292 340.108 287.283 341.861 289.355C342.976 290.629 344.012 291.904 344.968 293.179C346.083 294.453 347.039 295.728 347.836 297.003C351.341 303.057 353.014 309.749 352.855 317.079C352.855 324.249 351.421 330.941 348.553 337.155C349.509 336.358 350.465 335.561 351.421 334.765C352.536 333.968 353.731 333.251 355.006 332.614C356.918 331.498 359.069 330.702 361.459 330.224C363.849 329.586 366.159 329.666 368.39 330.463C369.187 330.781 369.983 331.419 370.78 332.375C371.736 333.171 372.453 333.888 372.931 334.526C376.436 337.872 379.782 341.457 382.969 345.281C384.722 347.033 386.395 348.866 387.988 350.778C389.581 352.53 391.095 354.363 392.529 356.275C393.166 357.071 393.724 357.788 394.202 358.426C394.839 359.063 395.397 359.78 395.875 360.577C395.875 360.736 395.875 360.895 395.875 361.055C396.034 361.055 396.114 361.134 396.114 361.294C392.768 360.019 389.263 360.258 385.598 362.011C382.093 363.604 379.065 365.596 376.516 367.986C375.56 368.942 374.604 369.977 373.648 371.093C372.851 372.208 372.134 373.403 371.497 374.678L372.931 376.112C373.25 376.271 373.409 376.43 373.409 376.59C373.568 376.749 373.807 376.988 374.126 377.307C375.082 376.51 376.038 375.713 376.994 374.917C377.95 374.12 378.906 373.323 379.862 372.527C380.021 372.367 380.34 372.527 380.818 373.005C381.296 373.483 381.774 374.04 382.252 374.678C382.889 375.156 383.367 375.634 383.686 376.112C384.164 376.43 384.403 376.59 384.403 376.59C387.908 379.936 391.254 383.521 394.441 387.345C396.194 389.097 397.867 390.929 399.46 392.841C401.053 394.594 402.567 396.427 404.001 398.339ZM348.792 389.735C354.209 388.141 359.467 385.99 364.566 383.282C362.176 380.573 359.786 377.944 357.396 375.395C355.165 372.686 352.935 369.977 350.704 367.269C349.429 365.675 348.155 364.082 346.88 362.489C345.605 360.736 344.57 358.904 343.773 356.992C342.339 353.327 341.941 349.822 342.578 346.476C338.276 351.574 332.938 354.602 326.565 355.558C322.9 355.876 319.156 355.956 315.332 355.797C311.508 355.478 307.764 355.319 304.099 355.319C301.072 355.159 297.805 355.319 294.3 355.797C290.954 356.115 288.166 357.549 285.935 360.099C284.66 361.373 283.784 362.807 283.306 364.401C282.828 365.835 282.509 367.428 282.35 369.181C282.35 373.323 282.908 377.068 284.023 380.414C285.935 381.688 287.767 382.804 289.52 383.76C293.344 385.672 297.327 387.345 301.47 388.779C305.613 390.213 309.755 391.328 313.898 392.124C316.607 392.602 319.315 392.921 322.024 393.081C324.733 393.081 327.441 393.001 330.15 392.841C333.337 392.523 336.444 392.125 339.471 391.647C342.658 391.169 345.765 390.531 348.792 389.735ZM436.266 293.896C436.425 294.055 436.505 294.214 436.505 294.373C436.505 294.373 436.585 294.453 436.744 294.612H421.687H371.736C371.099 294.453 370.302 293.895 369.346 292.94C368.39 291.984 367.593 291.267 366.956 290.789L356.918 280.033C355.165 278.281 353.492 276.449 351.899 274.536C350.465 272.625 348.951 270.713 347.358 268.801C346.721 268.004 346.163 267.287 345.685 266.649C345.207 266.012 344.649 265.295 344.012 264.498C344.012 264.18 343.932 263.941 343.773 263.781H359.069H408.781C409.737 264.259 410.534 264.897 411.171 265.693C412.127 266.65 412.924 267.367 413.561 267.844L423.599 278.6C425.192 280.352 426.786 282.185 428.379 284.097C429.972 286.009 431.566 287.921 433.159 289.833C433.796 290.47 434.354 291.107 434.832 291.745C435.31 292.382 435.788 293.099 436.266 293.896Z" fill="black"/>
<path d="M65.0973 501.507L59.0781 478.227H64.0941L66.6946 489.675C66.9058 490.634 67.1037 491.661 67.2753 492.743C67.4469 493.838 67.6185 494.92 67.7901 496.029C67.9617 497.125 68.1201 498.179 68.2917 499.193H67.4733C67.6582 498.179 67.8298 497.125 68.0146 496.029C68.1994 494.934 68.3841 493.838 68.5689 492.743C68.7537 491.661 68.9649 490.634 69.2025 489.675L71.9482 478.227H76.7266L79.459 489.675C79.6834 490.634 79.8945 491.661 80.0925 492.743C80.2773 493.838 80.4754 494.92 80.6602 496.029C80.845 497.125 81.0299 498.179 81.2147 499.193H80.3698C80.5414 498.179 80.7131 497.125 80.8715 496.029C81.0431 494.934 81.2147 493.838 81.3995 492.743C81.5843 491.661 81.7822 490.634 81.9802 489.675L84.5806 478.227H89.6099L83.5642 501.507H78.3238L75.3405 489.607C75.0237 488.278 74.7465 486.854 74.5221 485.307C74.2977 483.759 74.047 482.171 73.7566 480.541H74.905C74.5882 482.129 74.3375 483.691 74.1394 485.211C73.9414 486.731 73.6641 488.196 73.3209 489.607L70.3509 501.507H65.0973Z" fill="black"/>
<path d="M136.707 501.507V478.227H151.729V482.184H141.301V487.813H150.937V491.702H141.301V497.563H151.755V501.521H136.707V501.507Z" fill="black"/>
<path d="M198.468 501.507L206.138 478.227H212.157L220.024 501.507H214.916L211.312 490.278C210.876 488.826 210.441 487.237 209.992 485.526C209.543 483.8 209.081 481.924 208.58 479.884H209.583C209.094 481.938 208.646 483.828 208.236 485.567C207.814 487.306 207.405 488.881 206.995 490.291L203.537 501.521H198.455L198.468 501.507ZM203.26 496.111V492.373H215.232V496.111H203.26Z" fill="black"/>
<path d="M267.121 501.507V478.227H275.873C277.576 478.227 279.027 478.542 280.229 479.158C281.417 479.788 282.341 480.664 282.961 481.801C283.582 482.937 283.898 484.266 283.898 485.8C283.898 487.333 283.582 488.648 282.948 489.757C282.314 490.866 281.39 491.715 280.176 492.304C278.962 492.893 277.496 493.181 275.767 493.181H269.827V489.319H275.028C275.965 489.319 276.744 489.182 277.351 488.922C277.958 488.662 278.407 488.265 278.711 487.73C279.014 487.21 279.16 486.553 279.16 485.786C279.16 485.019 279.014 484.334 278.711 483.8C278.407 483.266 277.958 482.855 277.351 482.568C276.744 482.28 275.965 482.143 275.028 482.143H271.728V501.493H267.134L267.121 501.507ZM279.608 501.507L274.143 490.908H279.133L284.704 501.507H279.608Z" fill="black"/>
<path d="M390.359 501.507V492.756L382.043 478.227H387.415L391.217 485.471C391.613 486.197 391.956 486.922 392.26 487.648C392.564 488.374 392.867 489.223 393.197 490.223H392.194C392.511 489.209 392.801 488.347 393.091 487.635C393.382 486.922 393.712 486.197 394.081 485.485L397.751 478.24H403.11L394.926 492.77V501.521H390.346L390.359 501.507Z" fill="black"/>
<path fill-rule="evenodd" clip-rule="evenodd" d="M495.446 489.875C494.49 486.051 492.897 482.466 490.666 479.12C488.914 476.412 487.002 473.783 484.93 471.233C482.859 468.843 480.708 466.453 478.477 464.063C476.087 461.355 473.618 458.646 471.068 455.937C468.678 453.229 466.129 450.52 463.42 447.811L459.118 443.509C455.294 440.163 451.391 437.614 447.407 435.861C439.6 432.356 431.633 431.719 423.507 433.949C418.568 435.224 414.107 437.375 410.123 440.402C405.981 443.43 402.316 446.935 399.129 450.918L398.89 451.157C398.731 451.317 398.89 451.635 399.368 452.113C399.687 452.751 400.085 453.388 400.563 454.025C401.041 454.663 401.519 455.141 401.997 455.459L402.475 456.176L407.255 461.912C408.689 463.824 410.283 465.657 412.035 467.409L422.073 478.164L422.79 478.642C423.109 479.12 423.587 479.598 424.224 480.076C424.862 480.714 425.419 481.192 425.897 481.51C426.375 481.988 426.694 482.227 426.853 482.227C430.04 478.085 433.625 474.5 437.608 471.472C441.592 468.445 446.053 466.214 450.992 464.78C453.86 463.984 456.808 463.506 459.835 463.346C462.863 463.346 465.81 463.745 468.678 464.541C469.156 469.321 468.519 474.34 466.766 479.598C465.332 483.741 463.181 487.645 460.313 491.309C457.445 494.974 454.179 498.081 450.514 500.63C447.328 502.861 443.982 504.454 440.476 505.41C436.812 506.526 433.147 507.163 429.482 507.322C425.658 507.482 421.834 507.163 418.01 506.366C414.186 505.729 410.522 504.853 407.016 503.737C403.033 502.463 399.209 501.029 395.544 499.435C391.72 497.842 387.976 496.089 384.311 494.177C375.707 489.716 367.581 484.777 359.933 479.359C352.126 474.101 344.398 468.525 336.75 462.629C331.652 458.487 326.633 454.264 321.693 449.962C316.595 445.82 311.496 441.597 306.397 437.295C305.441 436.499 305.362 436.658 306.158 437.773C306.796 438.729 307.194 439.287 307.353 439.446C308.628 441.199 309.982 442.792 311.416 444.226L315.24 449.006C316.993 451.078 318.825 453.069 320.737 454.981L325.995 460.717C327.111 461.992 328.226 463.107 329.341 464.063C330.457 465.179 331.652 466.294 332.926 467.409C338.822 472.508 344.797 477.527 350.851 482.466C356.747 487.565 362.801 492.504 369.015 497.284C376.823 503.18 384.789 508.756 392.915 514.014C400.882 519.272 409.327 523.973 418.249 528.115C425.419 531.461 433.067 534.25 441.193 536.48C449.16 538.711 457.206 538.95 465.332 537.197C468.997 536.401 472.343 535.126 475.37 533.373C478.557 531.621 481.425 529.39 483.974 526.681C487.32 523.335 490.109 519.591 492.339 515.448C494.57 511.306 495.924 506.844 496.402 502.064C496.88 497.922 496.562 493.859 495.446 489.875ZM475.914 501.82C473.859 501.82 472.011 501.355 470.381 500.41C468.751 499.465 467.437 498.109 466.492 496.329C465.547 494.549 465.068 492.399 465.068 489.879C465.068 487.359 465.547 485.196 466.492 483.402C467.451 481.621 468.738 480.252 470.381 479.321C472.024 478.389 473.873 477.91 475.914 477.91C477.954 477.91 479.83 478.376 481.46 479.321C483.089 480.252 484.39 481.621 485.349 483.402C486.308 485.196 486.773 487.346 486.773 489.879C486.773 492.412 486.294 494.549 485.349 496.329C484.404 498.109 483.103 499.465 481.46 500.41C479.83 501.341 477.981 501.82 475.914 501.82ZM479.077 496.712C478.173 497.301 477.119 497.589 475.914 497.589C474.722 497.589 473.668 497.301 472.764 496.699C471.86 496.096 471.162 495.233 470.655 494.083C470.148 492.933 469.902 491.55 469.902 489.879C469.902 488.208 470.148 486.798 470.655 485.647C471.148 484.497 471.86 483.621 472.764 483.032C473.668 482.443 474.708 482.142 475.914 482.142C477.119 482.142 478.173 482.429 479.077 483.018C479.967 483.607 480.666 484.483 481.172 485.634C481.679 486.784 481.925 488.222 481.925 489.879C481.925 491.536 481.679 492.947 481.172 494.097C480.679 495.261 479.981 496.124 479.077 496.712Z" fill="black"/>
<path d="M526.226 501.837C524.378 501.837 522.755 501.48 521.369 500.768C519.983 500.056 518.9 499.057 518.135 497.797C517.369 496.523 516.986 495.044 516.986 493.346V478.241H521.58V492.963C521.58 493.866 521.778 494.674 522.161 495.373C522.543 496.071 523.085 496.633 523.784 497.03C524.484 497.427 525.302 497.632 526.226 497.632C527.15 497.632 527.995 497.427 528.695 497.03C529.394 496.633 529.936 496.071 530.318 495.373C530.701 494.674 530.899 493.866 530.899 492.963V478.241H535.506V493.346C535.506 495.044 535.123 496.523 534.344 497.797C533.565 499.07 532.483 500.056 531.097 500.768C529.711 501.48 528.088 501.837 526.226 501.837Z" fill="black"/>
<path d="M583.872 501.507V478.227H592.624C594.327 478.227 595.779 478.542 596.98 479.158C598.168 479.788 599.092 480.664 599.712 481.801C600.333 482.937 600.649 484.266 600.649 485.8C600.649 487.333 600.333 488.648 599.699 489.757C599.065 490.866 598.141 491.715 596.927 492.304C595.713 492.893 594.247 493.181 592.518 493.181H586.578V489.319H591.779C592.716 489.319 593.495 489.182 594.102 488.922C594.709 488.662 595.158 488.265 595.462 487.73C595.765 487.21 595.911 486.553 595.911 485.786C595.911 485.019 595.765 484.334 595.462 483.8C595.158 483.266 594.709 482.855 594.102 482.568C593.495 482.28 592.716 482.143 591.779 482.143H588.479V501.493H583.885L583.872 501.507ZM596.359 501.507L590.895 490.908H595.884L601.455 501.507H596.359Z" fill="black"/>
<path d="M706.591 501.822C704.254 501.822 702.433 501.192 701.087 499.918C699.74 498.645 699.08 496.851 699.08 494.509V493.153H703.674V494.591C703.674 495.701 703.938 496.55 704.466 497.125C704.994 497.7 705.706 497.987 706.591 497.987C707.475 497.987 708.188 497.7 708.716 497.125C709.244 496.55 709.495 495.701 709.495 494.578V478.227H714.049V494.495C714.049 496.851 713.389 498.659 712.056 499.932C710.722 501.206 708.914 501.836 706.591 501.836V501.822Z" fill="black"/>
<path d="M772.301 501.821C770.321 501.821 768.539 501.355 766.968 500.41C765.398 499.465 764.13 498.109 763.219 496.329C762.309 494.549 761.847 492.399 761.847 489.879C761.847 487.359 762.309 485.196 763.219 483.402C764.143 481.621 765.384 480.252 766.968 479.321C768.552 478.389 770.334 477.91 772.301 477.91C774.268 477.91 776.076 478.376 777.647 479.321C779.218 480.252 780.472 481.621 781.396 483.402C782.32 485.196 782.769 487.346 782.769 489.879C782.769 492.412 782.307 494.549 781.396 496.329C780.485 498.109 779.231 499.465 777.647 500.41C776.076 501.341 774.294 501.821 772.301 501.821ZM772.301 497.589C773.463 497.589 774.479 497.301 775.35 496.713C776.222 496.124 776.895 495.261 777.37 494.097C777.858 492.947 778.096 491.536 778.096 489.879C778.096 488.222 777.858 486.784 777.37 485.634C776.882 484.483 776.208 483.607 775.35 483.018C774.479 482.429 773.463 482.142 772.301 482.142C771.139 482.142 770.136 482.443 769.265 483.032C768.394 483.621 767.707 484.497 767.232 485.647C766.744 486.798 766.506 488.208 766.506 489.879C766.506 491.55 766.744 492.933 767.232 494.083C767.721 495.234 768.394 496.096 769.265 496.699C770.136 497.301 771.153 497.589 772.301 497.589Z" fill="black"/>
<path d="M836.229 501.507V492.756L827.913 478.227H833.286L837.087 485.471C837.483 486.197 837.826 486.922 838.13 487.648C838.434 488.374 838.737 489.223 839.067 490.223H838.064C838.381 489.209 838.671 488.347 838.962 487.635C839.252 486.922 839.582 486.197 839.952 485.485L843.621 478.24H848.981L840.796 492.77V501.521H836.216L836.229 501.507Z" fill="black"/>
</svg>
