<svg width="175" height="60" viewBox="0 0 175 60" fill="none" xmlns="http://www.w3.org/2000/svg">
<path d="M18.5204 15.786L27.25 15.5512C28.2127 15.5275 30.1132 15.4101 30.8175 14.7058C30.9823 14.541 31.076 14.4012 31.0048 14.1427L31.1459 14.0015L34.2202 17.0758L34.079 17.2169C30.0433 15.7622 25.8427 16.3016 21.6184 16.3491C27.4847 21.1827 16.6437 31.8365 20.3273 35.5214C21.0777 36.2718 22.1816 36.5303 23.1905 36.2718L23.2604 36.4829C21.8057 36.8113 20.2798 36.318 19.2471 35.2867C14.0613 30.1009 24.4566 19.7043 21.265 16.5127L21.1239 16.3715L17.7911 16.5127L10.9383 23.3655C10.3052 23.9985 10.0705 24.985 10.3751 25.8528L10.2577 25.9702L6.71396 22.4264L6.83134 22.3091C7.72289 22.5438 8.70808 22.3091 9.36619 21.6523L22.39 8.6285C23.0705 7.94796 23.3052 7.05641 23.0006 6.14112L23.1417 6L26.6855 9.54379L26.5444 9.6849C25.7227 9.38024 24.7375 9.56752 24.1045 10.2006L18.5191 15.786H18.5204Z" fill="black"/>
<path d="M16.4024 42.096L16.1676 33.3664C16.1439 32.4036 16.0265 30.5032 15.3222 29.7989C15.1573 29.634 15.0175 29.5404 14.759 29.6116L14.6179 29.4705L17.6922 26.3962L17.8333 26.5373C16.3786 30.573 16.918 34.7736 16.9655 38.9979C21.7991 33.1316 32.4529 43.9727 36.1378 40.2891C36.8882 39.5387 37.1467 38.4348 36.8882 37.4259L37.0993 37.356C37.4277 38.8107 36.9344 40.3366 35.9031 41.3693C30.7173 46.555 20.3207 36.1598 17.129 39.3514L16.9879 39.4925L17.129 42.8253L23.9819 49.6781C24.6149 50.3111 25.6014 50.5459 26.4692 50.2412L26.5866 50.3586L23.0428 53.9024L22.9254 53.785C23.1602 52.8935 22.9254 51.9083 22.2687 51.2502L9.24489 38.2264C8.56435 37.5459 7.6728 37.3111 6.75751 37.6158L6.61639 37.4747L10.1602 33.9309L10.3013 34.072C9.99664 34.8936 10.1839 35.8788 10.817 36.5119L16.4024 42.0973V42.096Z" fill="black"/>
<path d="M42.7123 44.214L33.9828 44.4488C33.02 44.4725 31.1195 44.5899 30.4153 45.2942C30.2504 45.459 30.1568 45.5988 30.228 45.8573L30.0869 45.9984L27.0126 42.9242L27.1537 42.7831C31.1894 44.2378 35.39 43.6984 39.6143 43.6509C33.748 38.8172 44.5891 28.1635 40.9055 24.4786C40.1551 23.7281 39.0512 23.4696 38.0422 23.7281L37.9723 23.5171C39.4271 23.1887 40.953 23.682 41.9856 24.7133C47.1714 29.8991 36.7761 40.2957 39.9678 43.4873L40.1089 43.6285L43.4417 43.4873L50.2945 36.6345C50.9275 36.0015 51.1623 35.015 50.8576 34.1472L50.975 34.0298L54.5188 37.5736L54.4014 37.6909C53.5099 37.4562 52.5247 37.6909 51.8666 38.3477L38.8428 51.3715C38.1623 52.052 37.9275 52.9436 38.2322 53.8589L38.091 54L34.5473 50.4562L34.6884 50.3151C35.51 50.6197 36.4952 50.4325 37.1283 49.7994L42.7137 44.214H42.7123Z" fill="black"/>
<path d="M44.8304 17.9041L45.0652 26.6336C45.0889 27.5964 45.2063 29.4969 45.9106 30.2012C46.0754 30.366 46.2152 30.4597 46.4737 30.3884L46.6148 30.5296L43.5406 33.6038L43.3995 33.4627C44.8542 29.427 44.3147 25.2264 44.2673 21.0021C39.4336 26.8684 28.7799 16.0273 25.095 19.7109C24.3445 20.4614 24.086 21.5652 24.3445 22.5742L24.1335 22.6441C23.8051 21.1894 24.2984 19.6634 25.3297 18.6308C30.5155 13.445 40.9121 23.8403 44.1037 20.6486L44.2448 20.5075L44.1037 17.1748L37.2509 10.3219C36.6179 9.68889 35.6314 9.45413 34.7635 9.75879L34.6462 9.64141L38.19 6.09763L38.3073 6.215C38.0726 7.10655 38.3073 8.09174 38.9641 8.74986L51.9879 21.7736C52.6684 22.4542 53.56 22.6889 54.4753 22.3843L54.6164 22.5254L51.0726 26.0692L50.9315 25.928C51.2361 25.1064 51.0489 24.1212 50.4158 23.4881L44.8304 17.9028V17.9041Z" fill="black"/>
<g clip-path="url(#clip0_6048_9769)">
<path d="M86.7918 16.0279H86.5583L87.2336 14.1887H87.4635L88.1389 16.0279H87.9054L87.3558 14.4796H87.3414L86.7918 16.0279ZM86.878 15.3095H87.8192V15.507H86.878V15.3095ZM93.1456 14.7634H92.9229C92.9097 14.6994 92.8867 14.6431 92.8537 14.5946C92.8214 14.5461 92.7819 14.5054 92.7352 14.4725C92.6891 14.4389 92.6379 14.4138 92.5816 14.397C92.5253 14.3803 92.4667 14.3719 92.4056 14.3719C92.2942 14.3719 92.1933 14.4 92.1029 14.4563C92.0131 14.5126 91.9416 14.5955 91.8883 14.7051C91.8356 14.8146 91.8093 14.949 91.8093 15.1083C91.8093 15.2675 91.8356 15.402 91.8883 15.5115C91.9416 15.6211 92.0131 15.704 92.1029 15.7603C92.1933 15.8166 92.2942 15.8447 92.4056 15.8447C92.4667 15.8447 92.5253 15.8363 92.5816 15.8196C92.6379 15.8028 92.6891 15.7779 92.7352 15.745C92.7819 15.7115 92.8214 15.6705 92.8537 15.622C92.8867 15.5729 92.9097 15.5166 92.9229 15.4531H93.1456C93.1288 15.5471 93.0983 15.6313 93.054 15.7055C93.0097 15.7797 92.9546 15.8429 92.8887 15.895C92.8229 15.9465 92.749 15.9857 92.6669 16.0126C92.5855 16.0396 92.4984 16.0531 92.4056 16.0531C92.2487 16.0531 92.1092 16.0147 91.9871 15.9381C91.865 15.8615 91.7689 15.7525 91.6988 15.6112C91.6288 15.4699 91.5937 15.3023 91.5937 15.1083C91.5937 14.9143 91.6288 14.7467 91.6988 14.6054C91.7689 14.4641 91.865 14.3551 91.9871 14.2785C92.1092 14.2018 92.2487 14.1635 92.4056 14.1635C92.4984 14.1635 92.5855 14.177 92.6669 14.2039C92.749 14.2309 92.8229 14.2704 92.8887 14.3225C92.9546 14.374 93.0097 14.4368 93.054 14.5111C93.0983 14.5847 93.1288 14.6688 93.1456 14.7634ZM96.3218 15.1083C96.3218 15.3023 96.2868 15.4699 96.2168 15.6112C96.1467 15.7525 96.0506 15.8615 95.9285 15.9381C95.8063 16.0147 95.6668 16.0531 95.51 16.0531C95.3531 16.0531 95.2136 16.0147 95.0915 15.9381C94.9693 15.8615 94.8733 15.7525 94.8032 15.6112C94.7332 15.4699 94.6981 15.3023 94.6981 15.1083C94.6981 14.9143 94.7332 14.7467 94.8032 14.6054C94.8733 14.4641 94.9693 14.3551 95.0915 14.2785C95.2136 14.2018 95.3531 14.1635 95.51 14.1635C95.6668 14.1635 95.8063 14.2018 95.9285 14.2785C96.0506 14.3551 96.1467 14.4641 96.2168 14.6054C96.2868 14.7467 96.3218 14.9143 96.3218 15.1083ZM96.1063 15.1083C96.1063 14.949 96.0797 14.8146 96.0264 14.7051C95.9737 14.5955 95.9021 14.5126 95.8117 14.4563C95.7219 14.4 95.6213 14.3719 95.51 14.3719C95.3986 14.3719 95.2977 14.4 95.2073 14.4563C95.1175 14.5126 95.046 14.5955 94.9927 14.7051C94.94 14.8146 94.9137 14.949 94.9137 15.1083C94.9137 15.2675 94.94 15.402 94.9927 15.5115C95.046 15.6211 95.1175 15.704 95.2073 15.7603C95.2977 15.8166 95.3986 15.8447 95.51 15.8447C95.6213 15.8447 95.7219 15.8166 95.8117 15.7603C95.9021 15.704 95.9737 15.6211 96.0264 15.5115C96.0797 15.402 96.1063 15.2675 96.1063 15.1083ZM99.1678 14.1887H99.3905V15.4064C99.3905 15.5322 99.3609 15.6444 99.3016 15.7432C99.2429 15.8414 99.16 15.9189 99.0528 15.9758C98.9457 16.0321 98.82 16.0602 98.6757 16.0602C98.5314 16.0602 98.4056 16.0321 98.2985 15.9758C98.1913 15.9189 98.1081 15.8414 98.0488 15.7432C97.9901 15.6444 97.9608 15.5322 97.9608 15.4064V14.1887H98.1835V15.3885C98.1835 15.4783 98.2033 15.5582 98.2428 15.6283C98.2823 15.6977 98.3386 15.7525 98.4116 15.7926C98.4853 15.8321 98.5733 15.8519 98.6757 15.8519C98.778 15.8519 98.8661 15.8321 98.9397 15.7926C99.0133 15.7525 99.0696 15.6977 99.1085 15.6283C99.148 15.5582 99.1678 15.4783 99.1678 15.3885V14.1887ZM101.1 16.0279V14.1887H101.721C101.866 14.1887 101.983 14.2147 102.075 14.2668C102.167 14.3183 102.236 14.388 102.28 14.4761C102.324 14.5641 102.346 14.6622 102.346 14.7706C102.346 14.879 102.324 14.9775 102.28 15.0661C102.236 15.1547 102.168 15.2253 102.077 15.278C101.985 15.3301 101.868 15.3562 101.725 15.3562H101.279V15.1586H101.718C101.816 15.1586 101.896 15.1415 101.956 15.1074C102.015 15.0733 102.059 15.0272 102.086 14.9691C102.113 14.9104 102.127 14.8443 102.127 14.7706C102.127 14.697 102.113 14.6311 102.086 14.573C102.059 14.515 102.015 14.4695 101.955 14.4365C101.894 14.403 101.814 14.3862 101.714 14.3862H101.322V16.0279H101.1ZM103.97 16.0279V14.1887H104.192V15.8303H105.047V16.0279H103.97ZM106.657 16.0279V14.1887H107.767V14.3862H106.879V15.0077H107.709V15.2053H106.879V15.8303H107.781V16.0279H106.657ZM110.194 15.0095V15.2071H109.389V15.0095H110.194ZM111.86 16.0279V14.1887H112.503C112.631 14.1887 112.737 14.2108 112.82 14.2551C112.903 14.2988 112.965 14.3578 113.006 14.432C113.047 14.5057 113.067 14.5874 113.067 14.6772C113.067 14.7562 113.053 14.8215 113.025 14.873C112.997 14.9245 112.961 14.9652 112.915 14.9951C112.87 15.0251 112.822 15.0472 112.769 15.0616V15.0796C112.825 15.0831 112.882 15.1029 112.939 15.1388C112.996 15.1747 113.043 15.2262 113.082 15.2933C113.12 15.3603 113.139 15.4424 113.139 15.5394C113.139 15.6316 113.118 15.7145 113.076 15.7881C113.034 15.8618 112.968 15.9201 112.878 15.9632C112.787 16.0064 112.67 16.0279 112.525 16.0279H111.86ZM112.083 15.8303H112.525C112.67 15.8303 112.774 15.8022 112.835 15.7459C112.896 15.689 112.927 15.6202 112.927 15.5394C112.927 15.4771 112.911 15.4196 112.879 15.3669C112.848 15.3136 112.803 15.2711 112.744 15.2394C112.685 15.2071 112.616 15.1909 112.536 15.1909H112.083V15.8303ZM112.083 14.9969H112.496C112.563 14.9969 112.624 14.9838 112.677 14.9574C112.732 14.9311 112.775 14.894 112.807 14.8461C112.839 14.7982 112.855 14.7419 112.855 14.6772C112.855 14.5964 112.827 14.5278 112.771 14.4716C112.715 14.4147 112.625 14.3862 112.503 14.3862H112.083V14.9969ZM115.976 14.1887H116.199V15.4064C116.199 15.5322 116.17 15.6444 116.11 15.7432C116.052 15.8414 115.969 15.9189 115.862 15.9758C115.754 16.0321 115.629 16.0602 115.484 16.0602C115.34 16.0602 115.214 16.0321 115.107 15.9758C115 15.9189 114.917 15.8414 114.857 15.7432C114.799 15.6444 114.769 15.5322 114.769 15.4064V14.1887H114.992V15.3885C114.992 15.4783 115.012 15.5582 115.051 15.6283C115.091 15.6977 115.147 15.7525 115.22 15.7926C115.294 15.8321 115.382 15.8519 115.484 15.8519C115.587 15.8519 115.675 15.8321 115.748 15.7926C115.822 15.7525 115.878 15.6977 115.917 15.6283C115.957 15.5582 115.976 15.4783 115.976 15.3885V14.1887ZM118.131 14.1887V16.0279H117.908V14.1887H118.131ZM119.842 16.0279V14.1887H120.065V15.8303H120.92V16.0279H119.842ZM122.184 14.3862V14.1887H123.564V14.3862H122.985V16.0279H122.762V14.3862H122.184ZM127.147 16.0279V14.1887H127.791C127.919 14.1887 128.024 14.2108 128.108 14.2551C128.191 14.2988 128.253 14.3578 128.293 14.432C128.334 14.5057 128.354 14.5874 128.354 14.6772C128.354 14.7562 128.34 14.8215 128.312 14.873C128.285 14.9245 128.248 14.9652 128.203 14.9951C128.158 15.0251 128.109 15.0472 128.056 15.0616V15.0796C128.113 15.0831 128.169 15.1029 128.226 15.1388C128.283 15.1747 128.331 15.2262 128.369 15.2933C128.407 15.3603 128.426 15.4424 128.426 15.5394C128.426 15.6316 128.405 15.7145 128.363 15.7881C128.322 15.8618 128.255 15.9201 128.165 15.9632C128.075 16.0064 127.957 16.0279 127.812 16.0279H127.147ZM127.37 15.8303H127.812C127.958 15.8303 128.061 15.8022 128.122 15.7459C128.184 15.689 128.214 15.6202 128.214 15.5394C128.214 15.4771 128.199 15.4196 128.167 15.3669C128.135 15.3136 128.09 15.2711 128.031 15.2394C127.973 15.2071 127.903 15.1909 127.823 15.1909H127.37V15.8303ZM127.37 14.9969H127.783C127.85 14.9969 127.911 14.9838 127.965 14.9574C128.019 14.9311 128.062 14.894 128.094 14.8461C128.126 14.7982 128.143 14.7419 128.143 14.6772C128.143 14.5964 128.114 14.5278 128.058 14.4716C128.002 14.4147 127.913 14.3862 127.791 14.3862H127.37V14.9969ZM130.057 16.0279V14.1887H130.678C130.822 14.1887 130.94 14.2132 131.032 14.2623C131.124 14.3108 131.193 14.3776 131.237 14.4626C131.281 14.5476 131.303 14.6443 131.303 14.7527C131.303 14.861 131.281 14.9571 131.237 15.0409C131.193 15.1248 131.125 15.1906 131.033 15.2385C130.941 15.2858 130.824 15.3095 130.682 15.3095H130.179V15.1083H130.675C130.773 15.1083 130.852 15.0939 130.912 15.0652C130.972 15.0364 131.016 14.9957 131.043 14.943C131.07 14.8898 131.084 14.8263 131.084 14.7527C131.084 14.679 131.07 14.6147 131.043 14.5596C131.015 14.5045 130.971 14.462 130.911 14.432C130.85 14.4015 130.77 14.3862 130.671 14.3862H130.28V16.0279H130.057ZM130.923 15.2017L131.375 16.0279H131.116L130.671 15.2017H130.923ZM133.014 16.0279H132.781L133.456 14.1887H133.686L134.361 16.0279H134.128L133.578 14.4796H133.564L133.014 16.0279ZM133.101 15.3095H134.042V15.507H133.101V15.3095ZM137.371 14.1887V16.0279H137.155L136.153 14.5838H136.135V16.0279H135.912V14.1887H136.128L137.134 15.6364H137.152V14.1887H137.371ZM139.649 16.0279H139.081V14.1887H139.674C139.852 14.1887 140.005 14.2255 140.132 14.2991C140.259 14.3722 140.356 14.4772 140.424 14.6144C140.491 14.7509 140.525 14.9143 140.525 15.1047C140.525 15.2963 140.491 15.4612 140.423 15.5995C140.354 15.7372 140.255 15.8432 140.125 15.9174C139.994 15.9911 139.835 16.0279 139.649 16.0279ZM139.304 15.8303H139.634C139.786 15.8303 139.912 15.801 140.012 15.7423C140.112 15.6836 140.187 15.6001 140.236 15.4918C140.285 15.3834 140.31 15.2544 140.31 15.1047C140.31 14.9562 140.285 14.8284 140.237 14.7212C140.188 14.6135 140.116 14.5308 140.019 14.4734C139.923 14.4153 139.803 14.3862 139.659 14.3862H139.304V15.8303Z" fill="black"/>
<path d="M77.4835 15.5565H84.1879M150.463 15.5565H143.103" stroke="black" stroke-width="0.210746" stroke-linecap="round"/>
<path d="M83.1245 19.8266V19.8287C83.1245 20.4476 83.0635 21.0141 82.9545 21.5368C82.7129 22.6923 82.2287 23.6286 81.6024 24.4239C80.6906 25.5815 79.4817 26.4441 78.2813 27.2768C77.718 27.668 77.1568 28.0528 76.6288 28.4579L82.4746 37.0571C83.3799 38.389 84.2415 38.9843 84.8486 39.2687H81.7948L75.2617 29.6593C75.173 29.7523 75.0875 29.8464 75.0041 29.9436C74.118 30.9741 73.5322 32.2247 73.5322 33.9798H73.5301V37.0454C73.5301 38.4852 74.0923 38.9854 74.6995 39.2697H70.5554C71.1625 38.9854 71.7247 38.4852 71.7247 37.0454V22.0509C71.7247 20.6122 71.1625 20.112 70.5554 19.8266H74.6995C74.0923 20.1109 73.5301 20.6112 73.5301 22.0509V32.2236C73.7856 31.2691 74.2484 30.4813 74.8352 29.7993C75.748 28.7379 76.9548 27.9266 78.153 27.094C79.3513 26.2624 80.5399 25.4115 81.426 24.286C81.9701 23.5955 82.4019 22.8024 82.6542 21.8414C82.915 20.7106 82.4767 20.0714 81.954 19.8266H83.1234H83.1245Z" fill="black"/>
<path d="M92.8181 19.8264C92.211 20.1108 91.6487 20.611 91.6487 22.0508V32.1946C91.8946 31.6345 92.3285 31.2048 92.8694 30.8638C93.7234 30.3251 94.8436 29.9863 95.9553 29.6335C96.5806 29.4347 97.2037 29.2316 97.7745 28.99C98.2181 28.8019 98.6286 28.5913 98.9856 28.3412C99.7766 27.7854 100.298 27.0511 100.328 25.9159V22.0497C100.328 20.611 99.7659 20.1108 99.1587 19.8254H103.303C102.696 20.1097 102.133 20.6099 102.133 22.0497V37.0441C102.133 38.4839 102.696 38.9842 103.303 39.2685H99.1587C99.7659 38.9842 100.328 38.4839 100.328 37.0441V27.05C100.083 27.6668 99.6526 28.1435 99.1138 28.5219C98.2587 29.1226 97.1364 29.4914 96.0226 29.8441C94.9088 30.1979 93.8025 30.5357 92.988 31.0498C92.1725 31.5639 91.6487 32.2352 91.6487 33.3062V37.0441C91.6487 38.4839 92.211 38.9842 92.8181 39.2685H88.674C89.2811 38.9842 89.8433 38.4839 89.8433 37.0441V22.0497C89.8433 20.611 89.2811 20.1108 88.674 19.8254H92.8181V19.8264Z" fill="black"/>
<path d="M121.498 19.8252C120.991 20.0636 120.514 20.4516 120.372 21.4147C120.328 21.7161 120.326 22.0795 120.329 22.412V30.9695C120.329 31.6376 120.341 32.3046 120.305 32.9715C120.272 33.5338 120.17 34.6112 119.753 35.6919C119.431 36.5256 118.962 37.2663 118.318 37.8617C117.763 38.3759 117.133 38.7297 116.484 38.9563C115.843 39.1807 115.22 39.2694 114.698 39.2876C114.139 39.309 113.54 39.247 112.956 39.1016C112.783 39.0589 112.618 39.0097 112.46 38.9563C109.954 38.1022 108.575 36.2488 108.277 33.3991C108.206 32.7054 108.213 31.8663 108.218 31.1063V22.0485C108.218 20.6098 107.656 20.1096 107.049 19.8242H111.193C110.586 20.1085 110.024 20.6087 110.024 22.0485V30.7718C110.024 31.6493 110.015 32.5269 110.047 33.4044C110.119 34.9255 110.4 36.3332 111.456 37.5827C111.817 37.9804 112.229 38.2807 112.651 38.4934C112.786 38.5618 112.931 38.6249 113.085 38.6816C113.607 38.8761 114.168 38.9766 114.696 38.9905C115.191 39.0022 115.789 38.936 116.408 38.7329C117.034 38.5276 117.64 38.1931 118.173 37.7025C118.791 37.1349 119.241 36.4209 119.55 35.6117C119.951 34.561 120.047 33.5103 120.083 32.9555C120.112 32.4884 120.11 31.8535 120.108 31.3009V22.0378C120.106 20.6055 119.544 20.1064 118.938 19.8231H121.499L121.498 19.8252Z" fill="black"/>
<path d="M133.302 19.943C133.825 20.021 134.331 20.144 134.808 20.3203C135.525 20.5854 136.147 20.9617 136.648 21.4459C137.193 21.9718 137.557 22.5874 137.758 23.2384C137.941 23.8626 138.135 25.2768 137.63 25.8957C137.426 26.1469 137.063 26.2302 136.732 26.1287C136.392 26.0239 136.161 25.7311 136.117 25.3997C136.053 24.877 136.468 24.3704 136.482 23.4821C136.468 23.015 136.338 22.4955 136.008 21.9857C135.701 21.5121 135.239 21.0771 134.618 20.7393C134.178 20.4999 133.683 20.3214 133.154 20.2113C132.568 20.0884 131.997 20.0542 131.379 20.0745C130.874 20.098 130.398 20.1771 129.961 20.3107C129.291 20.5159 128.747 20.8387 128.331 21.2364C126.96 22.6078 127.062 23.93 128.053 25.0929C129.42 26.5979 132.759 27.6358 135.016 28.8918C135.676 29.2477 136.338 29.6614 136.915 30.1413C137.467 30.6009 137.959 31.1364 138.295 31.765C138.46 32.0717 138.586 32.3988 138.665 32.7473C139.006 34.5622 138.466 36.3494 136.554 37.894C135.371 38.795 133.806 39.2846 132.134 39.2568H132.117C131.341 39.2429 130.476 39.1179 129.631 38.7983C128.864 38.5097 128.175 38.0842 127.629 37.5263C127.029 36.9127 126.666 36.203 126.495 35.4633C126.256 34.4382 126.427 33.5062 126.52 33.0904C126.567 32.8798 126.615 32.7109 126.629 32.665L126.845 32.727C126.832 32.7729 126.785 32.9354 126.739 33.1395C126.65 33.5447 126.479 34.4361 126.699 35.4163C126.857 36.1207 127.199 36.8005 127.771 37.3873C128.293 37.9228 128.958 38.3311 129.703 38.6026C130.525 38.903 131.368 39.0088 132.118 38.9949H132.134C133.761 38.9597 135.207 38.3921 136.211 37.4792C137.629 36.1677 138.032 34.0738 136.769 32.6275C135.201 30.9291 131.932 29.6699 130.056 28.6331C128.751 27.9201 127.542 27.1954 126.753 25.8005C126.221 24.8588 126.186 23.6467 126.838 22.2988C127.124 21.7708 127.525 21.293 128.049 20.9018C128.563 20.5191 129.178 20.2327 129.888 20.0531C130.44 19.9163 131.137 19.8361 131.747 19.834C132.262 19.8308 132.775 19.8714 133.299 19.943H133.302Z" fill="black"/>
<path d="M147.673 19.8264C147.066 20.1108 146.504 20.611 146.504 22.0508V32.1946C146.75 31.6345 147.184 31.2048 147.725 30.8638C148.579 30.3251 149.699 29.9863 150.811 29.6335C151.436 29.4347 152.059 29.2316 152.63 28.99C153.073 28.8019 153.484 28.5913 153.841 28.3412C154.632 27.7854 155.154 27.0511 155.183 25.9159V22.0497C155.183 20.611 154.621 20.1108 154.014 19.8254H158.158C157.551 20.1097 156.989 20.6099 156.989 22.0497V37.0441C156.989 38.4839 157.551 38.9842 158.158 39.2685H154.014C154.621 38.9842 155.183 38.4839 155.183 37.0441V27.05C154.939 27.6668 154.508 28.1435 153.969 28.5219C153.114 29.1226 151.992 29.4914 150.878 29.8441C149.764 30.1979 148.658 30.5357 147.843 31.0498C147.028 31.5639 146.504 32.2352 146.504 33.3062V37.0441C146.504 38.4839 147.066 38.9842 147.673 39.2685H143.529C144.136 38.9842 144.699 38.4839 144.699 37.0441V22.0497C144.699 20.611 144.136 20.1108 143.529 19.8254H147.673V19.8264Z" fill="black"/>
<path fill-rule="evenodd" clip-rule="evenodd" d="M113.996 26.7916C113.996 27.7509 113.56 28.5285 113.023 28.5285C112.486 28.5285 112.05 27.7509 112.05 26.7916C112.05 25.8323 112.486 25.0546 113.023 25.0546C113.56 25.0546 113.996 25.8323 113.996 26.7916Z" fill="black"/>
<path fill-rule="evenodd" clip-rule="evenodd" d="M117.686 31.9982C117.648 32.0606 117.606 32.1353 117.559 32.2192C117.623 32.1285 117.685 32.0358 117.743 31.9416C117.724 31.9605 117.705 31.9794 117.686 31.9982Z" fill="black"/>
<path fill-rule="evenodd" clip-rule="evenodd" d="M117.611 32.0719C117.636 32.0475 117.661 32.0229 117.686 31.9982C117.691 31.9896 117.697 31.9813 117.702 31.9732C117.673 32.0022 117.642 32.0353 117.611 32.0719Z" fill="black"/>
<path d="M117.611 32.0719C117.245 32.4287 116.861 32.759 116.438 33.0137C114.821 34.0334 113.245 33.1954 112.05 31.9416C112.096 32.0187 112.144 32.0942 112.194 32.1679C113.131 33.7233 114.466 35.508 116.02 34.3366C116.612 33.9255 117.132 32.9884 117.473 32.3741L117.481 32.3588C117.508 32.31 117.534 32.2633 117.559 32.2192C117.606 32.1353 117.648 32.0606 117.686 31.9982C117.661 32.0229 117.636 32.0475 117.611 32.0719ZM116.576 33.2221C116.763 33.0872 116.936 32.9369 117.096 32.7747C116.758 33.2522 116.352 33.7993 115.882 34.1281C114.698 34.8748 113.849 34.0448 113.01 33.0545C114.028 33.8707 115.394 34.1132 116.576 33.2221Z" fill="black"/>
<path fill-rule="evenodd" clip-rule="evenodd" d="M117.096 32.7747C116.936 32.9369 116.763 33.0872 116.576 33.2221C115.394 34.1132 114.028 33.8707 113.01 33.0545C113.849 34.0448 114.698 34.8748 115.882 34.1281C116.352 33.7993 116.758 33.2522 117.096 32.7747Z" fill="black"/>
<path d="M115.507 27.1628C116.201 26.1847 117.769 25.1973 117.625 25.7292C117.542 26.0375 116.904 26.3634 116.762 26.4911C117.886 26.242 118.873 26.9276 118.434 26.6946C117.753 26.3589 116.199 26.8669 115.507 27.1628Z" fill="black"/>
<path d="M71.223 45.9646L70.5555 43.4761H71.1117L71.4001 44.6998C71.4235 44.8023 71.4455 44.9121 71.4645 45.0278C71.4835 45.1449 71.5026 45.2605 71.5216 45.3791C71.5406 45.4962 71.5582 45.6089 71.5772 45.7172H71.4865C71.507 45.6089 71.526 45.4962 71.5465 45.3791C71.567 45.262 71.5875 45.1449 71.608 45.0278C71.6285 44.9121 71.6519 44.8023 71.6782 44.6998L71.9827 43.4761H72.5126L72.8156 44.6998C72.8405 44.8023 72.8639 44.9121 72.8859 45.0278C72.9064 45.1449 72.9284 45.2605 72.9489 45.3791C72.9694 45.4962 72.9899 45.6089 73.0103 45.7172H72.9167C72.9357 45.6089 72.9547 45.4962 72.9723 45.3791C72.9913 45.262 73.0104 45.1449 73.0308 45.0278C73.0513 44.9121 73.0733 44.8023 73.0952 44.6998L73.3836 43.4761H73.9414L73.2709 45.9646H72.6898L72.3589 44.6925C72.3238 44.5505 72.293 44.3983 72.2682 44.2329C72.2433 44.0675 72.2155 43.8977 72.1833 43.7235H72.3106C72.2755 43.8933 72.2477 44.0601 72.2257 44.2226C72.2038 44.3851 72.173 44.5417 72.1349 44.6925L71.8056 45.9646H71.223Z" fill="black"/>
<path d="M79.1645 45.9646V43.4761H80.8304V43.8991H79.6739V44.5008H80.7425V44.9165H79.6739V45.543H80.8333V45.9661H79.1645V45.9646Z" fill="black"/>
<path d="M86.0132 45.9646L86.8637 43.4761H87.5313L88.4037 45.9646H87.8372L87.4376 44.7643C87.3893 44.6091 87.341 44.4393 87.2912 44.2563C87.2414 44.0718 87.1902 43.8713 87.1346 43.6532H87.2458C87.1917 43.8728 87.1419 44.0748 87.0965 44.2607C87.0497 44.4466 87.0043 44.6149 86.9589 44.7657L86.5754 45.9661H86.0118L86.0132 45.9646ZM86.5446 45.3879V44.9882H87.8723V45.3879H86.5446Z" fill="black"/>
<path d="M93.6269 45.9646V43.4761H94.5974C94.7862 43.4761 94.9473 43.5097 95.0805 43.5756C95.2122 43.6429 95.3147 43.7366 95.3835 43.8581C95.4523 43.9796 95.4874 44.1216 95.4874 44.2856C95.4874 44.4495 95.4523 44.5901 95.382 44.7086C95.3118 44.8272 95.2093 44.918 95.0746 44.9809C94.9399 45.0439 94.7775 45.0746 94.5857 45.0746H93.927V44.6618H94.5037C94.6076 44.6618 94.694 44.6471 94.7614 44.6193C94.8287 44.5915 94.8785 44.5491 94.9121 44.492C94.9458 44.4364 94.9619 44.3661 94.9619 44.2841C94.9619 44.2021 94.9458 44.1289 94.9121 44.0719C94.8785 44.0148 94.8287 43.9708 94.7614 43.9401C94.694 43.9094 94.6076 43.8947 94.5037 43.8947H94.1377V45.9632H93.6283L93.6269 45.9646ZM95.0117 45.9646L94.4056 44.8316H94.959L95.5767 45.9646H95.0117Z" fill="black"/>
<path d="M107.294 45.9646V45.0292L106.372 43.4761H106.968L107.389 44.2504C107.433 44.328 107.471 44.4056 107.505 44.4832C107.539 44.5608 107.572 44.6515 107.609 44.7584H107.498C107.533 44.6501 107.565 44.5579 107.597 44.4817C107.629 44.4056 107.666 44.328 107.707 44.2519L108.114 43.4775H108.708L107.801 45.0307V45.9661H107.293L107.294 45.9646Z" fill="black"/>
<path d="M114.877 45.9982C114.657 45.9982 114.46 45.9485 114.286 45.8474C114.111 45.7464 113.971 45.6015 113.87 45.4112C113.769 45.2209 113.718 44.9911 113.718 44.7217C113.718 44.4524 113.769 44.2211 113.87 44.0293C113.972 43.839 114.11 43.6926 114.286 43.5931C114.461 43.4936 114.659 43.4423 114.877 43.4423C115.095 43.4423 115.296 43.4921 115.47 43.5931C115.644 43.6926 115.783 43.839 115.886 44.0293C115.988 44.2211 116.038 44.4509 116.038 44.7217C116.038 44.9926 115.987 45.2209 115.886 45.4112C115.785 45.6015 115.646 45.7464 115.47 45.8474C115.296 45.947 115.098 45.9982 114.877 45.9982ZM114.877 45.5459C115.006 45.5459 115.119 45.5152 115.215 45.4522C115.312 45.3893 115.386 45.297 115.439 45.1726C115.493 45.0496 115.52 44.8989 115.52 44.7217C115.52 44.5446 115.493 44.3909 115.439 44.2679C115.385 44.145 115.31 44.0513 115.215 43.9883C115.119 43.9254 115.006 43.8947 114.877 43.8947C114.748 43.8947 114.637 43.9269 114.54 43.9898C114.444 44.0528 114.368 44.1464 114.315 44.2694C114.261 44.3924 114.234 44.5431 114.234 44.7217C114.234 44.9003 114.261 45.0482 114.315 45.1711C114.369 45.2941 114.444 45.3863 114.54 45.4507C114.637 45.5152 114.75 45.5459 114.877 45.5459Z" fill="black"/>
<path d="M122.361 46C122.156 46 121.976 45.9619 121.823 45.8858C121.669 45.8097 121.549 45.7028 121.464 45.5681C121.379 45.432 121.337 45.2739 121.337 45.0924V43.4778H121.846V45.0514C121.846 45.148 121.868 45.2344 121.91 45.309C121.953 45.3837 122.013 45.4437 122.091 45.4862C122.168 45.5286 122.259 45.5506 122.361 45.5506C122.464 45.5506 122.557 45.5286 122.635 45.4862C122.713 45.4437 122.773 45.3837 122.815 45.309C122.858 45.2344 122.88 45.148 122.88 45.0514V43.4778H123.39V45.0924C123.39 45.2739 123.348 45.432 123.262 45.5681C123.175 45.7043 123.055 45.8097 122.901 45.8858C122.748 45.9619 122.568 46 122.361 46Z" fill="black"/>
<path d="M128.754 45.9646V43.4761H129.725C129.914 43.4761 130.075 43.5097 130.208 43.5756C130.34 43.6429 130.442 43.7366 130.511 43.8581C130.58 43.9796 130.615 44.1216 130.615 44.2856C130.615 44.4495 130.58 44.5901 130.509 44.7086C130.439 44.8272 130.337 44.918 130.202 44.9809C130.067 45.0439 129.905 45.0746 129.713 45.0746H129.054V44.6618H129.631C129.735 44.6618 129.821 44.6471 129.889 44.6193C129.956 44.5915 130.006 44.5491 130.04 44.492C130.073 44.4364 130.089 44.3661 130.089 44.2841C130.089 44.2021 130.073 44.1289 130.04 44.0719C130.006 44.0148 129.956 43.9708 129.889 43.9401C129.821 43.9094 129.735 43.8947 129.631 43.8947H129.265V45.9632H128.756L128.754 45.9646ZM130.139 45.9646L129.533 44.8316H130.086L130.704 45.9646H130.139Z" fill="black"/>
<path d="M142.363 45.9983C142.104 45.9983 141.902 45.931 141.753 45.7948C141.603 45.6587 141.53 45.4669 141.53 45.2166V45.0717H142.04V45.2254C142.04 45.3439 142.069 45.4347 142.128 45.4962C142.186 45.5577 142.265 45.5884 142.363 45.5884C142.461 45.5884 142.54 45.5577 142.599 45.4962C142.657 45.4347 142.685 45.3439 142.685 45.2239V43.4761H143.19V45.2151C143.19 45.4669 143.117 45.6601 142.969 45.7963C142.821 45.9324 142.621 45.9998 142.363 45.9998V45.9983Z" fill="black"/>
<path d="M149.651 45.9982C149.431 45.9982 149.233 45.9485 149.059 45.8474C148.885 45.7464 148.744 45.6015 148.643 45.4112C148.542 45.2209 148.491 44.9911 148.491 44.7217C148.491 44.4524 148.542 44.2211 148.643 44.0293C148.746 43.839 148.884 43.6926 149.059 43.5931C149.235 43.4936 149.432 43.4423 149.651 43.4423C149.869 43.4423 150.069 43.4921 150.243 43.5931C150.418 43.6926 150.557 43.839 150.659 44.0293C150.762 44.2211 150.811 44.4509 150.811 44.7217C150.811 44.9926 150.76 45.2209 150.659 45.4112C150.558 45.6015 150.419 45.7464 150.243 45.8474C150.069 45.947 149.872 45.9982 149.651 45.9982ZM149.651 45.5459C149.779 45.5459 149.892 45.5152 149.989 45.4522C150.085 45.3893 150.16 45.297 150.213 45.1726C150.267 45.0496 150.293 44.8989 150.293 44.7217C150.293 44.5446 150.267 44.3909 150.213 44.2679C150.159 44.145 150.084 44.0513 149.989 43.9883C149.892 43.9254 149.779 43.8947 149.651 43.8947C149.522 43.8947 149.411 43.9269 149.314 43.9898C149.217 44.0528 149.141 44.1464 149.088 44.2694C149.034 44.3924 149.008 44.5431 149.008 44.7217C149.008 44.9003 149.034 45.0482 149.088 45.1711C149.143 45.2941 149.217 45.3863 149.314 45.4507C149.411 45.5152 149.523 45.5459 149.651 45.5459Z" fill="black"/>
<path d="M156.74 45.9646V45.0292L155.818 43.4761H156.414L156.835 44.2504C156.879 44.328 156.917 44.4056 156.951 44.4832C156.984 44.5608 157.018 44.6515 157.055 44.7584H156.943C156.979 44.6501 157.011 44.5579 157.043 44.4817C157.075 44.4056 157.112 44.328 157.153 44.2519L157.56 43.4775H158.154L157.246 45.0307V45.9661H156.739L156.74 45.9646Z" fill="black"/>
</g>
<defs>
<clipPath id="clip0_6048_9769">
<rect width="87.6093" height="32" fill="white" transform="translate(70.5519 14)"/>
</clipPath>
</defs>
</svg>
